<svg width="640" height="401" viewBox="0 0 640 401" fill="none" xmlns="http://www.w3.org/2000/svg">
<rect x="13.4247" y="20.4247" width="294.725" height="245.462" rx="9.76753" fill="#30294E" fill-opacity="0.2"/>
<g clip-path="url(#clip0_3129_20333)">
<rect x="25.2305" y="167.787" width="5.0961" height="40.7688" rx="2.54805" fill="#6C37F4" fill-opacity="0.5"/>
<rect x="25.2305" y="209.404" width="5.0961" height="43.3169" rx="2.54805" fill="#645D74"/>
<rect x="34.4033" y="223.844" width="5.0961" height="17.8364" rx="2.54805" fill="#6C37F4" fill-opacity="0.5"/>
<rect x="34.4033" y="242.529" width="5.0961" height="10.1922" rx="2.54805" fill="#645D74"/>
<rect x="43.5762" y="234.885" width="5.0961" height="6.79481" rx="2.54805" fill="#6C37F4" fill-opacity="0.5"/>
<rect x="43.5762" y="242.529" width="5.0961" height="10.1922" rx="2.54805" fill="#645D74"/>
<rect x="52.749" y="158.443" width="5.0961" height="40.7688" rx="2.54805" fill="#6C37F4" fill-opacity="0.5"/>
<rect x="52.749" y="200.062" width="5.0961" height="52.6597" rx="2.54805" fill="#645D74"/>
<rect x="61.9229" y="183.924" width="5.0961" height="40.7688" rx="2.54805" fill="#6C37F4" fill-opacity="0.5"/>
<rect x="61.9229" y="225.543" width="5.0961" height="27.1792" rx="2.54805" fill="#645D74"/>
<rect x="71.0957" y="166.088" width="5.0961" height="33.1247" rx="2.54805" fill="#6C37F4" fill-opacity="0.5"/>
<rect x="71.0957" y="200.062" width="5.0961" height="52.6597" rx="2.54805" fill="#645D74"/>
<rect x="80.2686" y="181.375" width="5.0961" height="17.8364" rx="2.54805" fill="#6C37F4" fill-opacity="0.5"/>
<rect x="80.2686" y="200.062" width="5.0961" height="52.6597" rx="2.54805" fill="#645D74"/>
<rect x="89.4414" y="141.457" width="5.0961" height="40.7688" rx="2.54805" fill="#6C37F4" fill-opacity="0.5"/>
<rect x="89.4414" y="183.074" width="5.0961" height="69.6468" rx="2.54805" fill="#645D74"/>
<rect x="98.6143" y="107.482" width="5.0961" height="40.7688" rx="2.54805" fill="#6C37F4" fill-opacity="0.5"/>
<rect x="98.6143" y="149.1" width="5.0961" height="103.621" rx="2.54805" fill="#645D74"/>
<rect x="107.787" y="192.418" width="5.0961" height="6.79481" rx="2.54805" fill="#6C37F4" fill-opacity="0.5"/>
<rect x="107.787" y="200.062" width="5.0961" height="52.6597" rx="2.54805" fill="#645D74"/>
<rect x="116.96" y="157.594" width="5.0961" height="67.0987" rx="2.54805" fill="#6C37F4" fill-opacity="0.5"/>
<rect x="116.96" y="225.543" width="5.0961" height="27.1792" rx="2.54805" fill="#645D74"/>
<rect x="126.134" y="158.443" width="5.0961" height="40.7688" rx="2.54805" fill="#6C37F4" fill-opacity="0.5"/>
<rect x="126.134" y="200.062" width="5.0961" height="52.6597" rx="2.54805" fill="#645D74"/>
<rect x="135.307" y="192.418" width="5.0961" height="40.7688" rx="2.54805" fill="#6C37F4" fill-opacity="0.5"/>
<rect x="135.307" y="234.035" width="5.0961" height="18.6857" rx="2.54805" fill="#645D74"/>
<rect x="144.479" y="141.457" width="5.0961" height="23.7818" rx="2.54805" fill="#6C37F4" fill-opacity="0.5"/>
<rect x="144.479" y="166.088" width="5.0961" height="86.6338" rx="2.54805" fill="#645D74"/>
<rect x="153.652" y="124.469" width="5.0961" height="23.7818" rx="2.54805" fill="#6C37F4" fill-opacity="0.5"/>
<rect x="153.652" y="149.1" width="5.0961" height="103.621" rx="2.54805" fill="#645D74"/>
<rect x="162.825" y="158.443" width="5.0961" height="6.79481" rx="2.54805" fill="#6C37F4" fill-opacity="0.5"/>
<rect x="162.825" y="166.088" width="5.0961" height="86.6338" rx="2.54805" fill="#645D74"/>
<rect x="171.998" y="183.924" width="5.0961" height="15.2883" rx="2.54805" fill="#6C37F4" fill-opacity="0.5"/>
<rect x="171.998" y="200.062" width="5.0961" height="52.6597" rx="2.54805" fill="#645D74"/>
<rect x="181.171" y="147.402" width="5.0961" height="17.8364" rx="2.54805" fill="#6C37F4" fill-opacity="0.5"/>
<rect x="181.171" y="166.088" width="5.0961" height="86.6338" rx="2.54805" fill="#645D74"/>
<rect x="190.345" y="183.924" width="5.0961" height="23.7818" rx="2.54805" fill="#6C37F4" fill-opacity="0.5"/>
<rect x="190.345" y="208.555" width="5.0961" height="44.1662" rx="2.54805" fill="#645D74"/>
<rect x="199.518" y="124.469" width="5.0961" height="23.7818" rx="2.54805" fill="#6C37F4" fill-opacity="0.5"/>
<rect x="199.518" y="149.1" width="5.0961" height="103.621" rx="2.54805" fill="#645D74"/>
<rect x="208.69" y="141.457" width="5.0961" height="23.7818" rx="2.54805" fill="#6C37F4" fill-opacity="0.5"/>
<rect x="208.69" y="166.088" width="5.0961" height="86.6338" rx="2.54805" fill="#645D74"/>
<rect x="215.825" y="30.1914" width="9.17299" height="229.325" rx="4.58649" fill="#30294E"/>
<rect x="217.863" y="132.963" width="5.0961" height="91.7299" rx="2.54805" fill="#6C37F4"/>
<rect x="217.863" y="225.543" width="5.0961" height="27.1792" rx="2.54805" fill="#645D74"/>
<rect x="227.036" y="181.375" width="5.0961" height="17.8364" rx="2.54805" fill="#6C37F4" fill-opacity="0.5"/>
<rect x="227.036" y="200.062" width="5.0961" height="52.6597" rx="2.54805" fill="#645D74"/>
<rect x="236.209" y="200.91" width="5.0961" height="15.2883" rx="2.54805" fill="#6C37F4" fill-opacity="0.5"/>
<rect x="236.209" y="217.049" width="5.0961" height="35.6727" rx="2.54805" fill="#645D74"/>
<rect x="245.382" y="175.43" width="5.0961" height="23.7818" rx="2.54805" fill="#6C37F4" fill-opacity="0.5"/>
<rect x="245.382" y="200.062" width="5.0961" height="52.6597" rx="2.54805" fill="#645D74"/>
<rect x="254.556" y="175.43" width="5.0961" height="40.7688" rx="2.54805" fill="#6C37F4" fill-opacity="0.5"/>
<rect x="254.556" y="217.049" width="5.0961" height="35.6727" rx="2.54805" fill="#645D74"/>
<rect x="263.729" y="202.609" width="5.0961" height="23.7818" rx="2.54805" fill="#6C37F4" fill-opacity="0.5"/>
<rect x="263.729" y="227.24" width="5.0961" height="25.4805" rx="2.54805" fill="#645D74"/>
<rect x="272.901" y="217.898" width="5.0961" height="6.79481" rx="2.54805" fill="#6C37F4" fill-opacity="0.5"/>
<rect x="272.901" y="225.543" width="5.0961" height="27.1792" rx="2.54805" fill="#645D74"/>
<rect x="282.074" y="198.363" width="5.0961" height="0.849351" rx="0.424675" fill="#6C37F4" fill-opacity="0.5"/>
<rect x="282.074" y="200.062" width="5.0961" height="52.6597" rx="2.54805" fill="#645D74"/>
<rect x="291.247" y="175.43" width="5.0961" height="23.7818" rx="2.54805" fill="#6C37F4" fill-opacity="0.5"/>
<rect x="291.247" y="200.062" width="5.0961" height="52.6597" rx="2.54805" fill="#645D74"/>
</g>
<rect x="13.4247" y="20.4247" width="294.725" height="245.462" rx="9.76753" stroke="#30294E" stroke-width="0.849351"/>
<g clip-path="url(#clip1_3129_20333)">
<rect x="13" y="289" width="295.574" height="111" rx="10.1922" fill="#0D0225"/>
<g clip-path="url(#clip2_3129_20333)">
<rect x="98.6143" y="376.482" width="5.0961" height="40.7688" rx="2.54805" fill="#EBFF5E"/>
<rect x="153.652" y="393.469" width="5.0961" height="23.7818" rx="2.54805" fill="#EBFF5E"/>
<rect x="199.518" y="393.469" width="5.0961" height="23.7818" rx="2.54805" fill="#EBFF5E"/>
</g>
</g>
<rect x="13.4247" y="289.425" width="294.725" height="110.151" rx="9.76753" stroke="#30294E" stroke-width="0.849351"/>
<rect x="331.425" y="20.4247" width="294.725" height="245.462" rx="9.76753" fill="#0D0225"/>
<g clip-path="url(#clip3_3129_20333)">
<rect x="343.23" y="99.8379" width="5.0961" height="74.7429" rx="2.54805" fill="#23B6E2" fill-opacity="0.5"/>
<rect x="343.23" y="175.43" width="5.0961" height="77.2909" rx="2.54805" fill="#645D74"/>
<rect x="352.403" y="155.895" width="5.0961" height="51.8104" rx="2.54805" fill="#23B6E2" fill-opacity="0.5"/>
<rect x="352.403" y="208.555" width="5.0961" height="44.1662" rx="2.54805" fill="#645D74"/>
<rect x="361.576" y="217.898" width="5.0961" height="15.2883" rx="2.54805" fill="#23B6E2" fill-opacity="0.5"/>
<rect x="361.576" y="234.035" width="5.0961" height="18.6857" rx="2.54805" fill="#645D74"/>
<rect x="370.749" y="115.977" width="5.0961" height="74.7429" rx="2.54805" fill="#23B6E2" fill-opacity="0.5"/>
<rect x="370.749" y="191.568" width="5.0961" height="61.1532" rx="2.54805" fill="#645D74"/>
<rect x="379.923" y="166.938" width="5.0961" height="49.2623" rx="2.54805" fill="#23B6E2" fill-opacity="0.5"/>
<rect x="379.923" y="217.049" width="5.0961" height="35.6727" rx="2.54805" fill="#645D74"/>
<rect x="389.096" y="123.619" width="5.0961" height="67.0987" rx="2.54805" fill="#23B6E2" fill-opacity="0.5"/>
<rect x="389.096" y="191.568" width="5.0961" height="61.1532" rx="2.54805" fill="#645D74"/>
<rect x="398.269" y="138.908" width="5.0961" height="51.8104" rx="2.54805" fill="#23B6E2" fill-opacity="0.5"/>
<rect x="398.269" y="191.568" width="5.0961" height="61.1532" rx="2.54805" fill="#645D74"/>
<rect x="407.441" y="98.9883" width="5.0961" height="74.7429" rx="2.54805" fill="#23B6E2" fill-opacity="0.5"/>
<rect x="407.441" y="174.58" width="5.0961" height="78.1403" rx="2.54805" fill="#645D74"/>
<rect x="416.614" y="115.977" width="5.0961" height="49.2623" rx="2.54805" fill="#23B6E2" fill-opacity="0.5"/>
<rect x="416.614" y="166.088" width="5.0961" height="86.6338" rx="2.54805" fill="#645D74"/>
<rect x="425.787" y="206.855" width="5.0961" height="9.34286" rx="2.54805" fill="#23B6E2" fill-opacity="0.5"/>
<rect x="425.787" y="217.049" width="5.0961" height="35.6727" rx="2.54805" fill="#645D74"/>
<rect x="434.96" y="166.088" width="5.0961" height="75.5922" rx="2.54805" fill="#23B6E2" fill-opacity="0.5"/>
<rect x="434.96" y="242.529" width="5.0961" height="10.1922" rx="2.54805" fill="#645D74"/>
<rect x="444.134" y="166.938" width="5.0961" height="49.2623" rx="2.54805" fill="#23B6E2" fill-opacity="0.5"/>
<rect x="444.134" y="217.049" width="5.0961" height="35.6727" rx="2.54805" fill="#645D74"/>
<rect x="453.307" y="175.43" width="5.0961" height="49.2623" rx="2.54805" fill="#23B6E2" fill-opacity="0.5"/>
<rect x="453.307" y="225.543" width="5.0961" height="27.1792" rx="2.54805" fill="#645D74"/>
<rect x="462.479" y="98.9883" width="5.0961" height="57.7558" rx="2.54805" fill="#23B6E2" fill-opacity="0.5"/>
<rect x="462.479" y="157.594" width="5.0961" height="95.1273" rx="2.54805" fill="#645D74"/>
<rect x="471.652" y="56.5215" width="5.0961" height="57.7558" rx="2.54805" fill="#23B6E2" fill-opacity="0.5"/>
<rect x="471.652" y="115.127" width="5.0961" height="137.595" rx="2.54805" fill="#645D74"/>
<rect x="480.825" y="90.4961" width="5.0961" height="40.7688" rx="2.54805" fill="#23B6E2" fill-opacity="0.5"/>
<rect x="480.825" y="132.113" width="5.0961" height="120.608" rx="2.54805" fill="#645D74"/>
<rect x="489.998" y="115.977" width="5.0961" height="49.2623" rx="2.54805" fill="#23B6E2" fill-opacity="0.5"/>
<rect x="489.998" y="166.088" width="5.0961" height="86.6338" rx="2.54805" fill="#645D74"/>
<rect x="499.171" y="147.402" width="5.0961" height="17.8364" rx="2.54805" fill="#23B6E2" fill-opacity="0.5"/>
<rect x="499.171" y="166.088" width="5.0961" height="86.6338" rx="2.54805" fill="#645D74"/>
<rect x="508.345" y="183.924" width="5.0961" height="23.7818" rx="2.54805" fill="#23B6E2" fill-opacity="0.5"/>
<rect x="508.345" y="208.555" width="5.0961" height="44.1662" rx="2.54805" fill="#645D74"/>
<rect x="517.518" y="124.469" width="5.0961" height="23.7818" rx="2.54805" fill="#23B6E2" fill-opacity="0.5"/>
<rect x="517.518" y="149.1" width="5.0961" height="103.621" rx="2.54805" fill="#645D74"/>
<rect x="526.69" y="141.457" width="5.0961" height="23.7818" rx="2.54805" fill="#23B6E2" fill-opacity="0.5"/>
<rect x="526.69" y="166.088" width="5.0961" height="86.6338" rx="2.54805" fill="#645D74"/>
<rect x="535.863" y="132.963" width="5.0961" height="91.7299" rx="2.54805" fill="#23B6E2" fill-opacity="0.5"/>
<rect x="535.863" y="225.543" width="5.0961" height="27.1792" rx="2.54805" fill="#645D74"/>
<rect x="545.036" y="181.375" width="5.0961" height="17.8364" rx="2.54805" fill="#23B6E2" fill-opacity="0.5"/>
<rect x="545.036" y="200.062" width="5.0961" height="52.6597" rx="2.54805" fill="#645D74"/>
<rect x="554.209" y="200.91" width="5.0961" height="15.2883" rx="2.54805" fill="#23B6E2" fill-opacity="0.5"/>
<rect x="554.209" y="217.049" width="5.0961" height="35.6727" rx="2.54805" fill="#645D74"/>
<rect x="563.382" y="175.43" width="5.0961" height="23.7818" rx="2.54805" fill="#23B6E2" fill-opacity="0.5"/>
<rect x="563.382" y="200.062" width="5.0961" height="52.6597" rx="2.54805" fill="#645D74"/>
<rect x="572.556" y="175.43" width="5.0961" height="40.7688" rx="2.54805" fill="#23B6E2" fill-opacity="0.5"/>
<rect x="572.556" y="217.049" width="5.0961" height="35.6727" rx="2.54805" fill="#645D74"/>
<rect x="581.729" y="202.609" width="5.0961" height="23.7818" rx="2.54805" fill="#23B6E2" fill-opacity="0.5"/>
<rect x="581.729" y="227.24" width="5.0961" height="25.4805" rx="2.54805" fill="#645D74"/>
<rect x="590.901" y="217.898" width="5.0961" height="6.79481" rx="2.54805" fill="#23B6E2" fill-opacity="0.5"/>
<rect x="590.901" y="225.543" width="5.0961" height="27.1792" rx="2.54805" fill="#645D74"/>
<rect x="600.074" y="198.363" width="5.0961" height="0.849351" rx="0.424675" fill="#23B6E2" fill-opacity="0.5"/>
<rect x="600.074" y="200.062" width="5.0961" height="52.6597" rx="2.54805" fill="#645D74"/>
<rect x="609.247" y="175.43" width="5.0961" height="23.7818" rx="2.54805" fill="#23B6E2" fill-opacity="0.5"/>
<rect x="609.247" y="200.062" width="5.0961" height="52.6597" rx="2.54805" fill="#645D74"/>
</g>
<rect x="331.425" y="20.4247" width="294.725" height="245.462" rx="9.76753" stroke="#30294E" stroke-width="0.849351"/>
<g clip-path="url(#clip4_3129_20333)">
<rect x="331" y="289" width="295.574" height="111" rx="10.1922" fill="#0D0225"/>
<g clip-path="url(#clip5_3129_20333)">
<rect x="343.23" y="368.838" width="5.0961" height="74.7429" rx="2.54805" fill="#36E79B"/>
<rect x="370.749" y="384.977" width="5.0961" height="74.7429" rx="2.54805" fill="#36E79B"/>
<rect x="389.096" y="392.619" width="5.0961" height="67.0987" rx="2.54805" fill="#36E79B"/>
<rect x="407.441" y="367.988" width="5.0961" height="74.7429" rx="2.54805" fill="#36E79B"/>
<rect x="416.614" y="384.977" width="5.0961" height="49.2623" rx="2.54805" fill="#36E79B"/>
<rect x="462.479" y="367.988" width="5.0961" height="57.7558" rx="2.54805" fill="#36E79B"/>
<rect x="471.652" y="325.521" width="5.0961" height="57.7558" rx="2.54805" fill="#36E79B"/>
<rect x="471.652" y="384.127" width="5.0961" height="137.595" rx="2.54805" fill="#9D97AA"/>
<rect x="480.825" y="359.496" width="5.0961" height="40.7688" rx="2.54805" fill="#36E79B"/>
<rect x="489.998" y="384.977" width="5.0961" height="49.2623" rx="2.54805" fill="#36E79B"/>
<rect x="517.518" y="393.469" width="5.0961" height="23.7818" rx="2.54805" fill="#36E79B"/>
</g>
</g>
<rect x="331.425" y="289.425" width="294.725" height="110.151" rx="9.76753" stroke="#30294E" stroke-width="0.849351"/>
<rect y="100" width="633" height="300" fill="url(#paint0_linear_3129_20333)"/>
<rect width="16.875" height="18" transform="translate(218 104.4) rotate(-15.1157)" fill="white" fill-opacity="0.01"/>
<g filter="url(#filter0_d_3129_20333)">
<path fill-rule="evenodd" clip-rule="evenodd" d="M225.129 118.149C225.332 118.252 225.474 118.327 225.911 118.564C226.34 118.796 226.546 118.904 226.732 118.992C226.809 119.028 226.901 119.155 226.979 119.36C227.043 119.528 227.089 119.723 227.118 119.915C227.128 119.982 227.134 120.03 227.136 120.053C227.157 120.314 227.409 120.492 227.662 120.427C227.89 120.368 228.066 120.323 228.532 120.206C228.648 120.177 228.648 120.177 228.765 120.148C230.031 119.829 230.673 119.649 231.12 119.466C231.596 119.271 231.944 118.537 232.181 117.67C232.733 118.232 233.424 118.739 233.968 118.682C234.141 118.663 234.344 118.617 234.575 118.549C234.747 118.499 234.927 118.438 235.108 118.371C235.244 118.321 235.352 118.278 235.416 118.252C235.653 118.154 235.748 117.869 235.618 117.648C235.59 117.6 235.542 117.512 235.487 117.399C235.423 117.268 235.367 117.139 235.325 117.018C235.299 116.942 235.278 116.872 235.266 116.81C235.243 116.702 235.229 116.642 235.195 116.504C235.182 116.452 235.182 116.452 235.171 116.407C235.138 116.259 235.12 116.115 235.101 115.794C235.093 115.655 235.158 115.368 235.282 114.999C235.32 114.89 235.361 114.774 235.407 114.655C235.494 114.427 235.591 114.195 235.69 113.972C235.75 113.838 235.796 113.737 235.823 113.682C236.02 113.134 236.159 112.287 236.166 111.812C236.172 111.355 236.058 110.548 235.91 109.764C235.825 109.32 235.743 108.966 235.594 108.415C235.568 108.319 235.568 108.319 235.547 108.239C235.512 108.108 235.498 108.059 235.481 107.998C235.435 107.831 235.386 107.667 235.256 107.25C234.982 106.376 234.344 105.935 233.6 106.018C232.968 106.088 232.365 106.792 232.365 106.792C232.365 106.792 232.047 106.268 231.889 106.123C231.632 105.89 231.07 105.657 230.696 105.683C230.312 105.711 229.88 105.836 229.502 106.013C229.17 106.17 228.907 106.575 228.797 106.964C228.718 107.243 228.785 106.954 228.574 106.745C228.283 106.458 227.738 106.278 227.273 106.306C226.878 106.33 226.458 106.475 226.099 106.697C225.636 106.983 225.66 107.387 225.61 107.283C225.444 106.934 225.444 106.96 225.332 106.709C224.914 105.778 224.559 105.152 224.138 104.636C224.162 104.666 223.983 104.443 223.918 104.366C223.807 104.234 223.7 104.116 223.588 104.005C223.241 103.664 222.887 103.433 222.499 103.353C221.825 103.213 220.977 103.599 220.688 104.204C220.402 104.805 220.553 105.641 220.931 106.623C221.077 107.004 221.412 107.682 221.683 108.177C221.777 108.349 221.862 108.505 222.019 108.795C222.045 108.845 222.045 108.845 222.072 108.894C222.192 109.113 222.293 109.293 222.409 109.488C222.397 109.468 222.615 109.833 222.663 109.915C222.678 109.942 222.678 109.942 222.694 109.969C222.784 110.124 222.876 110.292 223.024 110.575C223.106 110.73 223.19 110.897 223.276 111.074C223.51 111.558 223.482 111.452 223.36 111.368C223.275 111.31 223.197 111.258 223.121 111.211C222.981 111.124 222.856 111.054 222.74 111.002C221.899 110.625 221.409 110.489 220.815 110.591C219.84 110.757 219.119 111.672 219.228 112.615C219.294 113.193 219.39 113.442 219.78 113.864C219.993 114.091 220.319 114.347 220.915 114.778C220.951 114.804 220.951 114.804 220.988 114.83C221.718 115.358 221.798 115.417 221.979 115.57C222.47 115.986 223.724 117.222 223.933 117.377L225.129 118.149Z" fill="black"/>
</g>
<path fill-rule="evenodd" clip-rule="evenodd" d="M221.482 114.145C221.446 114.119 221.446 114.119 221.41 114.093C220.864 113.698 220.558 113.457 220.399 113.288C220.147 113.015 220.115 112.932 220.067 112.517C220.01 112.029 220.416 111.514 220.958 111.422C221.333 111.358 221.703 111.46 222.396 111.771C222.471 111.805 222.565 111.857 222.674 111.925C222.739 111.966 222.808 112.012 222.884 112.064C222.998 112.141 223.384 112.418 223.327 112.378C223.411 112.437 223.472 112.484 223.543 112.542C223.685 112.66 223.764 112.726 223.87 112.808C223.82 112.77 224.191 113.07 224.263 113.109C224.643 113.316 225.016 112.954 224.884 112.577C224.862 112.514 224.829 112.448 224.764 112.336C224.399 111.48 224.278 111.206 224.036 110.706C223.947 110.52 223.858 110.345 223.772 110.18C223.618 109.889 223.521 109.712 223.426 109.546C223.409 109.517 223.409 109.517 223.392 109.488C223.342 109.403 223.121 109.032 223.135 109.056C223.025 108.871 222.929 108.7 222.814 108.489C222.788 108.441 222.788 108.441 222.762 108.393C222.606 108.104 222.519 107.943 222.423 107.769C222.17 107.307 221.85 106.657 221.72 106.319C221.425 105.555 221.303 104.877 221.451 104.566C221.567 104.323 222.024 104.115 222.329 104.178C222.527 104.219 222.755 104.367 222.997 104.606C223.088 104.696 223.178 104.795 223.273 104.908C223.331 104.977 223.505 105.193 223.486 105.169C223.852 105.618 224.173 106.185 224.563 107.053C224.679 107.311 224.814 107.601 224.982 107.956C225.032 108.061 225.032 108.061 225.082 108.165C225.89 109.853 225.829 109.725 225.872 109.865C226.029 110.377 226.795 110.184 226.689 109.659C226.656 109.492 226.612 109.347 226.48 108.932C226.461 108.874 226.461 108.874 226.443 108.815C226.322 108.433 226.263 108.211 226.252 108.078C226.231 107.836 226.368 107.522 226.543 107.414C226.789 107.262 227.077 107.163 227.325 107.148C227.563 107.133 227.872 107.235 227.982 107.344C228.115 107.476 228.257 107.693 228.396 107.972C228.509 108.198 228.611 108.445 228.708 108.711C228.738 108.794 228.761 108.858 228.797 108.965C228.813 109.01 228.813 109.01 228.826 109.046C228.833 109.065 228.833 109.065 228.845 109.093C228.854 109.113 228.854 109.113 228.884 109.162C228.932 109.309 228.932 109.309 229.548 109.202C229.669 108.937 229.669 108.937 229.654 108.9C229.649 108.764 229.628 108.616 229.581 108.339C229.55 108.16 229.535 108.072 229.521 107.98C229.461 107.6 229.448 107.351 229.482 107.231C229.524 107.082 229.746 106.83 229.862 106.776C230.152 106.64 230.485 106.543 230.757 106.524C230.88 106.515 231.225 106.658 231.321 106.746C231.519 106.927 231.845 107.596 232.11 108.276C232.11 108.325 232.11 108.325 232.369 108.541C232.99 108.295 232.99 108.295 232.941 108.184C232.946 108.138 232.947 108.087 232.946 108.008C232.945 107.822 232.948 107.713 232.963 107.588C232.973 107.501 232.988 107.426 233.008 107.363C233.083 107.122 233.384 106.89 233.694 106.855C234.027 106.818 234.296 107.004 234.451 107.501C234.579 107.909 234.626 108.067 234.669 108.223C234.685 108.28 234.698 108.326 234.733 108.456C234.754 108.537 234.754 108.537 234.78 108.634C234.924 109.165 235.002 109.499 235.083 109.921C235.219 110.645 235.329 111.419 235.323 111.799C235.318 112.185 235.193 112.942 235.045 113.358C235.033 113.379 234.983 113.487 234.92 113.629C234.815 113.865 234.713 114.11 234.62 114.352C234.571 114.482 234.525 114.607 234.484 114.728C234.326 115.194 234.244 115.563 234.26 115.842C234.281 116.205 234.304 116.395 234.35 116.594C234.363 116.651 234.363 116.651 234.377 116.705C234.408 116.834 234.421 116.887 234.441 116.982C234.462 117.082 234.492 117.186 234.529 117.295C234.583 117.45 234.631 117.67 234.631 117.67C234.631 117.67 234.49 117.694 234.337 117.739C234.151 117.794 233.994 117.83 233.881 117.842C233.719 117.859 233.158 117.447 232.832 117.096C232.335 116.559 231.546 116.804 231.369 117.445C231.21 118.026 230.922 118.635 230.801 118.685C230.408 118.846 229.779 119.022 228.56 119.328C228.444 119.358 228.444 119.358 228.327 119.387C227.859 119.505 227.898 119.578 227.885 119.492C227.848 119.245 227.857 119.291 227.768 119.058C227.619 118.668 227.407 118.374 227.091 118.227C226.926 118.15 226.727 118.045 226.324 117.827C225.864 117.578 225.72 117.501 225.545 117.415L224.414 116.683C224.285 116.586 223.059 115.378 222.526 114.926C222.319 114.75 222.244 114.695 221.482 114.145ZM231.811 111.36L232.826 115.117C232.972 115.66 233.787 115.44 233.64 114.897L232.625 111.14C232.479 110.597 231.664 110.817 231.811 111.36ZM229.604 111.955L230.64 115.722C230.79 116.265 231.603 116.041 231.454 115.499L230.418 111.731C230.268 111.189 229.455 111.413 229.604 111.955ZM229.304 116.061L228.276 112.346C228.126 111.804 227.313 112.029 227.463 112.571L228.491 116.286C228.641 116.828 229.454 116.603 229.304 116.061Z" fill="white"/>
<defs>
<filter id="filter0_d_3129_20333" x="217.217" y="102.324" width="20.9492" height="21.1172" filterUnits="userSpaceOnUse" color-interpolation-filters="sRGB">
<feFlood flood-opacity="0" result="BackgroundImageFix"/>
<feColorMatrix in="SourceAlpha" type="matrix" values="0 0 0 0 0 0 0 0 0 0 0 0 0 0 0 0 0 0 127 0" result="hardAlpha"/>
<feOffset dy="1"/>
<feGaussianBlur stdDeviation="1"/>
<feColorMatrix type="matrix" values="0 0 0 0 0 0 0 0 0 0 0 0 0 0 0 0 0 0 0.4 0"/>
<feBlend mode="normal" in2="BackgroundImageFix" result="effect1_dropShadow_3129_20333"/>
<feBlend mode="normal" in="SourceGraphic" in2="effect1_dropShadow_3129_20333" result="shape"/>
</filter>
<linearGradient id="paint0_linear_3129_20333" x1="316.5" y1="100" x2="316.5" y2="400" gradientUnits="userSpaceOnUse">
<stop stop-color="#0D0225" stop-opacity="0"/>
<stop offset="1" stop-color="#0D0225"/>
</linearGradient>
<clipPath id="clip0_3129_20333">
<rect width="275.19" height="229.325" fill="white" transform="translate(23.1924 30.1914)"/>
</clipPath>
<clipPath id="clip1_3129_20333">
<rect x="13" y="289" width="295.574" height="111" rx="10.1922" fill="white"/>
</clipPath>
<clipPath id="clip2_3129_20333">
<rect width="275.19" height="229.325" fill="white" transform="translate(23.1924 299.191)"/>
</clipPath>
<clipPath id="clip3_3129_20333">
<rect width="275.19" height="229.325" fill="white" transform="translate(341.192 30.1914)"/>
</clipPath>
<clipPath id="clip4_3129_20333">
<rect x="331" y="289" width="295.574" height="111" rx="10.1922" fill="white"/>
</clipPath>
<clipPath id="clip5_3129_20333">
<rect width="275.19" height="229.325" fill="white" transform="translate(341.192 299.191)"/>
</clipPath>
</defs>
</svg>
