<svg width="570" height="380" viewBox="0 0 570 380" fill="none" xmlns="http://www.w3.org/2000/svg">
<g clip-path="url(#clip0_3129_20028)">
<rect y="0.191406" width="570" height="379" rx="8.45457" fill="#0D0225"/>
<rect width="570" height="204" transform="translate(0 0.191406)" fill="#0D0225"/>
<rect opacity="0.3" x="81.5" y="8.69141" width="407" height="191" rx="3.5" fill="#30294E" stroke="#30294E"/>
<g clip-path="url(#clip1_3129_20028)">
<rect width="570" height="37" transform="translate(0 204.191)" fill="white"/>
<rect width="570" height="32" transform="translate(0 204.191)" fill="#0D0225"/>
<path d="M20.4998 224.392C20.8864 224.392 21.1998 224.079 21.1998 223.692L21.1998 216.692C21.1998 216.306 20.8864 215.992 20.4998 215.992C20.1132 215.992 19.7998 216.306 19.7998 216.692L19.7998 223.692C19.7998 224.079 20.1132 224.392 20.4998 224.392Z" fill="#9D97AA"/>
<path d="M22.5106 221.11C21.8736 220.664 21.8736 219.721 22.5106 219.275L26.4375 216.526C27.1798 216.006 28.1998 216.537 28.1998 217.443L28.1998 222.941C28.1998 223.847 27.1798 224.378 26.4375 223.859L22.5106 221.11Z" fill="#9D97AA"/>
<path d="M53.684 221.135C54.471 220.712 54.471 219.583 53.684 219.159L48.0548 216.128C47.3071 215.725 46.4004 216.267 46.4004 217.116V223.178C46.4004 224.028 47.3071 224.569 48.0548 224.166L53.684 221.135Z" fill="#9D97AA"/>
<path d="M79.4998 215.992C79.1132 215.992 78.7998 216.306 78.7998 216.692V223.692C78.7998 224.079 79.1132 224.392 79.4998 224.392C79.8864 224.392 80.1998 224.079 80.1998 223.692V216.692C80.1998 216.306 79.8864 215.992 79.4998 215.992Z" fill="#9D97AA"/>
<path d="M77.489 219.275C78.126 219.721 78.126 220.664 77.489 221.11L73.5621 223.859C72.8198 224.378 71.7998 223.847 71.7998 222.941V217.443C71.7998 216.537 72.8198 216.006 73.5621 216.526L77.489 219.275Z" fill="#9D97AA"/>
<g filter="url(#filter0_i_3129_20028)">
<rect x="92" y="210.191" width="39" height="20" rx="10" fill="#30294E"/>
<path d="M101.116 224.191H106.096V223.135H102.268V215.755H101.116V224.191ZM107.853 215.443C107.373 215.443 107.073 215.791 107.073 216.199C107.073 216.595 107.373 216.955 107.853 216.955C108.333 216.955 108.633 216.595 108.633 216.199C108.633 215.791 108.333 215.443 107.853 215.443ZM107.301 224.191H108.405V218.131H107.301V224.191ZM111.966 224.191H113.202L115.518 218.131H114.378L112.602 222.907L110.814 218.131H109.65L111.966 224.191ZM121.165 222.283C120.829 222.967 120.145 223.387 119.293 223.387C118.165 223.387 117.337 222.583 117.205 221.467H122.413V221.083C122.413 219.367 121.129 217.987 119.293 217.987C117.493 217.987 116.113 219.415 116.113 221.155C116.113 222.907 117.445 224.335 119.281 224.335C120.745 224.335 121.849 223.507 122.257 222.283H121.165ZM119.293 218.935C120.241 218.935 121.045 219.511 121.297 220.555H117.265C117.505 219.607 118.273 218.935 119.293 218.935Z" fill="#9D97AA"/>
</g>
<path d="M146.371 218.211C146.371 215.702 144.59 214.896 143.095 214.896C141.6 214.896 139.819 215.702 139.819 218.211V221.019C139.819 223.541 141.6 224.347 143.095 224.347C144.59 224.347 146.371 223.541 146.371 221.019V218.211ZM145.123 218.224V221.019C145.123 222.527 144.2 223.164 143.082 223.164C141.99 223.164 141.067 222.527 141.067 221.019V218.224C141.067 216.716 141.99 216.079 143.082 216.079C144.2 216.079 145.123 216.716 145.123 218.224ZM154.429 218.211C154.429 215.702 152.648 214.896 151.153 214.896C149.658 214.896 147.877 215.702 147.877 218.211V221.019C147.877 223.541 149.658 224.347 151.153 224.347C152.648 224.347 154.429 223.541 154.429 221.019V218.211ZM153.181 218.224V221.019C153.181 222.527 152.258 223.164 151.14 223.164C150.048 223.164 149.125 222.527 149.125 221.019V218.224C149.125 216.716 150.048 216.079 151.14 216.079C152.258 216.079 153.181 216.716 153.181 218.224ZM156.872 219.251C157.405 219.251 157.782 218.848 157.782 218.367C157.782 217.86 157.405 217.47 156.872 217.47C156.352 217.47 155.975 217.86 155.975 218.367C155.975 218.848 156.352 219.251 156.872 219.251ZM156.872 224.347C157.405 224.347 157.782 223.944 157.782 223.463C157.782 222.956 157.405 222.566 156.872 222.566C156.352 222.566 155.975 222.956 155.975 223.463C155.975 223.944 156.352 224.347 156.872 224.347ZM160.635 224.191H161.883V215.052H158.971L158.672 216.196H160.635V224.191ZM164.777 221.591H163.516C163.594 223.008 164.699 224.347 166.753 224.347C168.807 224.347 169.886 222.982 169.886 221.643C169.886 220.824 169.561 219.797 168.261 219.342C169.327 218.874 169.587 217.964 169.587 217.262C169.587 216.105 168.638 214.896 166.74 214.896C164.816 214.896 163.789 216.183 163.737 217.483H164.985C165.024 216.69 165.661 216.04 166.701 216.04C167.728 216.04 168.352 216.677 168.352 217.444C168.352 218.328 167.702 218.926 166.779 218.926H165.778V219.849H166.74C167.845 219.849 168.625 220.447 168.625 221.513C168.625 222.423 167.884 223.19 166.74 223.19C165.583 223.19 164.829 222.449 164.777 221.591ZM178.054 213.661H176.858L173.777 226.011H174.973L178.054 213.661ZM188.673 218.211C188.673 215.702 186.892 214.896 185.397 214.896C183.902 214.896 182.121 215.702 182.121 218.211V221.019C182.121 223.541 183.902 224.347 185.397 224.347C186.892 224.347 188.673 223.541 188.673 221.019V218.211ZM187.425 218.224V221.019C187.425 222.527 186.502 223.164 185.384 223.164C184.292 223.164 183.369 222.527 183.369 221.019V218.224C183.369 216.716 184.292 216.079 185.384 216.079C186.502 216.079 187.425 216.716 187.425 218.224ZM191.479 224.191H192.727V215.052H189.815L189.516 216.196H191.479V224.191ZM195.556 219.251C196.089 219.251 196.466 218.848 196.466 218.367C196.466 217.86 196.089 217.47 195.556 217.47C195.036 217.47 194.659 217.86 194.659 218.367C194.659 218.848 195.036 219.251 195.556 219.251ZM195.556 224.347C196.089 224.347 196.466 223.944 196.466 223.463C196.466 222.956 196.089 222.566 195.556 222.566C195.036 222.566 194.659 222.956 194.659 223.463C194.659 223.944 195.036 224.347 195.556 224.347ZM199.319 224.191H200.567V215.052H197.655L197.356 216.196H199.319V224.191ZM207.984 215.052H203.148L202.693 220.057L203.707 220.174C203.993 219.771 204.487 219.42 205.332 219.42C206.541 219.42 207.282 220.226 207.282 221.305C207.282 222.332 206.437 223.203 205.306 223.203C204.227 223.203 203.434 222.436 203.356 221.474H202.082C202.186 223.151 203.59 224.347 205.358 224.347C207.152 224.347 208.517 223.034 208.517 221.305C208.517 219.55 207.386 218.328 205.488 218.328C204.942 218.328 204.396 218.471 203.928 218.731L204.175 216.196H207.984V215.052Z" fill="#645D74"/>
<path d="M430.956 224.191H432.108V215.755H429.42L429.144 216.811H430.956V224.191ZM433.363 224.191H434.551L436.219 221.899L437.887 224.191H439.159L436.891 221.107L439.051 218.131H437.875L436.291 220.339L434.707 218.131H433.459L435.607 221.119L433.363 224.191Z" fill="#9D97AA"/>
<g filter="url(#filter1_i_3129_20028)">
<rect x="452" y="208.191" width="24" height="24" rx="6" fill="#744ED4"/>
<path d="M459.2 220.792C459.2 220.461 459.469 220.192 459.8 220.192H461C461.332 220.192 461.6 220.461 461.6 220.792V223.792C461.6 224.124 461.332 224.392 461 224.392H459.8C459.469 224.392 459.2 224.124 459.2 223.792V220.792Z" fill="white"/>
<path d="M462.8 218.392C462.8 218.061 463.069 217.792 463.4 217.792H464.6C464.932 217.792 465.2 218.061 465.2 218.392V223.792C465.2 224.124 464.932 224.392 464.6 224.392H463.4C463.069 224.392 462.8 224.124 462.8 223.792V218.392Z" fill="white"/>
<path d="M466.4 216.592C466.4 216.261 466.669 215.992 467 215.992H468.2C468.532 215.992 468.8 216.261 468.8 216.592V223.792C468.8 224.124 468.532 224.392 468.2 224.392H467C466.669 224.392 466.4 224.124 466.4 223.792V216.592Z" fill="white"/>
</g>
<g filter="url(#filter2_i_3129_20028)">
<rect x="480" y="208.191" width="24" height="24" rx="6" fill="#30294E"/>
<path fill-rule="evenodd" clip-rule="evenodd" d="M487.2 217.192C487.2 216.529 487.737 215.992 488.4 215.992H495.6C496.263 215.992 496.8 216.529 496.8 217.192V223.192C496.8 223.855 496.263 224.392 495.6 224.392H488.4C487.737 224.392 487.2 223.855 487.2 223.192V217.192ZM489.176 217.968C489.41 217.734 489.79 217.734 490.024 217.968L491.824 219.768C492.059 220.002 492.059 220.382 491.824 220.616L490.024 222.416C489.79 222.651 489.41 222.651 489.176 222.416C488.942 222.182 488.942 221.802 489.176 221.568L490.552 220.192L489.176 218.816C488.942 218.582 488.942 218.202 489.176 217.968ZM492.6 221.392C492.269 221.392 492 221.661 492 221.992C492 222.324 492.269 222.592 492.6 222.592H494.4C494.732 222.592 495 222.324 495 221.992C495 221.661 494.732 221.392 494.4 221.392H492.6Z" fill="#9D97AA"/>
</g>
<path fill-rule="evenodd" clip-rule="evenodd" d="M520.894 216.093C520.666 215.156 519.334 215.156 519.107 216.093C518.96 216.698 518.266 216.985 517.735 216.661C516.912 216.16 515.969 217.102 516.471 217.925C516.795 218.457 516.508 219.15 515.903 219.297C514.966 219.525 514.966 220.857 515.903 221.084C516.508 221.231 516.795 221.924 516.471 222.456C515.969 223.279 516.912 224.221 517.735 223.72C518.266 223.396 518.96 223.683 519.107 224.288C519.334 225.225 520.666 225.225 520.894 224.288C521.041 223.683 521.734 223.396 522.266 223.72C523.089 224.221 524.031 223.279 523.529 222.456C523.205 221.924 523.493 221.231 524.098 221.084C525.034 220.857 525.034 219.525 524.098 219.297C523.493 219.15 523.205 218.457 523.529 217.925C524.031 217.102 523.089 216.16 522.266 216.661C521.734 216.985 521.041 216.698 520.894 216.093ZM520 221.991C520.994 221.991 521.8 221.185 521.8 220.191C521.8 219.197 520.994 218.391 520 218.391C519.006 218.391 518.2 219.197 518.2 220.191C518.2 221.185 519.006 221.991 520 221.991Z" fill="#9D97AA"/>
<path fill-rule="evenodd" clip-rule="evenodd" d="M541.8 216.592C541.8 216.261 542.068 215.992 542.4 215.992H544.8C545.131 215.992 545.4 216.261 545.4 216.592C545.4 216.924 545.131 217.192 544.8 217.192H543.848L545.224 218.568C545.458 218.802 545.458 219.182 545.224 219.416C544.99 219.651 544.61 219.651 544.376 219.416L543 218.041V218.992C543 219.324 542.731 219.592 542.4 219.592C542.068 219.592 541.8 219.324 541.8 218.992V216.592ZM547.2 217.192C546.868 217.192 546.6 216.924 546.6 216.592C546.6 216.261 546.868 215.992 547.2 215.992H549.6C549.931 215.992 550.2 216.261 550.2 216.592V218.992C550.2 219.324 549.931 219.592 549.6 219.592C549.268 219.592 549 219.324 549 218.992V218.041L547.624 219.416C547.39 219.651 547.01 219.651 546.776 219.416C546.541 219.182 546.541 218.802 546.776 218.568L548.151 217.192H547.2ZM541.8 221.392C541.8 221.061 542.068 220.792 542.4 220.792C542.731 220.792 543 221.061 543 221.392V222.344L544.376 220.968C544.61 220.734 544.99 220.734 545.224 220.968C545.458 221.202 545.458 221.582 545.224 221.816L543.848 223.192H544.8C545.131 223.192 545.4 223.461 545.4 223.792C545.4 224.124 545.131 224.392 544.8 224.392H542.4C542.068 224.392 541.8 224.124 541.8 223.792V221.392ZM549.6 220.792C549.931 220.792 550.2 221.061 550.2 221.392V223.792C550.2 224.124 549.931 224.392 549.6 224.392H547.2C546.868 224.392 546.6 224.124 546.6 223.792C546.6 223.461 546.868 223.192 547.2 223.192H548.151L546.776 221.816C546.541 221.582 546.541 221.202 546.776 220.968C547.01 220.734 547.39 220.734 547.624 220.968L549 222.344V221.392C549 221.061 549.268 220.792 549.6 220.792Z" fill="#9D97AA"/>
<rect y="236.191" width="570" height="1" fill="#30294E"/>
<rect width="114" height="3" transform="translate(0 237.191)" fill="#9D97AA"/>
<rect width="23" height="3" transform="translate(114 237.191)" fill="#645D74"/>
<rect width="64" height="3" transform="translate(137 237.191)" fill="#9D97AA"/>
<rect width="175" height="3" transform="translate(201 237.191)" fill="#30294E"/>
<rect width="31" height="3" transform="translate(376 237.191)" fill="#0D0225"/>
<rect width="175" height="3" transform="translate(407 237.191)" fill="#30294E"/>
<rect y="240.191" width="570" height="1" fill="#30294E"/>
</g>
<g clip-path="url(#clip2_3129_20028)">
<rect width="570" height="20" transform="translate(0 241.191)" fill="#0D0225"/>
<path d="M98.4444 246.205C40.2059 247.732 35.9349 256.347 5 260.191H614C607.591 260.191 599.447 250.363 590.195 250.73C547.117 252.436 480.009 257.273 452.083 257.394C393.782 257.646 388.875 241.556 343.333 250.141C286.944 260.77 273.442 246.858 203.972 246.205C175.323 245.936 161.957 257.598 129.861 257.485C104.042 257.395 116.323 245.736 98.4444 246.205Z" fill="#645D74"/>
<rect x="2" y="242.191" width="796" height="18" rx="2" fill="#2E264D" fill-opacity="0.84"/>
<rect x="4" y="248.191" width="2" height="6" rx="1" fill="white"/>
</g>
<rect y="261.191" width="570" height="1" fill="#30294E"/>
<path d="M6.67 268.591C6.67 266.661 5.3 266.041 4.15 266.041C3 266.041 1.63 266.661 1.63 268.591V270.751C1.63 272.691 3 273.311 4.15 273.311C5.3 273.311 6.67 272.691 6.67 270.751V268.591ZM5.71 268.601V270.751C5.71 271.911 5 272.401 4.14 272.401C3.3 272.401 2.59 271.911 2.59 270.751V268.601C2.59 267.441 3.3 266.951 4.14 266.951C5 266.951 5.71 267.441 5.71 268.601ZM12.8688 268.591C12.8688 266.661 11.4988 266.041 10.3488 266.041C9.19883 266.041 7.82883 266.661 7.82883 268.591V270.751C7.82883 272.691 9.19883 273.311 10.3488 273.311C11.4988 273.311 12.8688 272.691 12.8688 270.751V268.591ZM11.9088 268.601V270.751C11.9088 271.911 11.1988 272.401 10.3388 272.401C9.49883 272.401 8.78883 271.911 8.78883 270.751V268.601C8.78883 267.441 9.49883 266.951 10.3388 266.951C11.1988 266.951 11.9088 267.441 11.9088 268.601ZM17.8377 269.601C17.7777 268.521 16.9777 268.021 15.8777 268.021C14.8277 268.021 13.9577 268.541 13.9577 269.481C13.9577 270.411 14.6377 270.711 15.4277 270.891L16.1677 271.061C16.6477 271.171 17.0077 271.331 17.0077 271.791C17.0077 272.321 16.5377 272.571 15.9177 272.571C15.2577 272.571 14.7477 272.291 14.7277 271.571H13.7677C13.8177 272.791 14.7177 273.311 15.9477 273.311C17.0677 273.311 17.9377 272.761 17.9377 271.701C17.9377 270.781 17.2777 270.461 16.4277 270.261L15.8177 270.121C15.2577 269.991 14.8777 269.871 14.8777 269.411C14.8777 268.991 15.3277 268.761 15.8677 268.761C16.4477 268.761 16.8877 268.981 16.8977 269.601H17.8377Z" fill="#645D74"/>
<path d="M71.67 268.591C71.67 266.661 70.3 266.041 69.15 266.041C68 266.041 66.63 266.661 66.63 268.591V270.751C66.63 272.691 68 273.311 69.15 273.311C70.3 273.311 71.67 272.691 71.67 270.751V268.591ZM70.71 268.601V270.751C70.71 271.911 70 272.401 69.14 272.401C68.3 272.401 67.59 271.911 67.59 270.751V268.601C67.59 267.441 68.3 266.951 69.14 266.951C70 266.951 70.71 267.441 70.71 268.601ZM77.0788 266.161H73.3588L73.0088 270.011L73.7888 270.101C74.0088 269.791 74.3888 269.521 75.0388 269.521C75.9688 269.521 76.5388 270.141 76.5388 270.971C76.5388 271.761 75.8888 272.431 75.0188 272.431C74.1888 272.431 73.5788 271.841 73.5188 271.101H72.5388C72.6188 272.391 73.6988 273.311 75.0588 273.311C76.4388 273.311 77.4888 272.301 77.4888 270.971C77.4888 269.621 76.6188 268.681 75.1588 268.681C74.7388 268.681 74.3188 268.791 73.9588 268.991L74.1488 267.041H77.0788V266.161ZM82.2517 269.601C82.1917 268.521 81.3917 268.021 80.2917 268.021C79.2417 268.021 78.3717 268.541 78.3717 269.481C78.3717 270.411 79.0517 270.711 79.8417 270.891L80.5817 271.061C81.0617 271.171 81.4217 271.331 81.4217 271.791C81.4217 272.321 80.9517 272.571 80.3317 272.571C79.6717 272.571 79.1617 272.291 79.1417 271.571H78.1817C78.2317 272.791 79.1317 273.311 80.3617 273.311C81.4817 273.311 82.3517 272.761 82.3517 271.701C82.3517 270.781 81.6917 270.461 80.8417 270.261L80.2317 270.121C79.6717 269.991 79.2917 269.871 79.2917 269.411C79.2917 268.991 79.7417 268.761 80.2817 268.761C80.8617 268.761 81.3017 268.981 81.3117 269.601H82.2517Z" fill="#645D74"/>
<path d="M132.63 273.191H133.59V266.161H131.35L131.12 267.041H132.63V273.191ZM140.086 268.591C140.086 266.661 138.716 266.041 137.566 266.041C136.416 266.041 135.046 266.661 135.046 268.591V270.751C135.046 272.691 136.416 273.311 137.566 273.311C138.716 273.311 140.086 272.691 140.086 270.751V268.591ZM139.126 268.601V270.751C139.126 271.911 138.416 272.401 137.556 272.401C136.716 272.401 136.006 271.911 136.006 270.751V268.601C136.006 267.441 136.716 266.951 137.556 266.951C138.416 266.951 139.126 267.441 139.126 268.601ZM145.054 269.601C144.994 268.521 144.194 268.021 143.094 268.021C142.044 268.021 141.174 268.541 141.174 269.481C141.174 270.411 141.854 270.711 142.644 270.891L143.384 271.061C143.864 271.171 144.224 271.331 144.224 271.791C144.224 272.321 143.754 272.571 143.134 272.571C142.474 272.571 141.964 272.291 141.944 271.571H140.984C141.034 272.791 141.934 273.311 143.164 273.311C144.284 273.311 145.154 272.761 145.154 271.701C145.154 270.781 144.494 270.461 143.644 270.261L143.034 270.121C142.474 269.991 142.094 269.871 142.094 269.411C142.094 268.991 142.544 268.761 143.084 268.761C143.664 268.761 144.104 268.981 144.114 269.601H145.054Z" fill="#645D74"/>
<path d="M197.63 273.191H198.59V266.161H196.35L196.12 267.041H197.63V273.191ZM204.296 266.161H200.576L200.226 270.011L201.006 270.101C201.226 269.791 201.606 269.521 202.256 269.521C203.186 269.521 203.756 270.141 203.756 270.971C203.756 271.761 203.106 272.431 202.236 272.431C201.406 272.431 200.796 271.841 200.736 271.101H199.756C199.836 272.391 200.916 273.311 202.276 273.311C203.656 273.311 204.706 272.301 204.706 270.971C204.706 269.621 203.836 268.681 202.376 268.681C201.956 268.681 201.536 268.791 201.176 268.991L201.366 267.041H204.296V266.161ZM209.469 269.601C209.409 268.521 208.609 268.021 207.509 268.021C206.459 268.021 205.589 268.541 205.589 269.481C205.589 270.411 206.269 270.711 207.059 270.891L207.799 271.061C208.279 271.171 208.639 271.331 208.639 271.791C208.639 272.321 208.169 272.571 207.549 272.571C206.889 272.571 206.379 272.291 206.359 271.571H205.399C205.449 272.791 206.349 273.311 207.579 273.311C208.699 273.311 209.569 272.761 209.569 271.701C209.569 270.781 208.909 270.461 208.059 270.261L207.449 270.121C206.889 269.991 206.509 269.871 206.509 269.411C206.509 268.991 206.959 268.761 207.499 268.761C208.079 268.761 208.519 268.981 208.529 269.601H209.469Z" fill="#645D74"/>
<path d="M261.52 273.191H266.48V272.311H262.96L264.97 270.411C265.74 269.691 266.29 269.061 266.29 268.061C266.29 266.831 265.33 266.041 264 266.041C262.37 266.041 261.51 267.171 261.45 268.411H262.43C262.48 267.691 262.93 266.951 263.95 266.951C264.77 266.951 265.28 267.451 265.28 268.131C265.28 268.751 264.92 269.201 264.4 269.701L261.52 272.451V273.191ZM272.508 268.591C272.508 266.661 271.138 266.041 269.988 266.041C268.838 266.041 267.468 266.661 267.468 268.591V270.751C267.468 272.691 268.838 273.311 269.988 273.311C271.138 273.311 272.508 272.691 272.508 270.751V268.591ZM271.548 268.601V270.751C271.548 271.911 270.838 272.401 269.978 272.401C269.138 272.401 268.428 271.911 268.428 270.751V268.601C268.428 267.441 269.138 266.951 269.978 266.951C270.838 266.951 271.548 267.441 271.548 268.601ZM277.476 269.601C277.416 268.521 276.616 268.021 275.516 268.021C274.466 268.021 273.596 268.541 273.596 269.481C273.596 270.411 274.276 270.711 275.066 270.891L275.806 271.061C276.286 271.171 276.646 271.331 276.646 271.791C276.646 272.321 276.176 272.571 275.556 272.571C274.896 272.571 274.386 272.291 274.366 271.571H273.406C273.456 272.791 274.356 273.311 275.586 273.311C276.706 273.311 277.576 272.761 277.576 271.701C277.576 270.781 276.916 270.461 276.066 270.261L275.456 270.121C274.896 269.991 274.516 269.871 274.516 269.411C274.516 268.991 274.966 268.761 275.506 268.761C276.086 268.761 276.526 268.981 276.536 269.601H277.476Z" fill="#645D74"/>
<path d="M326.52 273.191H331.48V272.311H327.96L329.97 270.411C330.74 269.691 331.29 269.061 331.29 268.061C331.29 266.831 330.33 266.041 329 266.041C327.37 266.041 326.51 267.171 326.45 268.411H327.43C327.48 267.691 327.93 266.951 328.95 266.951C329.77 266.951 330.28 267.451 330.28 268.131C330.28 268.751 329.92 269.201 329.4 269.701L326.52 272.451V273.191ZM336.718 266.161H332.998L332.648 270.011L333.428 270.101C333.648 269.791 334.028 269.521 334.678 269.521C335.608 269.521 336.178 270.141 336.178 270.971C336.178 271.761 335.528 272.431 334.658 272.431C333.828 272.431 333.218 271.841 333.158 271.101H332.178C332.258 272.391 333.338 273.311 334.698 273.311C336.078 273.311 337.128 272.301 337.128 270.971C337.128 269.621 336.258 268.681 334.798 268.681C334.378 268.681 333.958 268.791 333.598 268.991L333.788 267.041H336.718V266.161ZM341.89 269.601C341.83 268.521 341.03 268.021 339.93 268.021C338.88 268.021 338.01 268.541 338.01 269.481C338.01 270.411 338.69 270.711 339.48 270.891L340.22 271.061C340.7 271.171 341.06 271.331 341.06 271.791C341.06 272.321 340.59 272.571 339.97 272.571C339.31 272.571 338.8 272.291 338.78 271.571H337.82C337.87 272.791 338.77 273.311 340 273.311C341.12 273.311 341.99 272.761 341.99 271.701C341.99 270.781 341.33 270.461 340.48 270.261L339.87 270.121C339.31 269.991 338.93 269.871 338.93 269.411C338.93 268.991 339.38 268.761 339.92 268.761C340.5 268.761 340.94 268.981 340.95 269.601H341.89Z" fill="#645D74"/>
<path d="M392.4 271.191H391.43C391.49 272.281 392.34 273.311 393.92 273.311C395.5 273.311 396.33 272.261 396.33 271.231C396.33 270.601 396.08 269.811 395.08 269.461C395.9 269.101 396.1 268.401 396.1 267.861C396.1 266.971 395.37 266.041 393.91 266.041C392.43 266.041 391.64 267.031 391.6 268.031H392.56C392.59 267.421 393.08 266.921 393.88 266.921C394.67 266.921 395.15 267.411 395.15 268.001C395.15 268.681 394.65 269.141 393.94 269.141H393.17V269.851H393.91C394.76 269.851 395.36 270.311 395.36 271.131C395.36 271.831 394.79 272.421 393.91 272.421C393.02 272.421 392.44 271.851 392.4 271.191ZM402.41 268.591C402.41 266.661 401.04 266.041 399.89 266.041C398.74 266.041 397.37 266.661 397.37 268.591V270.751C397.37 272.691 398.74 273.311 399.89 273.311C401.04 273.311 402.41 272.691 402.41 270.751V268.591ZM401.45 268.601V270.751C401.45 271.911 400.74 272.401 399.88 272.401C399.04 272.401 398.33 271.911 398.33 270.751V268.601C398.33 267.441 399.04 266.951 399.88 266.951C400.74 266.951 401.45 267.441 401.45 268.601ZM407.379 269.601C407.319 268.521 406.519 268.021 405.419 268.021C404.369 268.021 403.499 268.541 403.499 269.481C403.499 270.411 404.179 270.711 404.969 270.891L405.709 271.061C406.189 271.171 406.549 271.331 406.549 271.791C406.549 272.321 406.079 272.571 405.459 272.571C404.799 272.571 404.289 272.291 404.269 271.571H403.309C403.359 272.791 404.259 273.311 405.489 273.311C406.609 273.311 407.479 272.761 407.479 271.701C407.479 270.781 406.819 270.461 405.969 270.261L405.359 270.121C404.799 269.991 404.419 269.871 404.419 269.411C404.419 268.991 404.869 268.761 405.409 268.761C405.989 268.761 406.429 268.981 406.439 269.601H407.379Z" fill="#645D74"/>
<path d="M457.4 271.191H456.43C456.49 272.281 457.34 273.311 458.92 273.311C460.5 273.311 461.33 272.261 461.33 271.231C461.33 270.601 461.08 269.811 460.08 269.461C460.9 269.101 461.1 268.401 461.1 267.861C461.1 266.971 460.37 266.041 458.91 266.041C457.43 266.041 456.64 267.031 456.6 268.031H457.56C457.59 267.421 458.08 266.921 458.88 266.921C459.67 266.921 460.15 267.411 460.15 268.001C460.15 268.681 459.65 269.141 458.94 269.141H458.17V269.851H458.91C459.76 269.851 460.36 270.311 460.36 271.131C460.36 271.831 459.79 272.421 458.91 272.421C458.02 272.421 457.44 271.851 457.4 271.191ZM466.62 266.161H462.9L462.55 270.011L463.33 270.101C463.55 269.791 463.93 269.521 464.58 269.521C465.51 269.521 466.08 270.141 466.08 270.971C466.08 271.761 465.43 272.431 464.56 272.431C463.73 272.431 463.12 271.841 463.06 271.101H462.08C462.16 272.391 463.24 273.311 464.6 273.311C465.98 273.311 467.03 272.301 467.03 270.971C467.03 269.621 466.16 268.681 464.7 268.681C464.28 268.681 463.86 268.791 463.5 268.991L463.69 267.041H466.62V266.161ZM471.793 269.601C471.733 268.521 470.933 268.021 469.833 268.021C468.783 268.021 467.913 268.541 467.913 269.481C467.913 270.411 468.593 270.711 469.383 270.891L470.123 271.061C470.603 271.171 470.963 271.331 470.963 271.791C470.963 272.321 470.493 272.571 469.873 272.571C469.213 272.571 468.703 272.291 468.683 271.571H467.723C467.773 272.791 468.673 273.311 469.903 273.311C471.023 273.311 471.893 272.761 471.893 271.701C471.893 270.781 471.233 270.461 470.383 270.261L469.773 270.121C469.213 269.991 468.833 269.871 468.833 269.411C468.833 268.991 469.283 268.761 469.823 268.761C470.403 268.761 470.843 268.981 470.853 269.601H471.793Z" fill="#645D74"/>
<path d="M524.11 266.161L521.24 270.941V271.671H524.88V273.191H525.81V271.671H526.56V270.811H525.81V269.011L524.88 269.231V270.811H522.39L525.22 266.161H524.11ZM532.41 268.591C532.41 266.661 531.04 266.041 529.89 266.041C528.74 266.041 527.37 266.661 527.37 268.591V270.751C527.37 272.691 528.74 273.311 529.89 273.311C531.04 273.311 532.41 272.691 532.41 270.751V268.591ZM531.45 268.601V270.751C531.45 271.911 530.74 272.401 529.88 272.401C529.04 272.401 528.33 271.911 528.33 270.751V268.601C528.33 267.441 529.04 266.951 529.88 266.951C530.74 266.951 531.45 267.441 531.45 268.601ZM537.379 269.601C537.319 268.521 536.519 268.021 535.419 268.021C534.369 268.021 533.499 268.541 533.499 269.481C533.499 270.411 534.179 270.711 534.969 270.891L535.709 271.061C536.189 271.171 536.549 271.331 536.549 271.791C536.549 272.321 536.079 272.571 535.459 272.571C534.799 272.571 534.289 272.291 534.269 271.571H533.309C533.359 272.791 534.259 273.311 535.489 273.311C536.609 273.311 537.479 272.761 537.479 271.701C537.479 270.781 536.819 270.461 535.969 270.261L535.359 270.121C534.799 269.991 534.419 269.871 534.419 269.411C534.419 268.991 534.869 268.761 535.409 268.761C535.989 268.761 536.429 268.981 536.439 269.601H537.379Z" fill="#645D74"/>
<rect width="1" height="8" transform="translate(13 278.191)" fill="#30294E"/>
<rect width="1" height="4" transform="translate(26 282.191)" fill="#30294E"/>
<rect width="1" height="4" transform="translate(39 282.191)" fill="#30294E"/>
<rect width="1" height="4" transform="translate(52 282.191)" fill="#30294E"/>
<rect width="1" height="4" transform="translate(65 282.191)" fill="#30294E"/>
<rect width="1" height="8" transform="translate(78 278.191)" fill="#30294E"/>
<rect width="1" height="4" transform="translate(91 282.191)" fill="#30294E"/>
<rect width="1" height="4" transform="translate(104 282.191)" fill="#30294E"/>
<rect width="1" height="4" transform="translate(117 282.191)" fill="#30294E"/>
<rect width="1" height="4" transform="translate(130 282.191)" fill="#30294E"/>
<rect width="1" height="8" transform="translate(143 278.191)" fill="#30294E"/>
<rect width="1" height="4" transform="translate(156 282.191)" fill="#30294E"/>
<rect width="1" height="4" transform="translate(169 282.191)" fill="#30294E"/>
<rect width="1" height="4" transform="translate(182 282.191)" fill="#30294E"/>
<rect width="1" height="4" transform="translate(195 282.191)" fill="#30294E"/>
<rect width="1" height="8" transform="translate(208 278.191)" fill="#30294E"/>
<rect width="1" height="4" transform="translate(221 282.191)" fill="#30294E"/>
<rect width="1" height="4" transform="translate(234 282.191)" fill="#30294E"/>
<rect width="1" height="4" transform="translate(247 282.191)" fill="#30294E"/>
<rect width="1" height="4" transform="translate(260 282.191)" fill="#30294E"/>
<rect width="1" height="8" transform="translate(273 278.191)" fill="#30294E"/>
<rect width="1" height="4" transform="translate(286 282.191)" fill="#30294E"/>
<rect width="1" height="4" transform="translate(299 282.191)" fill="#30294E"/>
<rect width="1" height="4" transform="translate(312 282.191)" fill="#30294E"/>
<rect width="1" height="4" transform="translate(325 282.191)" fill="#30294E"/>
<rect width="1" height="8" transform="translate(338 278.191)" fill="#30294E"/>
<rect width="1" height="4" transform="translate(351 282.191)" fill="#30294E"/>
<rect width="1" height="4" transform="translate(364 282.191)" fill="#30294E"/>
<rect width="1" height="4" transform="translate(377 282.191)" fill="#30294E"/>
<rect width="1" height="4" transform="translate(390 282.191)" fill="#30294E"/>
<rect width="1" height="8" transform="translate(403 278.191)" fill="#30294E"/>
<rect width="1" height="4" transform="translate(416 282.191)" fill="#30294E"/>
<rect width="1" height="4" transform="translate(429 282.191)" fill="#30294E"/>
<rect width="1" height="4" transform="translate(442 282.191)" fill="#30294E"/>
<rect width="1" height="4" transform="translate(455 282.191)" fill="#30294E"/>
<rect width="1" height="8" transform="translate(468 278.191)" fill="#30294E"/>
<rect width="1" height="4" transform="translate(481 282.191)" fill="#30294E"/>
<rect width="1" height="4" transform="translate(494 282.191)" fill="#30294E"/>
<rect width="1" height="4" transform="translate(507 282.191)" fill="#30294E"/>
<rect width="1" height="4" transform="translate(520 282.191)" fill="#30294E"/>
<rect width="1" height="8" transform="translate(533 278.191)" fill="#30294E"/>
<rect width="1" height="4" transform="translate(546 282.191)" fill="#30294E"/>
<rect width="1" height="4" transform="translate(559 282.191)" fill="#30294E"/>
<rect y="286.191" width="570" height="1" fill="#30294E"/>
<path d="M14 330.191C14 329.087 14.8954 328.191 16 328.191H24C25.1046 328.191 26 329.087 26 330.191V363.191C26 364.296 25.1046 365.191 24 365.191H16C14.8954 365.191 14 364.296 14 363.191V330.191Z" fill="#164A70"/>
<path d="M14 369.191C14 368.087 14.8954 367.191 16 367.191H24C25.1046 367.191 26 368.087 26 369.191C26 370.296 25.1046 371.191 24 371.191H16C14.8954 371.191 14 370.296 14 369.191Z" fill="#2D9CDB"/>
<path d="M14 375.191C14 374.087 14.8954 373.191 16 373.191H24C25.1046 373.191 26 374.087 26 375.191C26 376.296 25.1046 377.191 24 377.191H16C14.8954 377.191 14 376.296 14 375.191Z" fill="#423955"/>
<path d="M30 350.191C30 349.087 30.8954 348.191 32 348.191H40C41.1046 348.191 42 349.087 42 350.191V363.191C42 364.296 41.1046 365.191 40 365.191H32C30.8954 365.191 30 364.296 30 363.191V350.191Z" fill="#164A70"/>
<path d="M30 369.191C30 368.087 30.8954 367.191 32 367.191H40C41.1046 367.191 42 368.087 42 369.191C42 370.296 41.1046 371.191 40 371.191H32C30.8954 371.191 30 370.296 30 369.191Z" fill="#2D9CDB"/>
<path d="M30 375.191C30 374.087 30.8954 373.191 32 373.191H40C41.1046 373.191 42 374.087 42 375.191C42 376.296 41.1046 377.191 40 377.191H32C30.8954 377.191 30 376.296 30 375.191Z" fill="#423955"/>
<path d="M46 330.191C46 329.087 46.8954 328.191 48 328.191H56C57.1046 328.191 58 329.087 58 330.191V363.191C58 364.296 57.1046 365.191 56 365.191H48C46.8954 365.191 46 364.296 46 363.191V330.191Z" fill="#164A70"/>
<path d="M46 369.191C46 368.087 46.8954 367.191 48 367.191H56C57.1046 367.191 58 368.087 58 369.191C58 370.296 57.1046 371.191 56 371.191H48C46.8954 371.191 46 370.296 46 369.191Z" fill="#2D9CDB"/>
<path d="M46 375.191C46 374.087 46.8954 373.191 48 373.191H56C57.1046 373.191 58 374.087 58 375.191C58 376.296 57.1046 377.191 56 377.191H48C46.8954 377.191 46 376.296 46 375.191Z" fill="#423955"/>
<path d="M62 340.191C62 339.087 62.8954 338.191 64 338.191H72C73.1046 338.191 74 339.087 74 340.191V363.191C74 364.296 73.1046 365.191 72 365.191H64C62.8954 365.191 62 364.296 62 363.191V340.191Z" fill="#164A70"/>
<path d="M62 369.191C62 368.087 62.8954 367.191 64 367.191H72C73.1046 367.191 74 368.087 74 369.191C74 370.296 73.1046 371.191 72 371.191H64C62.8954 371.191 62 370.296 62 369.191Z" fill="#2D9CDB"/>
<path d="M62 375.191C62 374.087 62.8954 373.191 64 373.191H72C73.1046 373.191 74 374.087 74 375.191C74 376.296 73.1046 377.191 72 377.191H64C62.8954 377.191 62 376.296 62 375.191Z" fill="#423955"/>
<path d="M94 350.191C94 349.087 94.8954 348.191 96 348.191H104C105.105 348.191 106 349.087 106 350.191V363.191C106 364.296 105.105 365.191 104 365.191H96C94.8954 365.191 94 364.296 94 363.191V350.191Z" fill="#164A70"/>
<path d="M94 369.191C94 368.087 94.8954 367.191 96 367.191H104C105.105 367.191 106 368.087 106 369.191C106 370.296 105.105 371.191 104 371.191H96C94.8954 371.191 94 370.296 94 369.191Z" fill="#2D9CDB"/>
<path d="M94 375.191C94 374.087 94.8954 373.191 96 373.191H104C105.105 373.191 106 374.087 106 375.191C106 376.296 105.105 377.191 104 377.191H96C94.8954 377.191 94 376.296 94 375.191Z" fill="#423955"/>
<rect x="108" y="264.191" width="64" height="113" rx="2" fill="#30294E"/>
<path d="M174 360.191C174 359.087 174.895 358.191 176 358.191H184C185.105 358.191 186 359.087 186 360.191V363.191C186 364.296 185.105 365.191 184 365.191H176C174.895 365.191 174 364.296 174 363.191V360.191Z" fill="#164A70"/>
<path d="M174 369.191C174 368.087 174.895 367.191 176 367.191H184C185.105 367.191 186 368.087 186 369.191C186 370.296 185.105 371.191 184 371.191H176C174.895 371.191 174 370.296 174 369.191Z" fill="#2D9CDB"/>
<path d="M174 375.191C174 374.087 174.895 373.191 176 373.191H184C185.105 373.191 186 374.087 186 375.191C186 376.296 185.105 377.191 184 377.191H176C174.895 377.191 174 376.296 174 375.191Z" fill="#423955"/>
<rect x="188" y="264.191" width="64" height="113" rx="2" fill="#30294E"/>
<path d="M254 350.191C254 349.087 254.895 348.191 256 348.191H264C265.105 348.191 266 349.087 266 350.191V363.191C266 364.296 265.105 365.191 264 365.191H256C254.895 365.191 254 364.296 254 363.191V350.191Z" fill="#164A70"/>
<path d="M254 369.191C254 368.087 254.895 367.191 256 367.191H264C265.105 367.191 266 368.087 266 369.191C266 370.296 265.105 371.191 264 371.191H256C254.895 371.191 254 370.296 254 369.191Z" fill="#2D9CDB"/>
<path d="M254 375.191C254 374.087 254.895 373.191 256 373.191H264C265.105 373.191 266 374.087 266 375.191C266 376.296 265.105 377.191 264 377.191H256C254.895 377.191 254 376.296 254 375.191Z" fill="#423955"/>
<path d="M270 350.191C270 349.087 270.895 348.191 272 348.191H280C281.105 348.191 282 349.087 282 350.191V363.191C282 364.296 281.105 365.191 280 365.191H272C270.895 365.191 270 364.296 270 363.191V350.191Z" fill="#111111"/>
<path d="M270 369.191C270 368.087 270.895 367.191 272 367.191H280C281.105 367.191 282 368.087 282 369.191C282 370.296 281.105 371.191 280 371.191H272C270.895 371.191 270 370.296 270 369.191Z" fill="#2D9CDB"/>
<path d="M270 375.191C270 374.087 270.895 373.191 272 373.191H280C281.105 373.191 282 374.087 282 375.191C282 376.296 281.105 377.191 280 377.191H272C270.895 377.191 270 376.296 270 375.191Z" fill="#423955"/>
<path d="M286 330.191C286 329.087 286.895 328.191 288 328.191H296C297.105 328.191 298 329.087 298 330.191V363.191C298 364.296 297.105 365.191 296 365.191H288C286.895 365.191 286 364.296 286 363.191V330.191Z" fill="#164A70"/>
<path d="M286 369.191C286 368.087 286.895 367.191 288 367.191H296C297.105 367.191 298 368.087 298 369.191C298 370.296 297.105 371.191 296 371.191H288C286.895 371.191 286 370.296 286 369.191Z" fill="#2D9CDB"/>
<path d="M286 375.191C286 374.087 286.895 373.191 288 373.191H296C297.105 373.191 298 374.087 298 375.191C298 376.296 297.105 377.191 296 377.191H288C286.895 377.191 286 376.296 286 375.191Z" fill="#423955"/>
<rect width="16" height="92" transform="translate(300 287.191)" fill="#30294E"/>
<path d="M302 320.191C302 319.087 302.895 318.191 304 318.191H312C313.105 318.191 314 319.087 314 320.191V353.191C314 354.296 313.105 355.191 312 355.191H304C302.895 355.191 302 354.296 302 353.191V320.191Z" fill="#164A70"/>
<path d="M302 359.191C302 358.087 302.895 357.191 304 357.191H312C313.105 357.191 314 358.087 314 359.191C314 360.296 313.105 361.191 312 361.191H304C302.895 361.191 302 360.296 302 359.191Z" fill="#2D9CDB"/>
<path d="M302 365.191C302 364.087 302.895 363.191 304 363.191H312C313.105 363.191 314 364.087 314 365.191V375.191C314 376.296 313.105 377.191 312 377.191H304C302.895 377.191 302 376.296 302 375.191V365.191Z" fill="#423955"/>
<path d="M318 330.191C318 329.087 318.895 328.191 320 328.191H328C329.105 328.191 330 329.087 330 330.191V363.191C330 364.296 329.105 365.191 328 365.191H320C318.895 365.191 318 364.296 318 363.191V330.191Z" fill="#164A70"/>
<path d="M318 369.191C318 368.087 318.895 367.191 320 367.191H328C329.105 367.191 330 368.087 330 369.191C330 370.296 329.105 371.191 328 371.191H320C318.895 371.191 318 370.296 318 369.191Z" fill="#2D9CDB"/>
<path d="M318 375.191C318 374.087 318.895 373.191 320 373.191H328C329.105 373.191 330 374.087 330 375.191C330 376.296 329.105 377.191 328 377.191H320C318.895 377.191 318 376.296 318 375.191Z" fill="#423955"/>
<path d="M334 330.191C334 329.087 334.895 328.191 336 328.191H344C345.105 328.191 346 329.087 346 330.191V343.191C346 344.296 345.105 345.191 344 345.191H336C334.895 345.191 334 344.296 334 343.191V330.191Z" fill="#164A70"/>
<path d="M334 349.191C334 348.087 334.895 347.191 336 347.191H344C345.105 347.191 346 348.087 346 349.191V369.191C346 370.296 345.105 371.191 344 371.191H336C334.895 371.191 334 370.296 334 369.191V349.191Z" fill="#2D9CDB"/>
<path d="M334 375.191C334 374.087 334.895 373.191 336 373.191H344C345.105 373.191 346 374.087 346 375.191C346 376.296 345.105 377.191 344 377.191H336C334.895 377.191 334 376.296 334 375.191Z" fill="#423955"/>
<path d="M350 330.191C350 329.087 350.895 328.191 352 328.191H360C361.105 328.191 362 329.087 362 330.191V363.191C362 364.296 361.105 365.191 360 365.191H352C350.895 365.191 350 364.296 350 363.191V330.191Z" fill="#164A70"/>
<path d="M350 369.191C350 368.087 350.895 367.191 352 367.191H360C361.105 367.191 362 368.087 362 369.191C362 370.296 361.105 371.191 360 371.191H352C350.895 371.191 350 370.296 350 369.191Z" fill="#2D9CDB"/>
<path d="M350 375.191C350 374.087 350.895 373.191 352 373.191H360C361.105 373.191 362 374.087 362 375.191C362 376.296 361.105 377.191 360 377.191H352C350.895 377.191 350 376.296 350 375.191Z" fill="#423955"/>
<path d="M366 350.191C366 349.087 366.895 348.191 368 348.191H376C377.105 348.191 378 349.087 378 350.191V363.191C378 364.296 377.105 365.191 376 365.191H368C366.895 365.191 366 364.296 366 363.191V350.191Z" fill="#164A70"/>
<path d="M366 369.191C366 368.087 366.895 367.191 368 367.191H376C377.105 367.191 378 368.087 378 369.191C378 370.296 377.105 371.191 376 371.191H368C366.895 371.191 366 370.296 366 369.191Z" fill="#2D9CDB"/>
<path d="M366 375.191C366 374.087 366.895 373.191 368 373.191H376C377.105 373.191 378 374.087 378 375.191C378 376.296 377.105 377.191 376 377.191H368C366.895 377.191 366 376.296 366 375.191Z" fill="#423955"/>
<path d="M398 350.191C398 349.087 398.895 348.191 400 348.191H408C409.105 348.191 410 349.087 410 350.191V363.191C410 364.296 409.105 365.191 408 365.191H400C398.895 365.191 398 364.296 398 363.191V350.191Z" fill="#164A70"/>
<path d="M398 369.191C398 368.087 398.895 367.191 400 367.191H408C409.105 367.191 410 368.087 410 369.191C410 370.296 409.105 371.191 408 371.191H400C398.895 371.191 398 370.296 398 369.191Z" fill="#2D9CDB"/>
<path d="M398 375.191C398 374.087 398.895 373.191 400 373.191H408C409.105 373.191 410 374.087 410 375.191C410 376.296 409.105 377.191 408 377.191H400C398.895 377.191 398 376.296 398 375.191Z" fill="#423955"/>
<path d="M414 350.191C414 349.087 414.895 348.191 416 348.191H424C425.105 348.191 426 349.087 426 350.191V363.191C426 364.296 425.105 365.191 424 365.191H416C414.895 365.191 414 364.296 414 363.191V350.191Z" fill="#111111"/>
<path d="M414 369.191C414 368.087 414.895 367.191 416 367.191H424C425.105 367.191 426 368.087 426 369.191C426 370.296 425.105 371.191 424 371.191H416C414.895 371.191 414 370.296 414 369.191Z" fill="#2D9CDB"/>
<path d="M414 375.191C414 374.087 414.895 373.191 416 373.191H424C425.105 373.191 426 374.087 426 375.191C426 376.296 425.105 377.191 424 377.191H416C414.895 377.191 414 376.296 414 375.191Z" fill="#423955"/>
<path d="M430 330.191C430 329.087 430.895 328.191 432 328.191H440C441.105 328.191 442 329.087 442 330.191V363.191C442 364.296 441.105 365.191 440 365.191H432C430.895 365.191 430 364.296 430 363.191V330.191Z" fill="#164A70"/>
<path d="M430 369.191C430 368.087 430.895 367.191 432 367.191H440C441.105 367.191 442 368.087 442 369.191C442 370.296 441.105 371.191 440 371.191H432C430.895 371.191 430 370.296 430 369.191Z" fill="#2D9CDB"/>
<path d="M430 375.191C430 374.087 430.895 373.191 432 373.191H440C441.105 373.191 442 374.087 442 375.191C442 376.296 441.105 377.191 440 377.191H432C430.895 377.191 430 376.296 430 375.191Z" fill="#423955"/>
<rect x="444" y="264.191" width="80" height="113" rx="2" fill="#30294E"/>
<path d="M526 320.191C526 319.087 526.895 318.191 528 318.191H536C537.105 318.191 538 319.087 538 320.191V353.191C538 354.296 537.105 355.191 536 355.191H528C526.895 355.191 526 354.296 526 353.191V320.191Z" fill="#164A70"/>
<path d="M526 359.191C526 358.087 526.895 357.191 528 357.191H536C537.105 357.191 538 358.087 538 359.191V369.191C538 370.296 537.105 371.191 536 371.191H528C526.895 371.191 526 370.296 526 369.191V359.191Z" fill="#2D9CDB"/>
<path d="M526 375.191C526 374.087 526.895 373.191 528 373.191H536C537.105 373.191 538 374.087 538 375.191C538 376.296 537.105 377.191 536 377.191H528C526.895 377.191 526 376.296 526 375.191Z" fill="#423955"/>
<path d="M542 340.191C542 339.087 542.895 338.191 544 338.191H552C553.105 338.191 554 339.087 554 340.191V363.191C554 364.296 553.105 365.191 552 365.191H544C542.895 365.191 542 364.296 542 363.191V340.191Z" fill="#164A70"/>
<path d="M542 369.191C542 368.087 542.895 367.191 544 367.191H552C553.105 367.191 554 368.087 554 369.191C554 370.296 553.105 371.191 552 371.191H544C542.895 371.191 542 370.296 542 369.191Z" fill="#2D9CDB"/>
<path d="M542 375.191C542 374.087 542.895 373.191 544 373.191H552C553.105 373.191 554 374.087 554 375.191C554 376.296 553.105 377.191 552 377.191H544C542.895 377.191 542 376.296 542 375.191Z" fill="#423955"/>
<path d="M558 330.191C558 329.087 558.895 328.191 560 328.191H568C569.105 328.191 570 329.087 570 330.191V363.191C570 364.296 569.105 365.191 568 365.191H560C558.895 365.191 558 364.296 558 363.191V330.191Z" fill="#164A70"/>
<path d="M558 369.191C558 368.087 558.895 367.191 560 367.191H568C569.105 367.191 570 368.087 570 369.191C570 370.296 569.105 371.191 568 371.191H560C558.895 371.191 558 370.296 558 369.191Z" fill="#2D9CDB"/>
<path d="M558 375.191C558 374.087 558.895 373.191 560 373.191H568C569.105 373.191 570 374.087 570 375.191C570 376.296 569.105 377.191 568 377.191H560C558.895 377.191 558 376.296 558 375.191Z" fill="#423955"/>
<path d="M8.92308 273.691C8.13713 273.691 7.5 274.329 7.5 275.114V282.191C7.5 284.677 9.51472 286.691 12 286.691C14.4853 286.691 16.5 284.677 16.5 282.191V275.114C16.5 274.329 15.8629 273.691 15.0769 273.691H8.92308Z" fill="#9D97AA"/>
<path d="M8.92308 273.691C8.13713 273.691 7.5 274.329 7.5 275.114V282.191C7.5 284.677 9.51472 286.691 12 286.691C14.4853 286.691 16.5 284.677 16.5 282.191V275.114C16.5 274.329 15.8629 273.691 15.0769 273.691H8.92308Z" stroke="#0D0225"/>
<mask id="path-104-outside-1_3129_20028" maskUnits="userSpaceOnUse" x="10" y="286.191" width="4" height="93" fill="black">
<rect fill="white" x="10" y="286.191" width="4" height="93"/>
<path d="M11 286.191H13V379.191H11V286.191Z"/>
</mask>
<path d="M11 286.191H13V379.191H11V286.191Z" fill="#9D97AA"/>
<path d="M12 286.191V379.191H14V286.191H12ZM12 379.191V286.191H10V379.191H12Z" fill="#0D0225" mask="url(#path-104-outside-1_3129_20028)"/>
</g>
<rect x="0.380408" y="0.571814" width="569.239" height="378.239" rx="8.07416" stroke="#30294E" stroke-width="0.760815"/>
<rect x="570" y="287.191" width="570" height="287" transform="rotate(-180 570 287.191)" fill="url(#paint0_linear_3129_20028)"/>
<rect width="16.875" height="18" transform="translate(304 303.592) rotate(-15.1157)" fill="white" fill-opacity="0.01"/>
<g filter="url(#filter3_d_3129_20028)">
<path fill-rule="evenodd" clip-rule="evenodd" d="M311.129 317.341C311.332 317.444 311.474 317.519 311.911 317.755C312.34 317.987 312.546 318.096 312.732 318.183C312.809 318.219 312.901 318.346 312.979 318.551C313.043 318.72 313.089 318.915 313.118 319.107C313.128 319.173 313.134 319.222 313.136 319.245C313.157 319.506 313.409 319.684 313.662 319.618C313.89 319.559 314.066 319.515 314.532 319.398C314.648 319.368 314.648 319.368 314.765 319.339C316.031 319.02 316.673 318.84 317.12 318.658C317.596 318.462 317.944 317.729 318.181 316.862C318.733 317.423 319.424 317.93 319.968 317.873C320.141 317.855 320.344 317.809 320.575 317.741C320.747 317.69 320.927 317.629 321.108 317.563C321.244 317.512 321.352 317.47 321.416 317.443C321.653 317.345 321.748 317.06 321.618 316.84C321.59 316.792 321.542 316.703 321.487 316.591C321.423 316.46 321.367 316.33 321.325 316.21C321.299 316.133 321.278 316.063 321.266 316.001C321.243 315.893 321.229 315.833 321.195 315.695C321.182 315.644 321.182 315.644 321.171 315.599C321.138 315.451 321.12 315.306 321.101 314.986C321.093 314.847 321.158 314.559 321.282 314.191C321.32 314.081 321.361 313.966 321.407 313.846C321.494 313.619 321.591 313.387 321.69 313.163C321.75 313.029 321.796 312.928 321.823 312.873C322.02 312.325 322.159 311.478 322.166 311.003C322.172 310.546 322.058 309.739 321.91 308.956C321.825 308.511 321.743 308.157 321.594 307.607C321.568 307.51 321.568 307.51 321.547 307.43C321.512 307.3 321.498 307.25 321.481 307.189C321.435 307.023 321.386 306.859 321.256 306.441C320.982 305.567 320.344 305.127 319.6 305.209C318.968 305.279 318.365 305.983 318.365 305.983C318.365 305.983 318.047 305.46 317.889 305.315C317.632 305.082 317.07 304.848 316.696 304.874C316.312 304.902 315.88 305.027 315.502 305.205C315.17 305.361 314.907 305.766 314.797 306.156C314.718 306.434 314.785 306.145 314.574 305.937C314.283 305.649 313.738 305.469 313.273 305.498C312.878 305.522 312.458 305.667 312.099 305.888C311.636 306.174 311.66 306.579 311.61 306.475C311.444 306.125 311.444 306.151 311.332 305.9C310.914 304.97 310.559 304.344 310.138 303.828C310.162 303.857 309.983 303.634 309.918 303.558C309.807 303.426 309.7 303.308 309.588 303.197C309.241 302.855 308.887 302.625 308.499 302.544C307.825 302.404 306.977 302.79 306.688 303.395C306.402 303.997 306.553 304.832 306.931 305.814C307.077 306.195 307.412 306.874 307.683 307.368C307.777 307.54 307.862 307.697 308.019 307.987C308.045 308.036 308.045 308.036 308.072 308.085C308.192 308.304 308.293 308.484 308.409 308.68C308.397 308.659 308.615 309.025 308.663 309.106C308.678 309.133 308.678 309.133 308.694 309.16C308.784 309.315 308.876 309.484 309.024 309.766C309.106 309.921 309.19 310.088 309.276 310.266C309.51 310.75 309.482 310.643 309.36 310.56C309.275 310.502 309.197 310.45 309.121 310.403C308.981 310.315 308.856 310.245 308.74 310.194C307.899 309.816 307.409 309.681 306.815 309.783C305.84 309.948 305.119 310.864 305.228 311.807C305.294 312.385 305.39 312.633 305.78 313.055C305.993 313.282 306.319 313.538 306.915 313.969C306.951 313.995 306.951 313.995 306.988 314.022C307.718 314.549 307.798 314.608 307.979 314.762C308.47 315.178 309.724 316.414 309.933 316.569L311.129 317.341Z" fill="black"/>
</g>
<path fill-rule="evenodd" clip-rule="evenodd" d="M307.482 313.337C307.446 313.311 307.446 313.311 307.41 313.285C306.864 312.889 306.558 312.649 306.399 312.479C306.147 312.207 306.115 312.123 306.067 311.709C306.01 311.22 306.416 310.706 306.958 310.614C307.333 310.549 307.703 310.651 308.396 310.963C308.471 310.996 308.565 311.048 308.674 311.117C308.739 311.157 308.808 311.203 308.884 311.255C308.998 311.333 309.384 311.61 309.327 311.57C309.411 311.629 309.472 311.675 309.543 311.733C309.685 311.852 309.764 311.917 309.87 312C309.82 311.961 310.191 312.261 310.263 312.3C310.643 312.507 311.016 312.146 310.884 311.768C310.862 311.705 310.829 311.64 310.764 311.527C310.399 310.671 310.278 310.397 310.036 309.897C309.947 309.711 309.858 309.536 309.772 309.372C309.618 309.08 309.521 308.903 309.426 308.738C309.409 308.708 309.409 308.708 309.392 308.679C309.342 308.594 309.121 308.223 309.135 308.248C309.025 308.062 308.929 307.891 308.814 307.681C308.788 307.633 308.788 307.633 308.762 307.584C308.606 307.296 308.519 307.135 308.423 306.961C308.17 306.498 307.85 305.849 307.72 305.51C307.425 304.746 307.303 304.068 307.451 303.757C307.567 303.514 308.024 303.306 308.329 303.369C308.527 303.411 308.755 303.559 308.997 303.797C309.088 303.887 309.178 303.986 309.273 304.099C309.331 304.168 309.505 304.384 309.486 304.361C309.852 304.809 310.173 305.376 310.563 306.245C310.679 306.502 310.814 306.793 310.982 307.147C311.032 307.252 311.032 307.252 311.082 307.357C311.89 309.044 311.829 308.916 311.872 309.057C312.029 309.569 312.795 309.375 312.689 308.85C312.656 308.683 312.612 308.538 312.48 308.124C312.461 308.065 312.461 308.065 312.443 308.007C312.322 307.625 312.263 307.402 312.252 307.27C312.231 307.028 312.368 306.714 312.543 306.605C312.789 306.453 313.077 306.354 313.325 306.339C313.563 306.324 313.872 306.427 313.982 306.535C314.115 306.667 314.257 306.885 314.396 307.164C314.509 307.389 314.611 307.636 314.708 307.903C314.738 307.986 314.761 308.05 314.797 308.156C314.813 308.201 314.813 308.201 314.826 308.238C314.833 308.256 314.833 308.256 314.845 308.285C314.854 308.305 314.854 308.305 314.884 308.353C314.932 308.501 314.932 308.501 315.548 308.394C315.669 308.128 315.669 308.128 315.654 308.092C315.649 307.955 315.628 307.807 315.581 307.531C315.55 307.351 315.535 307.263 315.521 307.171C315.461 306.791 315.448 306.543 315.482 306.423C315.524 306.274 315.746 306.022 315.862 305.967C316.152 305.831 316.485 305.735 316.757 305.715C316.88 305.707 317.225 305.85 317.321 305.937C317.519 306.118 317.845 306.788 318.11 307.467C318.11 307.517 318.11 307.517 318.369 307.733C318.99 307.486 318.99 307.486 318.941 307.375C318.946 307.33 318.947 307.278 318.946 307.199C318.945 307.013 318.948 306.904 318.963 306.779C318.973 306.693 318.988 306.617 319.008 306.555C319.083 306.313 319.384 306.081 319.694 306.047C320.027 306.01 320.296 306.195 320.451 306.692C320.579 307.101 320.626 307.258 320.669 307.414C320.685 307.471 320.698 307.518 320.733 307.648C320.754 307.728 320.754 307.728 320.78 307.826C320.924 308.357 321.002 308.691 321.083 309.112C321.219 309.837 321.329 310.611 321.323 310.99C321.318 311.377 321.193 312.133 321.045 312.549C321.033 312.57 320.983 312.678 320.92 312.82C320.815 313.056 320.713 313.302 320.62 313.544C320.571 313.673 320.525 313.799 320.484 313.919C320.326 314.386 320.244 314.754 320.26 315.034C320.281 315.397 320.304 315.586 320.35 315.786C320.363 315.842 320.363 315.842 320.377 315.897C320.408 316.026 320.421 316.078 320.441 316.173C320.462 316.273 320.492 316.378 320.529 316.486C320.583 316.642 320.631 316.861 320.631 316.861C320.631 316.861 320.49 316.886 320.337 316.931C320.151 316.986 319.994 317.021 319.881 317.033C319.719 317.05 319.158 316.638 318.832 316.287C318.335 315.75 317.546 315.996 317.369 316.637C317.21 317.218 316.922 317.826 316.801 317.876C316.408 318.037 315.779 318.213 314.56 318.52C314.444 318.549 314.444 318.549 314.327 318.578C313.859 318.696 313.898 318.77 313.885 318.683C313.848 318.437 313.857 318.482 313.768 318.25C313.619 317.859 313.407 317.566 313.091 317.418C312.926 317.341 312.727 317.236 312.324 317.018C311.864 316.769 311.72 316.693 311.545 316.606L310.414 315.874C310.285 315.778 309.059 314.569 308.526 314.117C308.319 313.942 308.244 313.887 307.482 313.337ZM317.811 310.551L318.826 314.308C318.972 314.851 319.787 314.631 319.64 314.088L318.625 310.331C318.479 309.788 317.664 310.008 317.811 310.551ZM315.604 311.147L316.64 314.914C316.79 315.456 317.603 315.232 317.454 314.69L316.418 310.923C316.268 310.381 315.455 310.604 315.604 311.147ZM315.304 315.252L314.276 311.537C314.126 310.995 313.313 311.22 313.463 311.762L314.491 315.477C314.641 316.019 315.454 315.794 315.304 315.252Z" fill="white"/>
<g filter="url(#filter4_d_3129_20028)">
<g clip-path="url(#clip3_3129_20028)">
<rect x="287.691" y="130.191" width="224" height="148" rx="8.45457" fill="#0D0225"/>
<mask id="path-111-inside-2_3129_20028" fill="white">
<path d="M287.691 130.191H511.691V158.191H287.691V130.191Z"/>
</mask>
<path d="M287.691 130.191H511.691V158.191H287.691V130.191Z" fill="#30294E"/>
<path d="M300.362 138.529C300.262 138.155 299.878 137.934 299.505 138.034C299.131 138.134 298.91 138.518 299.01 138.891L299.191 139.567C299.291 139.941 299.675 140.162 300.048 140.062C300.422 139.962 300.643 139.578 300.543 139.205L300.362 138.529Z" fill="#9D97AA"/>
<path d="M297.392 140.509C297.019 140.409 296.635 140.63 296.535 141.004C296.435 141.377 296.656 141.761 297.03 141.861L297.706 142.042C298.079 142.142 298.463 141.921 298.563 141.547C298.663 141.174 298.442 140.79 298.068 140.69L297.392 140.509Z" fill="#9D97AA"/>
<path d="M303.562 140.111C303.835 139.837 303.835 139.394 303.562 139.121C303.288 138.847 302.845 138.847 302.572 139.121L302.077 139.616C301.803 139.889 301.803 140.332 302.077 140.606C302.35 140.879 302.793 140.879 303.067 140.606L303.562 140.111Z" fill="#9D97AA"/>
<path d="M298.612 145.061L299.107 144.566C299.38 144.292 299.38 143.849 299.107 143.576C298.833 143.302 298.39 143.302 298.117 143.576L297.622 144.071C297.348 144.344 297.348 144.787 297.622 145.061C297.895 145.334 298.338 145.334 298.612 145.061Z" fill="#9D97AA"/>
<path d="M300.852 141.441C300.592 141.337 300.295 141.398 300.097 141.596C299.899 141.794 299.838 142.091 299.942 142.351L302.742 149.351C302.844 149.607 303.087 149.779 303.363 149.79C303.638 149.802 303.895 149.65 304.018 149.404L304.983 147.472L307.097 149.586C307.37 149.859 307.813 149.859 308.087 149.586C308.36 149.312 308.36 148.869 308.087 148.596L305.973 146.482L307.905 145.517C308.151 145.394 308.303 145.137 308.291 144.862C308.28 144.586 308.108 144.343 307.852 144.241L300.852 141.441Z" fill="#9D97AA"/>
<path d="M322.15 145.056H320.643C320.357 146.167 319.433 146.959 318.157 146.959C316.694 146.959 315.66 145.793 315.66 144.319C315.66 142.878 316.694 141.679 318.157 141.679C319.356 141.679 320.247 142.427 320.588 143.45H322.128C321.754 141.657 320.247 140.315 318.168 140.315C315.803 140.315 314.153 142.119 314.153 144.319C314.153 146.519 315.803 148.334 318.168 148.334C320.313 148.334 321.831 146.904 322.15 145.056ZM323.236 148.191H324.611V140.04H323.236V148.191ZM326.816 140.062C326.255 140.062 325.925 140.447 325.925 140.92C325.925 141.382 326.255 141.789 326.816 141.789C327.377 141.789 327.718 141.382 327.718 140.92C327.718 140.447 327.377 140.062 326.816 140.062ZM326.134 148.191H327.509V142.614H326.134V148.191ZM334.499 144.847C334.268 143.505 333.157 142.471 331.628 142.471C329.835 142.471 328.625 143.791 328.625 145.397C328.625 147.014 329.835 148.334 331.628 148.334C333.157 148.334 334.268 147.289 334.51 145.925H333.146C332.959 146.574 332.376 147.058 331.628 147.058C330.66 147.058 330 146.321 330 145.397C330 144.484 330.66 143.747 331.628 143.747C332.365 143.747 332.926 144.198 333.124 144.847H334.499ZM335.571 148.191H336.946V145.474L339.069 148.191H340.763L338.332 145.111L340.389 142.614H338.794L336.946 144.902V140.04H335.571V148.191ZM345.444 144.275C345.356 143.043 344.432 142.471 343.189 142.471C341.957 142.471 340.945 143.076 340.945 144.187C340.945 145.276 341.77 145.606 342.705 145.826L343.365 145.98C343.827 146.09 344.135 146.222 344.135 146.618C344.135 147.058 343.75 147.267 343.2 147.267C342.639 147.267 342.199 147.025 342.188 146.387H340.747C340.802 147.751 341.836 148.334 343.244 148.334C344.542 148.334 345.543 147.718 345.543 146.497C345.543 145.419 344.762 145.045 343.739 144.825L343.189 144.704C342.639 144.583 342.342 144.462 342.342 144.077C342.342 143.725 342.716 143.538 343.167 143.538C343.629 143.538 344.025 143.703 344.036 144.275H345.444Z" fill="#9D97AA"/>
<path d="M511.691 157.191H287.691V159.191H511.691V157.191Z" fill="#30294E" mask="url(#path-111-inside-2_3129_20028)"/>
<circle cx="303.691" cy="176.191" r="4" fill="#2D9CDB"/>
<path d="M317.264 180.347C317.797 180.347 318.174 179.944 318.174 179.463C318.174 178.956 317.797 178.566 317.264 178.566C316.744 178.566 316.367 178.956 316.367 179.463C316.367 179.944 316.744 180.347 317.264 180.347ZM324.456 181.907H318.71V182.947H324.456V181.907ZM330.09 175.524C330.012 174.12 328.972 173.47 327.542 173.47C326.177 173.47 325.046 174.146 325.046 175.368C325.046 176.577 325.93 176.967 326.957 177.201L327.919 177.422C328.543 177.565 329.011 177.773 329.011 178.371C329.011 179.06 328.4 179.385 327.594 179.385C326.736 179.385 326.073 179.021 326.047 178.085H324.799C324.864 179.671 326.034 180.347 327.633 180.347C329.089 180.347 330.22 179.632 330.22 178.254C330.22 177.058 329.362 176.642 328.257 176.382L327.464 176.2C326.736 176.031 326.242 175.875 326.242 175.277C326.242 174.731 326.827 174.432 327.529 174.432C328.283 174.432 328.855 174.718 328.868 175.524H330.09ZM331.729 180.191H332.925V170.558H331.729V180.191ZM335.549 170.714C335.029 170.714 334.704 171.091 334.704 171.533C334.704 171.962 335.029 172.352 335.549 172.352C336.069 172.352 336.394 171.962 336.394 171.533C336.394 171.091 336.069 170.714 335.549 170.714ZM334.951 180.191H336.147V173.626H334.951V180.191ZM340.941 180.347C342.059 180.347 342.956 179.827 343.515 179.034V180.191H344.646V170.558H343.45V174.679C342.891 173.938 342.033 173.47 340.98 173.47C339.043 173.47 337.639 174.965 337.639 176.928C337.639 178.865 339.03 180.347 340.941 180.347ZM341.188 179.255C339.836 179.255 338.874 178.189 338.874 176.915C338.874 175.628 339.836 174.562 341.188 174.562C342.527 174.562 343.489 175.615 343.489 176.915C343.489 178.202 342.527 179.255 341.188 179.255ZM351.577 178.124C351.213 178.865 350.472 179.32 349.549 179.32C348.327 179.32 347.43 178.449 347.287 177.24H352.929V176.824C352.929 174.965 351.538 173.47 349.549 173.47C347.599 173.47 346.104 175.017 346.104 176.902C346.104 178.8 347.547 180.347 349.536 180.347C351.122 180.347 352.318 179.45 352.76 178.124H351.577ZM349.549 174.497C350.576 174.497 351.447 175.121 351.72 176.252H347.352C347.612 175.225 348.444 174.497 349.549 174.497ZM355.586 176.746C355.586 175.667 356.249 174.666 357.614 174.666C357.757 174.666 357.874 174.679 357.978 174.692V173.561C357.9 173.548 357.77 173.535 357.64 173.535C356.756 173.535 355.989 173.977 355.534 174.848V173.626H354.39V180.191H355.586V176.746ZM361.149 180.191H362.475L364.594 173.236L366.687 180.191H368.013L370.704 171.052H369.417L367.337 178.358L365.205 171.052H364.048L361.877 178.436L359.81 171.052H358.471L361.149 180.191ZM372.757 176.746C372.757 175.667 373.42 174.666 374.785 174.666C374.928 174.666 375.045 174.679 375.149 174.692V173.561C375.071 173.548 374.941 173.535 374.811 173.535C373.927 173.535 373.16 173.977 372.705 174.848V173.626H371.561V180.191H372.757V176.746ZM380.246 179.255V180.191H381.377V175.927C381.377 174.51 380.48 173.47 378.725 173.47C377.191 173.47 376.125 174.484 376.008 175.693H377.152C377.256 175.017 377.828 174.484 378.712 174.484C379.635 174.484 380.207 175.017 380.207 175.784V175.875L377.971 176.395C376.528 176.733 375.852 177.409 375.852 178.488C375.852 179.58 376.775 180.347 378.049 180.347C378.894 180.347 379.726 179.996 380.246 179.255ZM380.207 177.331C380.207 178.371 379.414 179.359 378.27 179.359C377.503 179.359 377.035 179.008 377.035 178.384C377.035 177.838 377.477 177.487 378.27 177.305L380.207 176.85V177.331ZM383.272 173.626V182.947H384.468V179.138C385.027 179.879 385.885 180.347 386.938 180.347C388.875 180.347 390.279 178.852 390.279 176.889C390.279 174.952 388.888 173.47 386.977 173.47C385.872 173.47 384.975 173.977 384.416 174.757V173.626H383.272ZM386.73 174.562C388.082 174.562 389.044 175.628 389.044 176.902C389.044 178.189 388.082 179.255 386.73 179.255C385.391 179.255 384.429 178.202 384.429 176.902C384.429 175.615 385.391 174.562 386.73 174.562ZM391.75 173.626V182.947H392.946V179.138C393.505 179.879 394.363 180.347 395.416 180.347C397.353 180.347 398.757 178.852 398.757 176.889C398.757 174.952 397.366 173.47 395.455 173.47C394.35 173.47 393.453 173.977 392.894 174.757V173.626H391.75ZM395.208 174.562C396.56 174.562 397.522 175.628 397.522 176.902C397.522 178.189 396.56 179.255 395.208 179.255C393.869 179.255 392.907 178.202 392.907 176.902C392.907 175.615 393.869 174.562 395.208 174.562ZM405.18 178.124C404.816 178.865 404.075 179.32 403.152 179.32C401.93 179.32 401.033 178.449 400.89 177.24H406.532V176.824C406.532 174.965 405.141 173.47 403.152 173.47C401.202 173.47 399.707 175.017 399.707 176.902C399.707 178.8 401.15 180.347 403.139 180.347C404.725 180.347 405.921 179.45 406.363 178.124H405.18ZM403.152 174.497C404.179 174.497 405.05 175.121 405.323 176.252H400.955C401.215 175.225 402.047 174.497 403.152 174.497ZM409.19 176.746C409.19 175.667 409.853 174.666 411.218 174.666C411.361 174.666 411.478 174.679 411.582 174.692V173.561C411.504 173.548 411.374 173.535 411.244 173.535C410.36 173.535 409.593 173.977 409.138 174.848V173.626H407.994V180.191H409.19V176.746ZM417.482 181.907H411.736V182.947H417.482V181.907ZM421.388 171.052L417.657 177.266V178.215H422.389V180.191H423.598V178.215H424.573V177.097H423.598V174.757L422.389 175.043V177.097H419.152L422.831 171.052H421.388ZM431.544 174.055C431.544 172.313 430.153 170.896 428.307 170.896C426.474 170.896 425.044 172.313 425.044 174.029C425.044 175.706 426.383 177.058 428.021 177.058C428.385 177.058 428.814 177.006 429.191 176.85L426.786 180.191H428.242L430.647 176.707C431.206 175.888 431.544 174.926 431.544 174.055ZM428.307 172.014C429.464 172.014 430.322 172.924 430.322 174.029C430.322 175.108 429.464 175.966 428.307 175.966C427.15 175.966 426.292 175.108 426.292 174.029C426.292 172.924 427.15 172.014 428.307 172.014ZM437.747 181.907H432.001V182.947H437.747V181.907ZM439.729 180.191H440.977V171.052H438.065L437.766 172.196H439.729V180.191Z" fill="#DFDFDF"/>
<path d="M459.062 174.211C459.062 171.702 457.281 170.896 455.786 170.896C454.291 170.896 452.51 171.702 452.51 174.211V177.019C452.51 179.541 454.291 180.347 455.786 180.347C457.281 180.347 459.062 179.541 459.062 177.019V174.211ZM457.814 174.224V177.019C457.814 178.527 456.891 179.164 455.773 179.164C454.681 179.164 453.758 178.527 453.758 177.019V174.224C453.758 172.716 454.681 172.079 455.773 172.079C456.891 172.079 457.814 172.716 457.814 174.224ZM467.121 174.211C467.121 171.702 465.34 170.896 463.845 170.896C462.35 170.896 460.569 171.702 460.569 174.211V177.019C460.569 179.541 462.35 180.347 463.845 180.347C465.34 180.347 467.121 179.541 467.121 177.019V174.211ZM465.873 174.224V177.019C465.873 178.527 464.95 179.164 463.832 179.164C462.74 179.164 461.817 178.527 461.817 177.019V174.224C461.817 172.716 462.74 172.079 463.832 172.079C464.95 172.079 465.873 172.716 465.873 174.224ZM469.563 175.251C470.096 175.251 470.473 174.848 470.473 174.367C470.473 173.86 470.096 173.47 469.563 173.47C469.043 173.47 468.666 173.86 468.666 174.367C468.666 174.848 469.043 175.251 469.563 175.251ZM469.563 180.347C470.096 180.347 470.473 179.944 470.473 179.463C470.473 178.956 470.096 178.566 469.563 178.566C469.043 178.566 468.666 178.956 468.666 179.463C468.666 179.944 469.043 180.347 469.563 180.347ZM473.327 180.191H474.575V171.052H471.663L471.364 172.196H473.327V180.191ZM479.483 180.347C481.485 180.347 482.655 179.047 482.655 177.604C482.655 176.642 482.122 175.758 481.173 175.277C481.901 174.822 482.291 174.068 482.291 173.288C482.291 172.04 481.264 170.896 479.496 170.896C477.715 170.896 476.688 172.04 476.688 173.288C476.688 174.055 477.078 174.809 477.793 175.264C476.831 175.745 476.298 176.642 476.298 177.604C476.298 179.047 477.468 180.347 479.483 180.347ZM479.496 174.822C478.404 174.822 477.832 174.107 477.832 173.379C477.832 172.651 478.404 171.949 479.496 171.949C480.575 171.949 481.147 172.651 481.147 173.379C481.147 174.107 480.575 174.822 479.496 174.822ZM479.483 179.255C478.235 179.255 477.533 178.423 477.533 177.552C477.533 176.642 478.235 175.836 479.483 175.836C480.731 175.836 481.433 176.642 481.433 177.552C481.433 178.423 480.731 179.255 479.483 179.255Z" fill="#9D97AA"/>
<path fill-rule="evenodd" clip-rule="evenodd" d="M495.691 182.591C499.226 182.591 502.091 179.726 502.091 176.191C502.091 172.656 499.226 169.791 495.691 169.791C492.156 169.791 489.291 172.656 489.291 176.191C489.291 179.726 492.156 182.591 495.691 182.591ZM498.657 175.625L496.257 173.225C495.944 172.913 495.438 172.913 495.125 173.225C494.813 173.538 494.813 174.044 495.125 174.357L496.16 175.391L493.291 175.391C492.849 175.391 492.491 175.749 492.491 176.191C492.491 176.633 492.849 176.991 493.291 176.991H496.16L495.125 178.025C494.813 178.338 494.813 178.844 495.125 179.157C495.438 179.469 495.944 179.469 496.257 179.157L498.657 176.757C498.969 176.444 498.969 175.938 498.657 175.625Z" fill="#9D97AA"/>
<circle cx="303.691" cy="204.191" r="4" fill="#2D9CDB"/>
<path d="M317.264 208.347C317.797 208.347 318.174 207.944 318.174 207.463C318.174 206.956 317.797 206.566 317.264 206.566C316.744 206.566 316.367 206.956 316.367 207.463C316.367 207.944 316.744 208.347 317.264 208.347ZM324.456 209.907H318.71V210.947H324.456V209.907ZM330.09 203.524C330.012 202.12 328.972 201.47 327.542 201.47C326.177 201.47 325.046 202.146 325.046 203.368C325.046 204.577 325.93 204.967 326.957 205.201L327.919 205.422C328.543 205.565 329.011 205.773 329.011 206.371C329.011 207.06 328.4 207.385 327.594 207.385C326.736 207.385 326.073 207.021 326.047 206.085H324.799C324.864 207.671 326.034 208.347 327.633 208.347C329.089 208.347 330.22 207.632 330.22 206.254C330.22 205.058 329.362 204.642 328.257 204.382L327.464 204.2C326.736 204.031 326.242 203.875 326.242 203.277C326.242 202.731 326.827 202.432 327.529 202.432C328.283 202.432 328.855 202.718 328.868 203.524H330.09ZM331.729 208.191H332.925V198.558H331.729V208.191ZM335.549 198.714C335.029 198.714 334.704 199.091 334.704 199.533C334.704 199.962 335.029 200.352 335.549 200.352C336.069 200.352 336.394 199.962 336.394 199.533C336.394 199.091 336.069 198.714 335.549 198.714ZM334.951 208.191H336.147V201.626H334.951V208.191ZM340.941 208.347C342.059 208.347 342.956 207.827 343.515 207.034V208.191H344.646V198.558H343.45V202.679C342.891 201.938 342.033 201.47 340.98 201.47C339.043 201.47 337.639 202.965 337.639 204.928C337.639 206.865 339.03 208.347 340.941 208.347ZM341.188 207.255C339.836 207.255 338.874 206.189 338.874 204.915C338.874 203.628 339.836 202.562 341.188 202.562C342.527 202.562 343.489 203.615 343.489 204.915C343.489 206.202 342.527 207.255 341.188 207.255ZM351.577 206.124C351.213 206.865 350.472 207.32 349.549 207.32C348.327 207.32 347.43 206.449 347.287 205.24H352.929V204.824C352.929 202.965 351.538 201.47 349.549 201.47C347.599 201.47 346.104 203.017 346.104 204.902C346.104 206.8 347.547 208.347 349.536 208.347C351.122 208.347 352.318 207.45 352.76 206.124H351.577ZM349.549 202.497C350.576 202.497 351.447 203.121 351.72 204.252H347.352C347.612 203.225 348.444 202.497 349.549 202.497ZM355.586 204.746C355.586 203.667 356.249 202.666 357.614 202.666C357.757 202.666 357.874 202.679 357.978 202.692V201.561C357.9 201.548 357.77 201.535 357.64 201.535C356.756 201.535 355.989 201.977 355.534 202.848V201.626H354.39V208.191H355.586V204.746ZM361.149 208.191H362.475L364.594 201.236L366.687 208.191H368.013L370.704 199.052H369.417L367.337 206.358L365.205 199.052H364.048L361.877 206.436L359.81 199.052H358.471L361.149 208.191ZM372.757 204.746C372.757 203.667 373.42 202.666 374.785 202.666C374.928 202.666 375.045 202.679 375.149 202.692V201.561C375.071 201.548 374.941 201.535 374.811 201.535C373.927 201.535 373.16 201.977 372.705 202.848V201.626H371.561V208.191H372.757V204.746ZM380.246 207.255V208.191H381.377V203.927C381.377 202.51 380.48 201.47 378.725 201.47C377.191 201.47 376.125 202.484 376.008 203.693H377.152C377.256 203.017 377.828 202.484 378.712 202.484C379.635 202.484 380.207 203.017 380.207 203.784V203.875L377.971 204.395C376.528 204.733 375.852 205.409 375.852 206.488C375.852 207.58 376.775 208.347 378.049 208.347C378.894 208.347 379.726 207.996 380.246 207.255ZM380.207 205.331C380.207 206.371 379.414 207.359 378.27 207.359C377.503 207.359 377.035 207.008 377.035 206.384C377.035 205.838 377.477 205.487 378.27 205.305L380.207 204.85V205.331ZM383.272 201.626V210.947H384.468V207.138C385.027 207.879 385.885 208.347 386.938 208.347C388.875 208.347 390.279 206.852 390.279 204.889C390.279 202.952 388.888 201.47 386.977 201.47C385.872 201.47 384.975 201.977 384.416 202.757V201.626H383.272ZM386.73 202.562C388.082 202.562 389.044 203.628 389.044 204.902C389.044 206.189 388.082 207.255 386.73 207.255C385.391 207.255 384.429 206.202 384.429 204.902C384.429 203.615 385.391 202.562 386.73 202.562ZM391.75 201.626V210.947H392.946V207.138C393.505 207.879 394.363 208.347 395.416 208.347C397.353 208.347 398.757 206.852 398.757 204.889C398.757 202.952 397.366 201.47 395.455 201.47C394.35 201.47 393.453 201.977 392.894 202.757V201.626H391.75ZM395.208 202.562C396.56 202.562 397.522 203.628 397.522 204.902C397.522 206.189 396.56 207.255 395.208 207.255C393.869 207.255 392.907 206.202 392.907 204.902C392.907 203.615 393.869 202.562 395.208 202.562ZM405.18 206.124C404.816 206.865 404.075 207.32 403.152 207.32C401.93 207.32 401.033 206.449 400.89 205.24H406.532V204.824C406.532 202.965 405.141 201.47 403.152 201.47C401.202 201.47 399.707 203.017 399.707 204.902C399.707 206.8 401.15 208.347 403.139 208.347C404.725 208.347 405.921 207.45 406.363 206.124H405.18ZM403.152 202.497C404.179 202.497 405.05 203.121 405.323 204.252H400.955C401.215 203.225 402.047 202.497 403.152 202.497ZM409.19 204.746C409.19 203.667 409.853 202.666 411.218 202.666C411.361 202.666 411.478 202.679 411.582 202.692V201.561C411.504 201.548 411.374 201.535 411.244 201.535C410.36 201.535 409.593 201.977 409.138 202.848V201.626H407.994V208.191H409.19V204.746Z" fill="#DFDFDF"/>
<path d="M459.062 202.211C459.062 199.702 457.281 198.896 455.786 198.896C454.291 198.896 452.51 199.702 452.51 202.211V205.019C452.51 207.541 454.291 208.347 455.786 208.347C457.281 208.347 459.062 207.541 459.062 205.019V202.211ZM457.814 202.224V205.019C457.814 206.527 456.891 207.164 455.773 207.164C454.681 207.164 453.758 206.527 453.758 205.019V202.224C453.758 200.716 454.681 200.079 455.773 200.079C456.891 200.079 457.814 200.716 457.814 202.224ZM467.121 202.211C467.121 199.702 465.34 198.896 463.845 198.896C462.35 198.896 460.569 199.702 460.569 202.211V205.019C460.569 207.541 462.35 208.347 463.845 208.347C465.34 208.347 467.121 207.541 467.121 205.019V202.211ZM465.873 202.224V205.019C465.873 206.527 464.95 207.164 463.832 207.164C462.74 207.164 461.817 206.527 461.817 205.019V202.224C461.817 200.716 462.74 200.079 463.832 200.079C464.95 200.079 465.873 200.716 465.873 202.224ZM469.563 203.251C470.096 203.251 470.473 202.848 470.473 202.367C470.473 201.86 470.096 201.47 469.563 201.47C469.043 201.47 468.666 201.86 468.666 202.367C468.666 202.848 469.043 203.251 469.563 203.251ZM469.563 208.347C470.096 208.347 470.473 207.944 470.473 207.463C470.473 206.956 470.096 206.566 469.563 206.566C469.043 206.566 468.666 206.956 468.666 207.463C468.666 207.944 469.043 208.347 469.563 208.347ZM473.327 208.191H474.575V199.052H471.663L471.364 200.196H473.327V208.191ZM479.483 208.347C481.485 208.347 482.655 207.047 482.655 205.604C482.655 204.642 482.122 203.758 481.173 203.277C481.901 202.822 482.291 202.068 482.291 201.288C482.291 200.04 481.264 198.896 479.496 198.896C477.715 198.896 476.688 200.04 476.688 201.288C476.688 202.055 477.078 202.809 477.793 203.264C476.831 203.745 476.298 204.642 476.298 205.604C476.298 207.047 477.468 208.347 479.483 208.347ZM479.496 202.822C478.404 202.822 477.832 202.107 477.832 201.379C477.832 200.651 478.404 199.949 479.496 199.949C480.575 199.949 481.147 200.651 481.147 201.379C481.147 202.107 480.575 202.822 479.496 202.822ZM479.483 207.255C478.235 207.255 477.533 206.423 477.533 205.552C477.533 204.642 478.235 203.836 479.483 203.836C480.731 203.836 481.433 204.642 481.433 205.552C481.433 206.423 480.731 207.255 479.483 207.255Z" fill="#9D97AA"/>
<path fill-rule="evenodd" clip-rule="evenodd" d="M495.691 210.591C499.226 210.591 502.091 207.726 502.091 204.191C502.091 200.656 499.226 197.791 495.691 197.791C492.156 197.791 489.291 200.656 489.291 204.191C489.291 207.726 492.156 210.591 495.691 210.591ZM498.657 203.625L496.257 201.225C495.944 200.913 495.438 200.913 495.125 201.225C494.813 201.538 494.813 202.044 495.125 202.357L496.16 203.391L493.291 203.391C492.849 203.391 492.491 203.749 492.491 204.191C492.491 204.633 492.849 204.991 493.291 204.991H496.16L495.125 206.025C494.813 206.338 494.813 206.844 495.125 207.157C495.438 207.469 495.944 207.469 496.257 207.157L498.657 204.757C498.969 204.444 498.969 203.938 498.657 203.625Z" fill="#9D97AA"/>
<circle cx="303.691" cy="232.191" r="4" fill="#2D9CDB"/>
<path d="M317.264 236.347C317.797 236.347 318.174 235.944 318.174 235.463C318.174 234.956 317.797 234.566 317.264 234.566C316.744 234.566 316.367 234.956 316.367 235.463C316.367 235.944 316.744 236.347 317.264 236.347ZM324.456 237.907H318.71V238.947H324.456V237.907ZM330.09 231.524C330.012 230.12 328.972 229.47 327.542 229.47C326.177 229.47 325.046 230.146 325.046 231.368C325.046 232.577 325.93 232.967 326.957 233.201L327.919 233.422C328.543 233.565 329.011 233.773 329.011 234.371C329.011 235.06 328.4 235.385 327.594 235.385C326.736 235.385 326.073 235.021 326.047 234.085H324.799C324.864 235.671 326.034 236.347 327.633 236.347C329.089 236.347 330.22 235.632 330.22 234.254C330.22 233.058 329.362 232.642 328.257 232.382L327.464 232.2C326.736 232.031 326.242 231.875 326.242 231.277C326.242 230.731 326.827 230.432 327.529 230.432C328.283 230.432 328.855 230.718 328.868 231.524H330.09ZM331.729 236.191H332.925V226.558H331.729V236.191ZM335.549 226.714C335.029 226.714 334.704 227.091 334.704 227.533C334.704 227.962 335.029 228.352 335.549 228.352C336.069 228.352 336.394 227.962 336.394 227.533C336.394 227.091 336.069 226.714 335.549 226.714ZM334.951 236.191H336.147V229.626H334.951V236.191ZM340.941 236.347C342.059 236.347 342.956 235.827 343.515 235.034V236.191H344.646V226.558H343.45V230.679C342.891 229.938 342.033 229.47 340.98 229.47C339.043 229.47 337.639 230.965 337.639 232.928C337.639 234.865 339.03 236.347 340.941 236.347ZM341.188 235.255C339.836 235.255 338.874 234.189 338.874 232.915C338.874 231.628 339.836 230.562 341.188 230.562C342.527 230.562 343.489 231.615 343.489 232.915C343.489 234.202 342.527 235.255 341.188 235.255ZM351.577 234.124C351.213 234.865 350.472 235.32 349.549 235.32C348.327 235.32 347.43 234.449 347.287 233.24H352.929V232.824C352.929 230.965 351.538 229.47 349.549 229.47C347.599 229.47 346.104 231.017 346.104 232.902C346.104 234.8 347.547 236.347 349.536 236.347C351.122 236.347 352.318 235.45 352.76 234.124H351.577ZM349.549 230.497C350.576 230.497 351.447 231.121 351.72 232.252H347.352C347.612 231.225 348.444 230.497 349.549 230.497ZM355.586 232.746C355.586 231.667 356.249 230.666 357.614 230.666C357.757 230.666 357.874 230.679 357.978 230.692V229.561C357.9 229.548 357.77 229.535 357.64 229.535C356.756 229.535 355.989 229.977 355.534 230.848V229.626H354.39V236.191H355.586V232.746ZM361.149 236.191H362.475L364.594 229.236L366.687 236.191H368.013L370.704 227.052H369.417L367.337 234.358L365.205 227.052H364.048L361.877 234.436L359.81 227.052H358.471L361.149 236.191ZM372.757 232.746C372.757 231.667 373.42 230.666 374.785 230.666C374.928 230.666 375.045 230.679 375.149 230.692V229.561C375.071 229.548 374.941 229.535 374.811 229.535C373.927 229.535 373.16 229.977 372.705 230.848V229.626H371.561V236.191H372.757V232.746ZM380.246 235.255V236.191H381.377V231.927C381.377 230.51 380.48 229.47 378.725 229.47C377.191 229.47 376.125 230.484 376.008 231.693H377.152C377.256 231.017 377.828 230.484 378.712 230.484C379.635 230.484 380.207 231.017 380.207 231.784V231.875L377.971 232.395C376.528 232.733 375.852 233.409 375.852 234.488C375.852 235.58 376.775 236.347 378.049 236.347C378.894 236.347 379.726 235.996 380.246 235.255ZM380.207 233.331C380.207 234.371 379.414 235.359 378.27 235.359C377.503 235.359 377.035 235.008 377.035 234.384C377.035 233.838 377.477 233.487 378.27 233.305L380.207 232.85V233.331ZM383.272 229.626V238.947H384.468V235.138C385.027 235.879 385.885 236.347 386.938 236.347C388.875 236.347 390.279 234.852 390.279 232.889C390.279 230.952 388.888 229.47 386.977 229.47C385.872 229.47 384.975 229.977 384.416 230.757V229.626H383.272ZM386.73 230.562C388.082 230.562 389.044 231.628 389.044 232.902C389.044 234.189 388.082 235.255 386.73 235.255C385.391 235.255 384.429 234.202 384.429 232.902C384.429 231.615 385.391 230.562 386.73 230.562ZM391.75 229.626V238.947H392.946V235.138C393.505 235.879 394.363 236.347 395.416 236.347C397.353 236.347 398.757 234.852 398.757 232.889C398.757 230.952 397.366 229.47 395.455 229.47C394.35 229.47 393.453 229.977 392.894 230.757V229.626H391.75ZM395.208 230.562C396.56 230.562 397.522 231.628 397.522 232.902C397.522 234.189 396.56 235.255 395.208 235.255C393.869 235.255 392.907 234.202 392.907 232.902C392.907 231.615 393.869 230.562 395.208 230.562ZM405.18 234.124C404.816 234.865 404.075 235.32 403.152 235.32C401.93 235.32 401.033 234.449 400.89 233.24H406.532V232.824C406.532 230.965 405.141 229.47 403.152 229.47C401.202 229.47 399.707 231.017 399.707 232.902C399.707 234.8 401.15 236.347 403.139 236.347C404.725 236.347 405.921 235.45 406.363 234.124H405.18ZM403.152 230.497C404.179 230.497 405.05 231.121 405.323 232.252H400.955C401.215 231.225 402.047 230.497 403.152 230.497ZM409.19 232.746C409.19 231.667 409.853 230.666 411.218 230.666C411.361 230.666 411.478 230.679 411.582 230.692V229.561C411.504 229.548 411.374 229.535 411.244 229.535C410.36 229.535 409.593 229.977 409.138 230.848V229.626H407.994V236.191H409.19V232.746ZM417.482 237.907H411.736V238.947H417.482V237.907ZM419.906 236.191H421.115L422.87 231.147L424.638 236.191H425.834L428.135 229.626H426.978L425.223 234.787L423.455 229.626H422.311L420.556 234.774L418.801 229.626H417.605L419.906 236.191ZM429.274 236.347C429.807 236.347 430.184 235.944 430.184 235.463C430.184 234.956 429.807 234.566 429.274 234.566C428.754 234.566 428.377 234.956 428.377 235.463C428.377 235.944 428.754 236.347 429.274 236.347ZM432.305 236.347C432.838 236.347 433.215 235.944 433.215 235.463C433.215 234.956 432.838 234.566 432.305 234.566C431.785 234.566 431.408 234.956 431.408 235.463C431.408 235.944 431.785 236.347 432.305 236.347ZM435.336 236.347C435.869 236.347 436.246 235.944 436.246 235.463C436.246 234.956 435.869 234.566 435.336 234.566C434.816 234.566 434.439 234.956 434.439 235.463C434.439 235.944 434.816 236.347 435.336 236.347Z" fill="#DFDFDF"/>
<path d="M459.062 230.211C459.062 227.702 457.281 226.896 455.786 226.896C454.291 226.896 452.51 227.702 452.51 230.211V233.019C452.51 235.541 454.291 236.347 455.786 236.347C457.281 236.347 459.062 235.541 459.062 233.019V230.211ZM457.814 230.224V233.019C457.814 234.527 456.891 235.164 455.773 235.164C454.681 235.164 453.758 234.527 453.758 233.019V230.224C453.758 228.716 454.681 228.079 455.773 228.079C456.891 228.079 457.814 228.716 457.814 230.224ZM467.121 230.211C467.121 227.702 465.34 226.896 463.845 226.896C462.35 226.896 460.569 227.702 460.569 230.211V233.019C460.569 235.541 462.35 236.347 463.845 236.347C465.34 236.347 467.121 235.541 467.121 233.019V230.211ZM465.873 230.224V233.019C465.873 234.527 464.95 235.164 463.832 235.164C462.74 235.164 461.817 234.527 461.817 233.019V230.224C461.817 228.716 462.74 228.079 463.832 228.079C464.95 228.079 465.873 228.716 465.873 230.224ZM469.563 231.251C470.096 231.251 470.473 230.848 470.473 230.367C470.473 229.86 470.096 229.47 469.563 229.47C469.043 229.47 468.666 229.86 468.666 230.367C468.666 230.848 469.043 231.251 469.563 231.251ZM469.563 236.347C470.096 236.347 470.473 235.944 470.473 235.463C470.473 234.956 470.096 234.566 469.563 234.566C469.043 234.566 468.666 234.956 468.666 235.463C468.666 235.944 469.043 236.347 469.563 236.347ZM473.327 236.191H474.575V227.052H471.663L471.364 228.196H473.327V236.191ZM479.483 236.347C481.485 236.347 482.655 235.047 482.655 233.604C482.655 232.642 482.122 231.758 481.173 231.277C481.901 230.822 482.291 230.068 482.291 229.288C482.291 228.04 481.264 226.896 479.496 226.896C477.715 226.896 476.688 228.04 476.688 229.288C476.688 230.055 477.078 230.809 477.793 231.264C476.831 231.745 476.298 232.642 476.298 233.604C476.298 235.047 477.468 236.347 479.483 236.347ZM479.496 230.822C478.404 230.822 477.832 230.107 477.832 229.379C477.832 228.651 478.404 227.949 479.496 227.949C480.575 227.949 481.147 228.651 481.147 229.379C481.147 230.107 480.575 230.822 479.496 230.822ZM479.483 235.255C478.235 235.255 477.533 234.423 477.533 233.552C477.533 232.642 478.235 231.836 479.483 231.836C480.731 231.836 481.433 232.642 481.433 233.552C481.433 234.423 480.731 235.255 479.483 235.255Z" fill="#9D97AA"/>
<path fill-rule="evenodd" clip-rule="evenodd" d="M495.691 238.591C499.226 238.591 502.091 235.726 502.091 232.191C502.091 228.656 499.226 225.791 495.691 225.791C492.156 225.791 489.291 228.656 489.291 232.191C489.291 235.726 492.156 238.591 495.691 238.591ZM498.657 231.625L496.257 229.225C495.944 228.913 495.438 228.913 495.125 229.225C494.813 229.538 494.813 230.044 495.125 230.357L496.16 231.391L493.291 231.391C492.849 231.391 492.491 231.749 492.491 232.191C492.491 232.633 492.849 232.991 493.291 232.991H496.16L495.125 234.025C494.813 234.338 494.813 234.844 495.125 235.157C495.438 235.469 495.944 235.469 496.257 235.157L498.657 232.757C498.969 232.444 498.969 231.938 498.657 231.625Z" fill="#9D97AA"/>
<circle cx="303.691" cy="260.191" r="4" fill="#2D9CDB"/>
<path d="M317.264 264.347C317.797 264.347 318.174 263.944 318.174 263.463C318.174 262.956 317.797 262.566 317.264 262.566C316.744 262.566 316.367 262.956 316.367 263.463C316.367 263.944 316.744 264.347 317.264 264.347ZM324.456 265.907H318.71V266.947H324.456V265.907ZM330.09 259.524C330.012 258.12 328.972 257.47 327.542 257.47C326.177 257.47 325.046 258.146 325.046 259.368C325.046 260.577 325.93 260.967 326.957 261.201L327.919 261.422C328.543 261.565 329.011 261.773 329.011 262.371C329.011 263.06 328.4 263.385 327.594 263.385C326.736 263.385 326.073 263.021 326.047 262.085H324.799C324.864 263.671 326.034 264.347 327.633 264.347C329.089 264.347 330.22 263.632 330.22 262.254C330.22 261.058 329.362 260.642 328.257 260.382L327.464 260.2C326.736 260.031 326.242 259.875 326.242 259.277C326.242 258.731 326.827 258.432 327.529 258.432C328.283 258.432 328.855 258.718 328.868 259.524H330.09ZM331.729 264.191H332.925V254.558H331.729V264.191ZM335.549 254.714C335.029 254.714 334.704 255.091 334.704 255.533C334.704 255.962 335.029 256.352 335.549 256.352C336.069 256.352 336.394 255.962 336.394 255.533C336.394 255.091 336.069 254.714 335.549 254.714ZM334.951 264.191H336.147V257.626H334.951V264.191ZM340.941 264.347C342.059 264.347 342.956 263.827 343.515 263.034V264.191H344.646V254.558H343.45V258.679C342.891 257.938 342.033 257.47 340.98 257.47C339.043 257.47 337.639 258.965 337.639 260.928C337.639 262.865 339.03 264.347 340.941 264.347ZM341.188 263.255C339.836 263.255 338.874 262.189 338.874 260.915C338.874 259.628 339.836 258.562 341.188 258.562C342.527 258.562 343.489 259.615 343.489 260.915C343.489 262.202 342.527 263.255 341.188 263.255ZM351.577 262.124C351.213 262.865 350.472 263.32 349.549 263.32C348.327 263.32 347.43 262.449 347.287 261.24H352.929V260.824C352.929 258.965 351.538 257.47 349.549 257.47C347.599 257.47 346.104 259.017 346.104 260.902C346.104 262.8 347.547 264.347 349.536 264.347C351.122 264.347 352.318 263.45 352.76 262.124H351.577ZM349.549 258.497C350.576 258.497 351.447 259.121 351.72 260.252H347.352C347.612 259.225 348.444 258.497 349.549 258.497ZM355.586 260.746C355.586 259.667 356.249 258.666 357.614 258.666C357.757 258.666 357.874 258.679 357.978 258.692V257.561C357.9 257.548 357.77 257.535 357.64 257.535C356.756 257.535 355.989 257.977 355.534 258.848V257.626H354.39V264.191H355.586V260.746ZM361.149 264.191H362.475L364.594 257.236L366.687 264.191H368.013L370.704 255.052H369.417L367.337 262.358L365.205 255.052H364.048L361.877 262.436L359.81 255.052H358.471L361.149 264.191ZM372.757 260.746C372.757 259.667 373.42 258.666 374.785 258.666C374.928 258.666 375.045 258.679 375.149 258.692V257.561C375.071 257.548 374.941 257.535 374.811 257.535C373.927 257.535 373.16 257.977 372.705 258.848V257.626H371.561V264.191H372.757V260.746ZM380.246 263.255V264.191H381.377V259.927C381.377 258.51 380.48 257.47 378.725 257.47C377.191 257.47 376.125 258.484 376.008 259.693H377.152C377.256 259.017 377.828 258.484 378.712 258.484C379.635 258.484 380.207 259.017 380.207 259.784V259.875L377.971 260.395C376.528 260.733 375.852 261.409 375.852 262.488C375.852 263.58 376.775 264.347 378.049 264.347C378.894 264.347 379.726 263.996 380.246 263.255ZM380.207 261.331C380.207 262.371 379.414 263.359 378.27 263.359C377.503 263.359 377.035 263.008 377.035 262.384C377.035 261.838 377.477 261.487 378.27 261.305L380.207 260.85V261.331ZM383.272 257.626V266.947H384.468V263.138C385.027 263.879 385.885 264.347 386.938 264.347C388.875 264.347 390.279 262.852 390.279 260.889C390.279 258.952 388.888 257.47 386.977 257.47C385.872 257.47 384.975 257.977 384.416 258.757V257.626H383.272ZM386.73 258.562C388.082 258.562 389.044 259.628 389.044 260.902C389.044 262.189 388.082 263.255 386.73 263.255C385.391 263.255 384.429 262.202 384.429 260.902C384.429 259.615 385.391 258.562 386.73 258.562ZM391.75 257.626V266.947H392.946V263.138C393.505 263.879 394.363 264.347 395.416 264.347C397.353 264.347 398.757 262.852 398.757 260.889C398.757 258.952 397.366 257.47 395.455 257.47C394.35 257.47 393.453 257.977 392.894 258.757V257.626H391.75ZM395.208 258.562C396.56 258.562 397.522 259.628 397.522 260.902C397.522 262.189 396.56 263.255 395.208 263.255C393.869 263.255 392.907 262.202 392.907 260.902C392.907 259.615 393.869 258.562 395.208 258.562ZM405.18 262.124C404.816 262.865 404.075 263.32 403.152 263.32C401.93 263.32 401.033 262.449 400.89 261.24H406.532V260.824C406.532 258.965 405.141 257.47 403.152 257.47C401.202 257.47 399.707 259.017 399.707 260.902C399.707 262.8 401.15 264.347 403.139 264.347C404.725 264.347 405.921 263.45 406.363 262.124H405.18ZM403.152 258.497C404.179 258.497 405.05 259.121 405.323 260.252H400.955C401.215 259.225 402.047 258.497 403.152 258.497ZM409.19 260.746C409.19 259.667 409.853 258.666 411.218 258.666C411.361 258.666 411.478 258.679 411.582 258.692V257.561C411.504 257.548 411.374 257.535 411.244 257.535C410.36 257.535 409.593 257.977 409.138 258.848V257.626H407.994V264.191H409.19V260.746ZM417.482 265.907H411.736V266.947H417.482V265.907ZM421.388 255.052L417.657 261.266V262.215H422.389V264.191H423.598V262.215H424.573V261.097H423.598V258.757L422.389 259.043V261.097H419.152L422.831 255.052H421.388ZM426.627 261.591H425.366C425.444 263.008 426.549 264.347 428.603 264.347C430.657 264.347 431.736 262.982 431.736 261.643C431.736 260.824 431.411 259.797 430.111 259.342C431.177 258.874 431.437 257.964 431.437 257.262C431.437 256.105 430.488 254.896 428.59 254.896C426.666 254.896 425.639 256.183 425.587 257.483H426.835C426.874 256.69 427.511 256.04 428.551 256.04C429.578 256.04 430.202 256.677 430.202 257.444C430.202 258.328 429.552 258.926 428.629 258.926H427.628V259.849H428.59C429.695 259.849 430.475 260.447 430.475 261.513C430.475 262.423 429.734 263.19 428.59 263.19C427.433 263.19 426.679 262.449 426.627 261.591Z" fill="#DFDFDF"/>
<path d="M459.062 258.211C459.062 255.702 457.281 254.896 455.786 254.896C454.291 254.896 452.51 255.702 452.51 258.211V261.019C452.51 263.541 454.291 264.347 455.786 264.347C457.281 264.347 459.062 263.541 459.062 261.019V258.211ZM457.814 258.224V261.019C457.814 262.527 456.891 263.164 455.773 263.164C454.681 263.164 453.758 262.527 453.758 261.019V258.224C453.758 256.716 454.681 256.079 455.773 256.079C456.891 256.079 457.814 256.716 457.814 258.224ZM467.121 258.211C467.121 255.702 465.34 254.896 463.845 254.896C462.35 254.896 460.569 255.702 460.569 258.211V261.019C460.569 263.541 462.35 264.347 463.845 264.347C465.34 264.347 467.121 263.541 467.121 261.019V258.211ZM465.873 258.224V261.019C465.873 262.527 464.95 263.164 463.832 263.164C462.74 263.164 461.817 262.527 461.817 261.019V258.224C461.817 256.716 462.74 256.079 463.832 256.079C464.95 256.079 465.873 256.716 465.873 258.224ZM469.563 259.251C470.096 259.251 470.473 258.848 470.473 258.367C470.473 257.86 470.096 257.47 469.563 257.47C469.043 257.47 468.666 257.86 468.666 258.367C468.666 258.848 469.043 259.251 469.563 259.251ZM469.563 264.347C470.096 264.347 470.473 263.944 470.473 263.463C470.473 262.956 470.096 262.566 469.563 262.566C469.043 262.566 468.666 262.956 468.666 263.463C468.666 263.944 469.043 264.347 469.563 264.347ZM473.327 264.191H474.575V255.052H471.663L471.364 256.196H473.327V264.191ZM479.483 264.347C481.485 264.347 482.655 263.047 482.655 261.604C482.655 260.642 482.122 259.758 481.173 259.277C481.901 258.822 482.291 258.068 482.291 257.288C482.291 256.04 481.264 254.896 479.496 254.896C477.715 254.896 476.688 256.04 476.688 257.288C476.688 258.055 477.078 258.809 477.793 259.264C476.831 259.745 476.298 260.642 476.298 261.604C476.298 263.047 477.468 264.347 479.483 264.347ZM479.496 258.822C478.404 258.822 477.832 258.107 477.832 257.379C477.832 256.651 478.404 255.949 479.496 255.949C480.575 255.949 481.147 256.651 481.147 257.379C481.147 258.107 480.575 258.822 479.496 258.822ZM479.483 263.255C478.235 263.255 477.533 262.423 477.533 261.552C477.533 260.642 478.235 259.836 479.483 259.836C480.731 259.836 481.433 260.642 481.433 261.552C481.433 262.423 480.731 263.255 479.483 263.255Z" fill="#9D97AA"/>
<path fill-rule="evenodd" clip-rule="evenodd" d="M495.691 266.591C499.226 266.591 502.091 263.726 502.091 260.191C502.091 256.656 499.226 253.791 495.691 253.791C492.156 253.791 489.291 256.656 489.291 260.191C489.291 263.726 492.156 266.591 495.691 266.591ZM498.657 259.625L496.257 257.225C495.944 256.913 495.438 256.913 495.125 257.225C494.813 257.538 494.813 258.044 495.125 258.357L496.16 259.391L493.291 259.391C492.849 259.391 492.491 259.749 492.491 260.191C492.491 260.633 492.849 260.991 493.291 260.991H496.16L495.125 262.025C494.813 262.338 494.813 262.844 495.125 263.157C495.438 263.469 495.944 263.469 496.257 263.157L498.657 260.757C498.969 260.444 498.969 259.938 498.657 259.625Z" fill="#9D97AA"/>
<path d="M511.691 277.191H287.691V279.191H511.691V277.191Z" fill="#30294E" mask="url(#path-115-inside-3_3129_20028)"/>
</g>
<rect x="288.072" y="130.572" width="223.239" height="147.239" rx="8.07416" stroke="#30294E" stroke-width="0.760815"/>
</g>
<defs>
<filter id="filter0_i_3129_20028" x="92" y="210.191" width="39" height="20" filterUnits="userSpaceOnUse" color-interpolation-filters="sRGB">
<feFlood flood-opacity="0" result="BackgroundImageFix"/>
<feBlend mode="normal" in="SourceGraphic" in2="BackgroundImageFix" result="shape"/>
<feColorMatrix in="SourceAlpha" type="matrix" values="0 0 0 0 0 0 0 0 0 0 0 0 0 0 0 0 0 0 127 0" result="hardAlpha"/>
<feOffset dy="-1"/>
<feComposite in2="hardAlpha" operator="arithmetic" k2="-1" k3="1"/>
<feColorMatrix type="matrix" values="0 0 0 0 0 0 0 0 0 0 0 0 0 0 0 0 0 0 0.1 0"/>
<feBlend mode="normal" in2="shape" result="effect1_innerShadow_3129_20028"/>
</filter>
<filter id="filter1_i_3129_20028" x="452" y="208.191" width="24" height="24" filterUnits="userSpaceOnUse" color-interpolation-filters="sRGB">
<feFlood flood-opacity="0" result="BackgroundImageFix"/>
<feBlend mode="normal" in="SourceGraphic" in2="BackgroundImageFix" result="shape"/>
<feColorMatrix in="SourceAlpha" type="matrix" values="0 0 0 0 0 0 0 0 0 0 0 0 0 0 0 0 0 0 127 0" result="hardAlpha"/>
<feOffset dy="-1"/>
<feComposite in2="hardAlpha" operator="arithmetic" k2="-1" k3="1"/>
<feColorMatrix type="matrix" values="0 0 0 0 0 0 0 0 0 0 0 0 0 0 0 0 0 0 0.32 0"/>
<feBlend mode="normal" in2="shape" result="effect1_innerShadow_3129_20028"/>
</filter>
<filter id="filter2_i_3129_20028" x="480" y="208.191" width="24" height="24" filterUnits="userSpaceOnUse" color-interpolation-filters="sRGB">
<feFlood flood-opacity="0" result="BackgroundImageFix"/>
<feBlend mode="normal" in="SourceGraphic" in2="BackgroundImageFix" result="shape"/>
<feColorMatrix in="SourceAlpha" type="matrix" values="0 0 0 0 0 0 0 0 0 0 0 0 0 0 0 0 0 0 127 0" result="hardAlpha"/>
<feOffset dy="-1"/>
<feComposite in2="hardAlpha" operator="arithmetic" k2="-1" k3="1"/>
<feColorMatrix type="matrix" values="0 0 0 0 0 0 0 0 0 0 0 0 0 0 0 0 0 0 0.1 0"/>
<feBlend mode="normal" in2="shape" result="effect1_innerShadow_3129_20028"/>
</filter>
<filter id="filter3_d_3129_20028" x="303.217" y="301.516" width="20.9492" height="21.1172" filterUnits="userSpaceOnUse" color-interpolation-filters="sRGB">
<feFlood flood-opacity="0" result="BackgroundImageFix"/>
<feColorMatrix in="SourceAlpha" type="matrix" values="0 0 0 0 0 0 0 0 0 0 0 0 0 0 0 0 0 0 127 0" result="hardAlpha"/>
<feOffset dy="1"/>
<feGaussianBlur stdDeviation="1"/>
<feColorMatrix type="matrix" values="0 0 0 0 0 0 0 0 0 0 0 0 0 0 0 0 0 0 0.4 0"/>
<feBlend mode="normal" in2="BackgroundImageFix" result="effect1_dropShadow_3129_20028"/>
<feBlend mode="normal" in="SourceGraphic" in2="effect1_dropShadow_3129_20028" result="shape"/>
</filter>
<filter id="filter4_d_3129_20028" x="230.623" y="77.3504" width="338.137" height="262.137" filterUnits="userSpaceOnUse" color-interpolation-filters="sRGB">
<feFlood flood-opacity="0" result="BackgroundImageFix"/>
<feColorMatrix in="SourceAlpha" type="matrix" values="0 0 0 0 0 0 0 0 0 0 0 0 0 0 0 0 0 0 127 0" result="hardAlpha"/>
<feOffset dy="4.22728"/>
<feGaussianBlur stdDeviation="28.5342"/>
<feComposite in2="hardAlpha" operator="out"/>
<feColorMatrix type="matrix" values="0 0 0 0 0.423529 0 0 0 0 0.215686 0 0 0 0 0.956863 0 0 0 0.1 0"/>
<feBlend mode="normal" in2="BackgroundImageFix" result="effect1_dropShadow_3129_20028"/>
<feBlend mode="normal" in="SourceGraphic" in2="effect1_dropShadow_3129_20028" result="shape"/>
</filter>
<linearGradient id="paint0_linear_3129_20028" x1="855" y1="287.191" x2="855" y2="574.191" gradientUnits="userSpaceOnUse">
<stop stop-color="#0D0225" stop-opacity="0"/>
<stop offset="1" stop-color="#0D0225"/>
</linearGradient>
<clipPath id="clip0_3129_20028">
<rect y="0.191406" width="570" height="379" rx="8.45457" fill="white"/>
</clipPath>
<clipPath id="clip1_3129_20028">
<rect width="570" height="37" fill="white" transform="translate(0 204.191)"/>
</clipPath>
<clipPath id="clip2_3129_20028">
<rect width="570" height="20" fill="white" transform="translate(0 241.191)"/>
</clipPath>
<clipPath id="clip3_3129_20028">
<rect x="287.691" y="130.191" width="224" height="148" rx="8.45457" fill="white"/>
</clipPath>
</defs>
</svg>
