<svg width="18" height="18" viewBox="0 0 18 18" fill="none" xmlns="http://www.w3.org/2000/svg">
<path fill-rule="evenodd" clip-rule="evenodd" d="M8.9999 2.7002C9.2386 2.7002 9.46752 2.79502 9.6363 2.9638L12.3363 5.6638C12.6878 6.01527 12.6878 6.58512 12.3363 6.93659C11.9848 7.28806 11.415 7.28806 11.0635 6.93659L8.9999 4.87299L6.9363 6.93659C6.58483 7.28806 6.01498 7.28806 5.66351 6.93659C5.31203 6.58512 5.31203 6.01527 5.66351 5.6638L8.36351 2.9638C8.53229 2.79502 8.76121 2.7002 8.9999 2.7002ZM5.66351 11.0638C6.01498 10.7123 6.58483 10.7123 6.9363 11.0638L8.9999 13.1274L11.0635 11.0638C11.415 10.7123 11.9848 10.7123 12.3363 11.0638C12.6878 11.4153 12.6878 11.9851 12.3363 12.3366L9.6363 15.0366C9.28483 15.3881 8.71498 15.3881 8.36351 15.0366L5.66351 12.3366C5.31203 11.9851 5.31203 11.4153 5.66351 11.0638Z" fill="#645D74"/>
</svg>
