<svg width="732" height="447" viewBox="0 0 732 447" fill="none" xmlns="http://www.w3.org/2000/svg">
<rect x="123.41" y="132.333" width="484.556" height="307.843" rx="9.99084" fill="#0D0225"/>
<rect width="484.556" height="1.87328" transform="translate(123.41 184.785)" fill="#30294E"/>
<path d="M153.755 161.795H156.915V163.32H151.832V153.731H153.755V161.795ZM157.643 159.487C157.643 158.718 157.794 158.036 158.096 157.44C158.408 156.845 158.824 156.387 159.346 156.066C159.877 155.746 160.468 155.586 161.118 155.586C161.686 155.586 162.181 155.7 162.602 155.929C163.033 156.158 163.376 156.447 163.632 156.795V155.709H165.569V163.32H163.632V162.207C163.385 162.564 163.042 162.862 162.602 163.1C162.172 163.329 161.673 163.443 161.105 163.443C160.464 163.443 159.877 163.279 159.346 162.949C158.824 162.619 158.408 162.157 158.096 161.561C157.794 160.957 157.643 160.266 157.643 159.487ZM163.632 159.515C163.632 159.047 163.541 158.649 163.358 158.319C163.174 157.981 162.927 157.724 162.616 157.55C162.304 157.367 161.97 157.275 161.613 157.275C161.256 157.275 160.926 157.362 160.624 157.536C160.322 157.71 160.074 157.967 159.882 158.306C159.699 158.635 159.607 159.029 159.607 159.487C159.607 159.945 159.699 160.348 159.882 160.696C160.074 161.035 160.322 161.296 160.624 161.479C160.935 161.662 161.265 161.754 161.613 161.754C161.97 161.754 162.304 161.667 162.616 161.493C162.927 161.31 163.174 161.053 163.358 160.723C163.541 160.385 163.632 159.982 163.632 159.515ZM169.371 156.891C169.618 156.488 169.939 156.172 170.333 155.943C170.736 155.714 171.193 155.599 171.706 155.599V157.619H171.198C170.594 157.619 170.136 157.761 169.824 158.045C169.522 158.329 169.371 158.823 169.371 159.528V163.32H167.448V155.709H169.371V156.891ZM175.983 155.586C176.551 155.586 177.05 155.7 177.48 155.929C177.911 156.149 178.249 156.437 178.497 156.795V155.709H180.434V163.375C180.434 164.08 180.292 164.707 180.008 165.257C179.724 165.815 179.298 166.255 178.73 166.576C178.162 166.905 177.476 167.07 176.67 167.07C175.589 167.07 174.701 166.818 174.005 166.315C173.318 165.811 172.928 165.124 172.837 164.254H174.746C174.847 164.602 175.062 164.877 175.392 165.078C175.731 165.289 176.138 165.394 176.615 165.394C177.173 165.394 177.627 165.225 177.975 164.886C178.323 164.556 178.497 164.052 178.497 163.375V162.193C178.249 162.551 177.906 162.848 177.466 163.086C177.036 163.324 176.541 163.443 175.983 163.443C175.342 163.443 174.756 163.279 174.224 162.949C173.693 162.619 173.272 162.157 172.961 161.561C172.658 160.957 172.507 160.266 172.507 159.487C172.507 158.718 172.658 158.036 172.961 157.44C173.272 156.845 173.689 156.387 174.211 156.066C174.742 155.746 175.332 155.586 175.983 155.586ZM178.497 159.515C178.497 159.047 178.405 158.649 178.222 158.319C178.039 157.981 177.791 157.724 177.48 157.55C177.169 157.367 176.834 157.275 176.477 157.275C176.12 157.275 175.79 157.362 175.488 157.536C175.186 157.71 174.939 157.967 174.746 158.306C174.563 158.635 174.472 159.029 174.472 159.487C174.472 159.945 174.563 160.348 174.746 160.696C174.939 161.035 175.186 161.296 175.488 161.479C175.8 161.662 176.129 161.754 176.477 161.754C176.834 161.754 177.169 161.667 177.48 161.493C177.791 161.31 178.039 161.053 178.222 160.723C178.405 160.385 178.497 159.982 178.497 159.515ZM189.387 159.35C189.387 159.624 189.368 159.872 189.332 160.092H183.768C183.814 160.641 184.006 161.071 184.345 161.383C184.684 161.694 185.101 161.85 185.595 161.85C186.31 161.85 186.818 161.543 187.12 160.93H189.194C188.975 161.662 188.553 162.267 187.931 162.743C187.308 163.21 186.543 163.443 185.636 163.443C184.904 163.443 184.244 163.283 183.658 162.963C183.081 162.633 182.628 162.17 182.298 161.575C181.978 160.98 181.817 160.293 181.817 159.515C181.817 158.727 181.978 158.036 182.298 157.44C182.619 156.845 183.068 156.387 183.645 156.066C184.222 155.746 184.885 155.586 185.636 155.586C186.36 155.586 187.006 155.741 187.573 156.053C188.15 156.364 188.595 156.808 188.906 157.385C189.227 157.953 189.387 158.608 189.387 159.35ZM187.395 158.8C187.386 158.306 187.207 157.912 186.859 157.619C186.511 157.317 186.085 157.165 185.582 157.165C185.105 157.165 184.702 157.312 184.373 157.605C184.052 157.889 183.855 158.287 183.782 158.8H187.395ZM193.703 163.443C193.08 163.443 192.521 163.334 192.027 163.114C191.532 162.885 191.139 162.578 190.846 162.193C190.562 161.809 190.406 161.383 190.378 160.916H192.315C192.352 161.209 192.494 161.452 192.741 161.644C192.998 161.836 193.314 161.932 193.689 161.932C194.056 161.932 194.339 161.859 194.541 161.713C194.752 161.566 194.857 161.378 194.857 161.149C194.857 160.902 194.729 160.719 194.472 160.6C194.225 160.472 193.827 160.334 193.277 160.188C192.709 160.05 192.242 159.908 191.876 159.762C191.519 159.615 191.207 159.391 190.942 159.089C190.685 158.786 190.557 158.379 190.557 157.866C190.557 157.445 190.676 157.06 190.914 156.712C191.161 156.364 191.51 156.089 191.958 155.888C192.416 155.686 192.952 155.586 193.566 155.586C194.472 155.586 195.196 155.815 195.736 156.273C196.276 156.721 196.574 157.33 196.629 158.1H194.788C194.761 157.797 194.632 157.559 194.404 157.385C194.184 157.202 193.886 157.111 193.511 157.111C193.163 157.111 192.892 157.175 192.7 157.303C192.517 157.431 192.425 157.61 192.425 157.839C192.425 158.095 192.554 158.292 192.81 158.429C193.066 158.558 193.465 158.69 194.005 158.828C194.555 158.965 195.008 159.107 195.365 159.254C195.722 159.4 196.029 159.629 196.286 159.94C196.551 160.243 196.689 160.646 196.698 161.149C196.698 161.589 196.574 161.983 196.327 162.331C196.089 162.679 195.741 162.953 195.283 163.155C194.834 163.347 194.307 163.443 193.703 163.443ZM200.516 157.289V160.971C200.516 161.227 200.575 161.415 200.694 161.534C200.822 161.644 201.033 161.699 201.326 161.699H202.219V163.32H201.01C199.389 163.32 198.579 162.532 198.579 160.957V157.289H197.672V155.709H198.579V153.827H200.516V155.709H202.219V157.289H200.516ZM206.409 158.512C206.409 157.568 206.619 156.726 207.041 155.984C207.471 155.233 208.053 154.652 208.785 154.239C209.527 153.818 210.356 153.607 211.272 153.607C212.343 153.607 213.282 153.882 214.088 154.432C214.894 154.981 215.457 155.741 215.778 156.712H213.566C213.346 156.254 213.035 155.911 212.632 155.682C212.238 155.453 211.78 155.338 211.258 155.338C210.699 155.338 210.2 155.471 209.761 155.737C209.33 155.993 208.991 156.36 208.744 156.836C208.506 157.312 208.387 157.871 208.387 158.512C208.387 159.144 208.506 159.702 208.744 160.188C208.991 160.664 209.33 161.035 209.761 161.3C210.2 161.557 210.699 161.685 211.258 161.685C211.78 161.685 212.238 161.571 212.632 161.342C213.035 161.104 213.346 160.756 213.566 160.298H215.778C215.457 161.278 214.894 162.042 214.088 162.592C213.291 163.132 212.352 163.402 211.272 163.402C210.356 163.402 209.527 163.196 208.785 162.784C208.053 162.363 207.471 161.781 207.041 161.039C206.619 160.298 206.409 159.455 206.409 158.512ZM220.8 163.443C220.067 163.443 219.408 163.283 218.821 162.963C218.235 162.633 217.773 162.17 217.434 161.575C217.104 160.98 216.939 160.293 216.939 159.515C216.939 158.736 217.109 158.049 217.448 157.454C217.796 156.859 218.267 156.401 218.863 156.08C219.458 155.751 220.122 155.586 220.855 155.586C221.587 155.586 222.251 155.751 222.846 156.08C223.442 156.401 223.909 156.859 224.248 157.454C224.596 158.049 224.77 158.736 224.77 159.515C224.77 160.293 224.591 160.98 224.234 161.575C223.886 162.17 223.41 162.633 222.805 162.963C222.21 163.283 221.541 163.443 220.8 163.443ZM220.8 161.767C221.148 161.767 221.473 161.685 221.775 161.52C222.086 161.346 222.334 161.09 222.517 160.751C222.7 160.412 222.792 160 222.792 159.515C222.792 158.791 222.599 158.237 222.215 157.852C221.839 157.459 221.377 157.262 220.827 157.262C220.278 157.262 219.815 157.459 219.44 157.852C219.073 158.237 218.89 158.791 218.89 159.515C218.89 160.238 219.069 160.797 219.426 161.191C219.792 161.575 220.25 161.767 220.8 161.767ZM230.398 155.599C231.305 155.599 232.037 155.888 232.596 156.465C233.155 157.033 233.434 157.829 233.434 158.855V163.32H231.511V159.116C231.511 158.512 231.359 158.049 231.057 157.729C230.755 157.399 230.343 157.234 229.821 157.234C229.29 157.234 228.868 157.399 228.557 157.729C228.255 158.049 228.104 158.512 228.104 159.116V163.32H226.18V155.709H228.104V156.657C228.36 156.327 228.685 156.071 229.079 155.888C229.482 155.696 229.922 155.599 230.398 155.599ZM237.502 157.289V160.971C237.502 161.227 237.561 161.415 237.681 161.534C237.809 161.644 238.019 161.699 238.312 161.699H239.205V163.32H237.996C236.375 163.32 235.565 162.532 235.565 160.957V157.289H234.658V155.709H235.565V153.827H237.502V155.709H239.205V157.289H237.502ZM247.663 159.35C247.663 159.624 247.645 159.872 247.608 160.092H242.045C242.091 160.641 242.283 161.071 242.622 161.383C242.961 161.694 243.377 161.85 243.872 161.85C244.586 161.85 245.095 161.543 245.397 160.93H247.471C247.251 161.662 246.83 162.267 246.207 162.743C245.585 163.21 244.82 163.443 243.913 163.443C243.18 163.443 242.521 163.283 241.935 162.963C241.358 162.633 240.905 162.17 240.575 161.575C240.254 160.98 240.094 160.293 240.094 159.515C240.094 158.727 240.254 158.036 240.575 157.44C240.895 156.845 241.344 156.387 241.921 156.066C242.498 155.746 243.162 155.586 243.913 155.586C244.637 155.586 245.282 155.741 245.85 156.053C246.427 156.364 246.871 156.808 247.183 157.385C247.503 157.953 247.663 158.608 247.663 159.35ZM245.672 158.8C245.662 158.306 245.484 157.912 245.136 157.619C244.788 157.317 244.362 157.165 243.858 157.165C243.382 157.165 242.979 157.312 242.649 157.605C242.329 157.889 242.132 158.287 242.059 158.8H245.672ZM253.285 155.599C254.191 155.599 254.924 155.888 255.483 156.465C256.041 157.033 256.321 157.829 256.321 158.855V163.32H254.397V159.116C254.397 158.512 254.246 158.049 253.944 157.729C253.642 157.399 253.23 157.234 252.708 157.234C252.176 157.234 251.755 157.399 251.444 157.729C251.142 158.049 250.99 158.512 250.99 159.116V163.32H249.067V155.709H250.99V156.657C251.247 156.327 251.572 156.071 251.966 155.888C252.369 155.696 252.808 155.599 253.285 155.599ZM260.389 157.289V160.971C260.389 161.227 260.448 161.415 260.567 161.534C260.695 161.644 260.906 161.699 261.199 161.699H262.092V163.32H260.883C259.262 163.32 258.452 162.532 258.452 160.957V157.289H257.545V155.709H258.452V153.827H260.389V155.709H262.092V157.289H260.389ZM266.965 157.289H265.632V163.32H263.681V157.289H262.816V155.709H263.681V155.325C263.681 154.391 263.947 153.704 264.478 153.264C265.009 152.824 265.811 152.618 266.882 152.646V154.267C266.415 154.258 266.09 154.336 265.907 154.5C265.724 154.665 265.632 154.963 265.632 155.393V155.709H266.965V157.289ZM275.396 155.709V163.32H273.459V162.358C273.211 162.688 272.886 162.949 272.483 163.141C272.09 163.324 271.659 163.416 271.192 163.416C270.597 163.416 270.07 163.292 269.612 163.045C269.154 162.789 268.793 162.418 268.527 161.932C268.271 161.438 268.142 160.852 268.142 160.174V155.709H270.066V159.899C270.066 160.504 270.217 160.971 270.519 161.3C270.821 161.621 271.233 161.781 271.755 161.781C272.286 161.781 272.703 161.621 273.005 161.3C273.308 160.971 273.459 160.504 273.459 159.899V155.709H275.396ZM279.217 153.154V163.32H277.293V153.154H279.217ZM291.382 156.698C291.382 157.211 291.259 157.692 291.011 158.141C290.773 158.59 290.393 158.951 289.871 159.226C289.358 159.501 288.708 159.638 287.921 159.638H286.313V163.32H284.39V153.731H287.921C288.662 153.731 289.294 153.859 289.816 154.116C290.338 154.372 290.728 154.725 290.984 155.174C291.25 155.622 291.382 156.131 291.382 156.698ZM287.838 158.086C288.369 158.086 288.763 157.967 289.02 157.729C289.276 157.481 289.404 157.138 289.404 156.698C289.404 155.764 288.882 155.297 287.838 155.297H286.313V158.086H287.838ZM292.253 159.487C292.253 158.718 292.404 158.036 292.707 157.44C293.018 156.845 293.435 156.387 293.957 156.066C294.488 155.746 295.079 155.586 295.729 155.586C296.297 155.586 296.791 155.7 297.213 155.929C297.643 156.158 297.986 156.447 298.243 156.795V155.709H300.18V163.32H298.243V162.207C297.996 162.564 297.652 162.862 297.213 163.1C296.782 163.329 296.283 163.443 295.715 163.443C295.074 163.443 294.488 163.279 293.957 162.949C293.435 162.619 293.018 162.157 292.707 161.561C292.404 160.957 292.253 160.266 292.253 159.487ZM298.243 159.515C298.243 159.047 298.151 158.649 297.968 158.319C297.785 157.981 297.538 157.724 297.226 157.55C296.915 157.367 296.581 157.275 296.223 157.275C295.866 157.275 295.537 157.362 295.234 157.536C294.932 157.71 294.685 157.967 294.493 158.306C294.309 158.635 294.218 159.029 294.218 159.487C294.218 159.945 294.309 160.348 294.493 160.696C294.685 161.035 294.932 161.296 295.234 161.479C295.546 161.662 295.875 161.754 296.223 161.754C296.581 161.754 296.915 161.667 297.226 161.493C297.538 161.31 297.785 161.053 297.968 160.723C298.151 160.385 298.243 159.982 298.243 159.515ZM303.034 154.803C302.695 154.803 302.411 154.697 302.182 154.487C301.962 154.267 301.852 153.997 301.852 153.676C301.852 153.356 301.962 153.09 302.182 152.879C302.411 152.66 302.695 152.55 303.034 152.55C303.372 152.55 303.652 152.66 303.872 152.879C304.1 153.09 304.215 153.356 304.215 153.676C304.215 153.997 304.1 154.267 303.872 154.487C303.652 154.697 303.372 154.803 303.034 154.803ZM303.981 155.709V163.32H302.058V155.709H303.981ZM310.099 155.599C311.006 155.599 311.738 155.888 312.297 156.465C312.856 157.033 313.135 157.829 313.135 158.855V163.32H311.212V159.116C311.212 158.512 311.061 158.049 310.758 157.729C310.456 157.399 310.044 157.234 309.522 157.234C308.991 157.234 308.57 157.399 308.258 157.729C307.956 158.049 307.805 158.512 307.805 159.116V163.32H305.882V155.709H307.805V156.657C308.061 156.327 308.386 156.071 308.78 155.888C309.183 155.696 309.623 155.599 310.099 155.599ZM317.203 157.289V160.971C317.203 161.227 317.263 161.415 317.382 161.534C317.51 161.644 317.72 161.699 318.014 161.699H318.906V163.32H317.698C316.077 163.32 315.266 162.532 315.266 160.957V157.289H314.359V155.709H315.266V153.827H317.203V155.709H318.906V157.289H317.203ZM326.888 166.026C325.999 165.165 325.308 164.066 324.813 162.729C324.328 161.392 324.085 159.959 324.085 158.429C324.085 156.863 324.342 155.393 324.854 154.02C325.367 152.637 326.114 151.506 327.094 150.626H329.031V150.805C328.023 151.767 327.254 152.921 326.723 154.267C326.201 155.613 325.94 157.001 325.94 158.429C325.94 159.821 326.187 161.168 326.682 162.468C327.185 163.759 327.9 164.881 328.825 165.834V166.026H326.888ZM332.154 161.795H335.313V163.32H330.231V153.731H332.154V161.795ZM336.069 158.512C336.069 157.568 336.279 156.726 336.701 155.984C337.131 155.233 337.713 154.652 338.445 154.239C339.187 153.818 340.016 153.607 340.932 153.607C342.003 153.607 342.942 153.882 343.748 154.432C344.554 154.981 345.117 155.741 345.438 156.712H343.226C343.006 156.254 342.695 155.911 342.292 155.682C341.898 155.453 341.44 155.338 340.918 155.338C340.359 155.338 339.86 155.471 339.421 155.737C338.99 155.993 338.651 156.36 338.404 156.836C338.166 157.312 338.047 157.871 338.047 158.512C338.047 159.144 338.166 159.702 338.404 160.188C338.651 160.664 338.99 161.035 339.421 161.3C339.86 161.557 340.359 161.685 340.918 161.685C341.44 161.685 341.898 161.571 342.292 161.342C342.695 161.104 343.006 160.756 343.226 160.298H345.438C345.117 161.278 344.554 162.042 343.748 162.592C342.951 163.132 342.013 163.402 340.932 163.402C340.016 163.402 339.187 163.196 338.445 162.784C337.713 162.363 337.131 161.781 336.701 161.039C336.279 160.298 336.069 159.455 336.069 158.512ZM354.073 156.698C354.073 157.211 353.949 157.692 353.702 158.141C353.464 158.59 353.084 158.951 352.562 159.226C352.049 159.501 351.399 159.638 350.611 159.638H349.004V163.32H347.08V153.731H350.611C351.353 153.731 351.985 153.859 352.507 154.116C353.029 154.372 353.418 154.725 353.674 155.174C353.94 155.622 354.073 156.131 354.073 156.698ZM350.528 158.086C351.06 158.086 351.453 157.967 351.71 157.729C351.966 157.481 352.095 157.138 352.095 156.698C352.095 155.764 351.573 155.297 350.528 155.297H349.004V158.086H350.528ZM354.944 166.026V165.834C355.869 164.881 356.578 163.759 357.073 162.468C357.577 161.168 357.829 159.821 357.829 158.429C357.829 157.001 357.563 155.613 357.032 154.267C356.51 152.921 355.745 151.767 354.738 150.805V150.626H356.675C357.655 151.506 358.401 152.637 358.914 154.02C359.427 155.393 359.683 156.863 359.683 158.429C359.683 159.959 359.436 161.392 358.941 162.729C358.456 164.066 357.769 165.165 356.881 166.026H354.944Z" fill="#DFDFDF"/>
<path d="M157.753 406.145C192.929 406.561 275.583 392.532 324.788 333.087C386.294 258.78 373.181 362.123 432.502 377.109C479.958 389.098 551.351 282.404 581.115 227.559" stroke="#DFDFDF" stroke-width="4.37099"/>
<line x1="123.41" y1="271.267" x2="607.966" y2="271.267" stroke="#EBFF5E" stroke-width="1.24885" stroke-dasharray="6.24 6.24"/>
<line x1="123.41" y1="341.517" x2="607.966" y2="341.517" stroke="#72E4FC" stroke-width="1.24885" stroke-dasharray="6.24 6.24"/>
<rect x="238.929" y="17.2823" width="75.5557" height="75.5557" rx="37.7779" transform="rotate(-12.7718 238.929 17.2823)" fill="#0D0225"/>
<path d="M262.862 34.0419C262.617 32.9647 263.293 31.8935 264.37 31.6493L295.856 24.5122C296.933 24.268 298.004 24.9433 298.248 26.0206L304.279 52.6254C304.523 53.7026 303.848 54.7738 302.771 55.018L293.434 57.1344L288.134 63.4675L280.622 60.0387L271.285 62.1551C270.208 62.3993 269.136 61.724 268.892 60.6467L262.862 34.0419Z" stroke="#EBFF5E" stroke-width="3.75357" stroke-linecap="round" stroke-linejoin="round"/>
<path d="M277.469 44.7167C277.622 45.3906 277.199 46.0608 276.525 46.2135C275.851 46.3663 275.181 45.9438 275.029 45.2699C274.876 44.596 275.298 43.9258 275.972 43.7731C276.646 43.6203 277.316 44.0428 277.469 44.7167Z" stroke="#EBFF5E" stroke-width="2.50238" stroke-linecap="round" stroke-linejoin="round"/>
<path d="M284.79 43.057C284.943 43.731 284.521 44.4011 283.847 44.5539C283.173 44.7066 282.503 44.2842 282.35 43.6102C282.197 42.9363 282.62 42.2662 283.293 42.1134C283.967 41.9607 284.638 42.3831 284.79 43.057Z" stroke="#EBFF5E" stroke-width="2.50238" stroke-linecap="round" stroke-linejoin="round"/>
<path d="M292.112 41.3974C292.265 42.0713 291.842 42.7415 291.168 42.8942C290.495 43.047 289.824 42.6245 289.672 41.9506C289.519 41.2767 289.941 40.6065 290.615 40.4537C291.289 40.301 291.959 40.7235 292.112 41.3974Z" stroke="#EBFF5E" stroke-width="2.50238" stroke-linecap="round" stroke-linejoin="round"/>
<rect x="0.397461" y="314.581" width="75.5557" height="75.5557" rx="37.7779" transform="rotate(-21.7628 0.397461 314.581)" fill="#0D0225"/>
<path d="M61.6899 330.788L59.8343 326.14C57.1442 319.401 49.5008 316.12 42.7623 318.81C36.0238 321.5 32.7419 329.143 35.4321 335.882L37.2877 340.53L36.5827 352.263L70.2811 338.81L61.6899 330.788Z" stroke="#EBFF5E" stroke-width="3.75357" stroke-linecap="round" stroke-linejoin="round"/>
<path d="M46.9243 349.482C46.9243 349.482 49.2438 355.292 56.2159 352.508C63.188 349.725 60.8685 343.915 60.8685 343.915" stroke="#EBFF5E" stroke-width="3.75357" stroke-linecap="round" stroke-linejoin="round"/>
<rect x="660.799" y="147.32" width="75.5557" height="75.5557" rx="37.7779" transform="rotate(21.6348 660.799 147.32)" fill="#0D0225"/>
<g clip-path="url(#clip0_1624_2789)">
<path d="M671.075 174.671C671.482 173.644 672.644 173.142 673.671 173.549L703.681 185.452C704.708 185.859 705.21 187.022 704.803 188.048L694.745 213.406C694.338 214.433 693.176 214.935 692.149 214.528L683.25 210.999L675.298 213.229L671.038 206.155L662.139 202.625C661.112 202.218 660.61 201.055 661.017 200.029L671.075 174.671Z" stroke="#EBFF5E" stroke-width="3.75357" stroke-linecap="round" stroke-linejoin="round"/>
<path d="M685.678 187.06L683.833 191.712" stroke="#EBFF5E" stroke-width="5.00476" stroke-linecap="round" stroke-linejoin="round"/>
<path d="M681.305 201.478C681.05 202.12 680.323 202.435 679.681 202.18C679.039 201.925 678.724 201.198 678.979 200.556C679.234 199.913 679.961 199.599 680.603 199.854C681.246 200.109 681.56 200.836 681.305 201.478Z" stroke="#EBFF5E" stroke-width="2.50238" stroke-linecap="round" stroke-linejoin="round"/>
</g>
<defs>
<clipPath id="clip0_1624_2789">
<rect width="60.0571" height="60.0571" fill="white" transform="translate(665.146 157.38) rotate(21.6348)"/>
</clipPath>
</defs>
</svg>
