<svg width="1775" height="758" viewBox="0 0 1775 758" fill="none" xmlns="http://www.w3.org/2000/svg">
<rect x="59.1766" y="357.782" width="295.647" height="89.7529" rx="9.9" fill="#0D0225"/>
<path d="M130.489 393.774L124.442 405.432V411.659H120.855V405.432L114.782 393.774H118.83L122.674 401.947L126.492 393.774H130.489ZM138.861 411.889C137.495 411.889 136.265 411.59 135.172 410.993C134.078 410.378 133.216 409.515 132.584 408.405C131.969 407.294 131.661 406.013 131.661 404.561C131.661 403.109 131.977 401.828 132.609 400.718C133.258 399.607 134.138 398.753 135.248 398.155C136.359 397.54 137.597 397.233 138.964 397.233C140.33 397.233 141.569 397.54 142.679 398.155C143.79 398.753 144.661 399.607 145.293 400.718C145.942 401.828 146.267 403.109 146.267 404.561C146.267 406.013 145.933 407.294 145.267 408.405C144.618 409.515 143.73 410.378 142.602 410.993C141.492 411.59 140.245 411.889 138.861 411.889ZM138.861 408.763C139.511 408.763 140.117 408.61 140.681 408.302C141.261 407.978 141.723 407.499 142.064 406.867C142.406 406.235 142.577 405.466 142.577 404.561C142.577 403.212 142.218 402.178 141.501 401.461C140.8 400.726 139.938 400.359 138.913 400.359C137.888 400.359 137.025 400.726 136.325 401.461C135.641 402.178 135.3 403.212 135.3 404.561C135.3 405.911 135.633 406.953 136.299 407.687C136.982 408.405 137.836 408.763 138.861 408.763ZM162.299 397.463V411.659H158.686V409.865C158.225 410.48 157.619 410.967 156.867 411.326C156.132 411.667 155.329 411.838 154.458 411.838C153.348 411.838 152.366 411.608 151.512 411.146C150.657 410.668 149.983 409.976 149.487 409.071C149.009 408.148 148.77 407.055 148.77 405.791V397.463H152.357V405.279C152.357 406.406 152.639 407.277 153.203 407.892C153.766 408.49 154.535 408.789 155.509 408.789C156.5 408.789 157.277 408.49 157.841 407.892C158.404 407.277 158.686 406.406 158.686 405.279V397.463H162.299ZM169.426 399.667C169.887 398.915 170.485 398.326 171.219 397.899C171.971 397.472 172.825 397.258 173.782 397.258V401.025H172.834C171.706 401.025 170.852 401.29 170.271 401.819C169.708 402.349 169.426 403.271 169.426 404.587V411.659H165.839V397.463H169.426V399.667ZM206.21 393.774L201.214 411.659H196.986L193.629 398.924L190.119 411.659L185.917 411.684L181.099 393.774H184.943L188.095 407.662L191.733 393.774H195.73L199.164 407.585L202.341 393.774H206.21ZM221.749 404.254C221.749 404.766 221.715 405.227 221.646 405.637H211.269C211.354 406.662 211.713 407.465 212.345 408.046C212.977 408.627 213.754 408.917 214.677 408.917C216.009 408.917 216.957 408.345 217.521 407.2H221.39C220.98 408.567 220.194 409.694 219.033 410.583C217.871 411.454 216.445 411.889 214.754 411.889C213.387 411.889 212.157 411.59 211.064 410.993C209.988 410.378 209.142 409.515 208.527 408.405C207.929 407.294 207.63 406.013 207.63 404.561C207.63 403.092 207.929 401.802 208.527 400.692C209.125 399.582 209.962 398.727 211.038 398.13C212.114 397.532 213.353 397.233 214.754 397.233C216.103 397.233 217.307 397.523 218.367 398.104C219.443 398.685 220.271 399.513 220.852 400.589C221.45 401.649 221.749 402.87 221.749 404.254ZM218.033 403.229C218.016 402.306 217.683 401.572 217.034 401.025C216.385 400.461 215.591 400.179 214.651 400.179C213.763 400.179 213.011 400.453 212.396 400.999C211.798 401.529 211.431 402.272 211.294 403.229H218.033ZM227.955 399.539C228.416 398.856 229.048 398.3 229.851 397.873C230.671 397.446 231.602 397.233 232.644 397.233C233.857 397.233 234.95 397.532 235.924 398.13C236.914 398.727 237.692 399.582 238.255 400.692C238.836 401.785 239.126 403.058 239.126 404.51C239.126 405.962 238.836 407.252 238.255 408.379C237.692 409.489 236.914 410.352 235.924 410.967C234.95 411.582 233.857 411.889 232.644 411.889C231.585 411.889 230.654 411.684 229.851 411.274C229.065 410.847 228.433 410.301 227.955 409.635V411.659H224.367V392.697H227.955V399.539ZM235.462 404.51C235.462 403.656 235.283 402.921 234.924 402.306C234.583 401.674 234.121 401.196 233.541 400.871C232.977 400.547 232.362 400.384 231.696 400.384C231.046 400.384 230.432 400.555 229.851 400.897C229.287 401.221 228.826 401.7 228.467 402.332C228.125 402.964 227.955 403.707 227.955 404.561C227.955 405.415 228.125 406.158 228.467 406.79C228.826 407.422 229.287 407.909 229.851 408.251C230.432 408.575 231.046 408.738 231.696 408.738C232.362 408.738 232.977 408.567 233.541 408.225C234.121 407.884 234.583 407.397 234.924 406.765C235.283 406.133 235.462 405.381 235.462 404.51ZM258.806 408.251H251.682L250.504 411.659H246.737L253.169 393.748H257.345L263.777 411.659H259.984L258.806 408.251ZM257.832 405.381L255.244 397.899L252.656 405.381H257.832ZM269.768 399.513C270.229 398.864 270.861 398.326 271.664 397.899C272.484 397.455 273.415 397.233 274.457 397.233C275.67 397.233 276.763 397.532 277.737 398.13C278.728 398.727 279.505 399.582 280.069 400.692C280.649 401.785 280.94 403.058 280.94 404.51C280.94 405.962 280.649 407.252 280.069 408.379C279.505 409.489 278.728 410.352 277.737 410.967C276.763 411.582 275.67 411.889 274.457 411.889C273.415 411.889 272.493 411.676 271.69 411.249C270.904 410.822 270.263 410.284 269.768 409.635V418.423H266.181V397.463H269.768V399.513ZM277.276 404.51C277.276 403.656 277.096 402.921 276.738 402.306C276.396 401.674 275.935 401.196 275.354 400.871C274.79 400.547 274.175 400.384 273.509 400.384C272.86 400.384 272.245 400.555 271.664 400.897C271.1 401.221 270.639 401.7 270.28 402.332C269.939 402.964 269.768 403.707 269.768 404.561C269.768 405.415 269.939 406.158 270.28 406.79C270.639 407.422 271.1 407.909 271.664 408.251C272.245 408.575 272.86 408.738 273.509 408.738C274.175 408.738 274.79 408.567 275.354 408.225C275.935 407.884 276.396 407.397 276.738 406.765C277.096 406.133 277.276 405.381 277.276 404.51ZM287.134 399.513C287.595 398.864 288.227 398.326 289.03 397.899C289.85 397.455 290.781 397.233 291.823 397.233C293.036 397.233 294.129 397.532 295.103 398.13C296.094 398.727 296.871 399.582 297.435 400.692C298.015 401.785 298.306 403.058 298.306 404.51C298.306 405.962 298.015 407.252 297.435 408.379C296.871 409.489 296.094 410.352 295.103 410.967C294.129 411.582 293.036 411.889 291.823 411.889C290.781 411.889 289.859 411.676 289.056 411.249C288.27 410.822 287.629 410.284 287.134 409.635V418.423H283.547V397.463H287.134V399.513ZM294.642 404.51C294.642 403.656 294.462 402.921 294.104 402.306C293.762 401.674 293.301 401.196 292.72 400.871C292.156 400.547 291.541 400.384 290.875 400.384C290.226 400.384 289.611 400.555 289.03 400.897C288.466 401.221 288.005 401.7 287.646 402.332C287.305 402.964 287.134 403.707 287.134 404.561C287.134 405.415 287.305 406.158 287.646 406.79C288.005 407.422 288.466 407.909 289.03 408.251C289.611 408.575 290.226 408.738 290.875 408.738C291.541 408.738 292.156 408.567 292.72 408.225C293.301 407.884 293.762 407.397 294.104 406.765C294.462 406.133 294.642 405.381 294.642 404.51Z" fill="white"/>
<rect x="59.1766" y="357.782" width="295.647" height="89.7529" rx="9.9" stroke="#EBFF5E" stroke-width="1.16471"/>
<path d="M2.32941 280.329H376.729C396.027 280.329 411.671 295.973 411.671 315.271V490.047C411.671 509.345 396.027 524.988 376.729 524.988H37.2706C17.9731 524.988 2.32941 509.345 2.32941 490.047V280.329Z" stroke="#EBFF5E" stroke-width="4.65882"/>
<path d="M29.7442 253.245H31.0487L26.8744 263.501C26.7766 263.741 26.6679 263.947 26.5483 264.121C26.4287 264.306 26.2874 264.453 26.1243 264.561C25.9613 264.681 25.7656 264.768 25.5373 264.822C25.309 264.887 25.0373 264.92 24.722 264.92H23.4828V263.811H25.4395L26.3852 261.496L22.9936 253.245H24.3307L25.7493 256.767L27.0049 259.963H27.0701L28.3256 256.767L29.7442 253.245ZM39.978 261.659C39.467 261.659 39.1029 261.528 38.8855 261.267C38.6681 261.007 38.5322 260.68 38.4778 260.289H38.3963C38.2115 260.778 37.9126 261.164 37.4995 261.447C37.0973 261.719 36.5537 261.854 35.8689 261.854C34.9884 261.854 34.2872 261.626 33.7654 261.17C33.2436 260.713 32.9827 260.088 32.9827 259.294C32.9827 258.512 33.2654 257.908 33.8306 257.485C34.4068 257.061 35.3308 256.849 36.6026 256.849H38.3963V256.017C38.3963 255.397 38.2224 254.935 37.8745 254.631C37.5266 254.316 37.032 254.158 36.3907 254.158C35.8254 254.158 35.3634 254.272 35.0047 254.501C34.6459 254.718 34.3579 255.017 34.1405 255.397L33.2599 254.745C33.3686 254.528 33.5154 254.316 33.7002 254.109C33.885 253.903 34.1133 253.723 34.385 253.571C34.6568 253.408 34.9666 253.283 35.3145 253.196C35.6623 253.098 36.0482 253.049 36.4722 253.049C37.4614 253.049 38.2441 253.299 38.8202 253.799C39.4073 254.299 39.7008 254.995 39.7008 255.887V260.517H40.8748V261.659H39.978ZM36.0972 260.762C36.4342 260.762 36.7385 260.724 37.0103 260.648C37.2929 260.561 37.5375 260.452 37.7441 260.322C37.9506 260.18 38.1082 260.017 38.2169 259.833C38.3365 259.637 38.3963 259.43 38.3963 259.213V257.827H36.6026C35.82 257.827 35.2493 257.936 34.8905 258.153C34.5318 258.37 34.3524 258.686 34.3524 259.099V259.441C34.3524 259.876 34.5046 260.208 34.809 260.436C35.1242 260.653 35.5536 260.762 36.0972 260.762ZM42.9393 260.55H45.4015V254.354H42.9393V253.245H46.7059V255.365H46.7875C46.9614 254.702 47.2875 254.185 47.7658 253.816C48.255 253.435 48.8746 253.245 49.6247 253.245H50.7987V254.549H49.217C48.467 254.549 47.8582 254.767 47.3908 255.202C46.9342 255.637 46.7059 256.207 46.7059 256.914V260.55H49.9671V261.659H42.9393V260.55ZM53.0588 261.659V253.245H54.3633V254.615H54.4285C54.5155 254.408 54.6242 254.212 54.7547 254.028C54.8851 253.832 55.0427 253.663 55.2275 253.522C55.4232 253.381 55.6515 253.267 55.9124 253.18C56.1733 253.093 56.4776 253.049 56.8255 253.049C57.706 253.049 58.4126 253.332 58.9453 253.897C59.4779 254.452 59.7443 255.24 59.7443 256.262V261.659H58.4398V256.49C58.4398 255.718 58.2713 255.147 57.9343 254.778C57.5973 254.397 57.1027 254.207 56.4505 254.207C56.1896 254.207 55.9341 254.24 55.6841 254.305C55.4341 254.37 55.2112 254.468 55.0156 254.598C54.8199 254.729 54.6623 254.897 54.5427 255.104C54.4231 255.31 54.3633 255.55 54.3633 255.821V261.659H53.0588ZM79.0866 261.659C78.5757 261.659 78.2115 261.528 77.9941 261.267C77.7767 261.007 77.6408 260.68 77.5865 260.289H77.5049C77.3201 260.778 77.0212 261.164 76.6081 261.447C76.2059 261.719 75.6624 261.854 74.9775 261.854C74.097 261.854 73.3959 261.626 72.8741 261.17C72.3523 260.713 72.0914 260.088 72.0914 259.294C72.0914 258.512 72.374 257.908 72.9393 257.485C73.5154 257.061 74.4394 256.849 75.7113 256.849H77.5049V256.017C77.5049 255.397 77.331 254.935 76.9831 254.631C76.6353 254.316 76.1407 254.158 75.4993 254.158C74.934 254.158 74.472 254.272 74.1133 254.501C73.7546 254.718 73.4665 255.017 73.2491 255.397L72.3686 254.745C72.4773 254.528 72.624 254.316 72.8088 254.109C72.9936 253.903 73.2219 253.723 73.4937 253.571C73.7655 253.408 74.0753 253.283 74.4231 253.196C74.771 253.098 75.1569 253.049 75.5808 253.049C76.5701 253.049 77.3527 253.299 77.9289 253.799C78.5159 254.299 78.8094 254.995 78.8094 255.887V260.517H79.9834V261.659H79.0866ZM75.2058 260.762C75.5428 260.762 75.8472 260.724 76.1189 260.648C76.4016 260.561 76.6462 260.452 76.8527 260.322C77.0592 260.18 77.2169 260.017 77.3256 259.833C77.4451 259.637 77.5049 259.43 77.5049 259.213V257.827H75.7113C74.9286 257.827 74.3579 257.936 73.9992 258.153C73.6404 258.37 73.4611 258.686 73.4611 259.099V259.441C73.4611 259.876 73.6133 260.208 73.9176 260.436C74.2329 260.653 74.6623 260.762 75.2058 260.762ZM87.7224 260.289H87.6571C87.1136 261.333 86.2494 261.854 85.0645 261.854C84.0318 261.854 83.2219 261.469 82.6349 260.697C82.0588 259.925 81.7707 258.843 81.7707 257.452C81.7707 256.06 82.0588 254.979 82.6349 254.207C83.2219 253.435 84.0318 253.049 85.0645 253.049C86.2494 253.049 87.1136 253.571 87.6571 254.615H87.7224V249.592H89.0268V261.659H87.7224V260.289ZM85.57 260.697C85.8635 260.697 86.1407 260.659 86.4016 260.583C86.6625 260.507 86.8908 260.398 87.0864 260.257C87.2821 260.104 87.4343 259.925 87.543 259.718C87.6626 259.501 87.7224 259.251 87.7224 258.968V255.935C87.7224 255.653 87.6626 255.408 87.543 255.202C87.4343 254.984 87.2821 254.805 87.0864 254.664C86.8908 254.511 86.6625 254.397 86.4016 254.321C86.1407 254.245 85.8635 254.207 85.57 254.207C84.809 254.207 84.2166 254.441 83.7926 254.908C83.3796 255.365 83.173 255.973 83.173 256.734V258.169C83.173 258.93 83.3796 259.544 83.7926 260.012C84.2166 260.468 84.809 260.697 85.57 260.697ZM97.4995 260.289H97.4343C96.8908 261.333 96.0265 261.854 94.8417 261.854C93.8089 261.854 92.9991 261.469 92.4121 260.697C91.8359 259.925 91.5479 258.843 91.5479 257.452C91.5479 256.06 91.8359 254.979 92.4121 254.207C92.9991 253.435 93.8089 253.049 94.8417 253.049C96.0265 253.049 96.8908 253.571 97.4343 254.615H97.4995V249.592H98.804V261.659H97.4995V260.289ZM95.3471 260.697C95.6406 260.697 95.9178 260.659 96.1787 260.583C96.4396 260.507 96.6679 260.398 96.8636 260.257C97.0593 260.104 97.2114 259.925 97.3201 259.718C97.4397 259.501 97.4995 259.251 97.4995 258.968V255.935C97.4995 255.653 97.4397 255.408 97.3201 255.202C97.2114 254.984 97.0593 254.805 96.8636 254.664C96.6679 254.511 96.4396 254.397 96.1787 254.321C95.9178 254.245 95.6406 254.207 95.3471 254.207C94.5862 254.207 93.9937 254.441 93.5698 254.908C93.1567 255.365 92.9502 255.973 92.9502 256.734V258.169C92.9502 258.93 93.1567 259.544 93.5698 260.012C93.9937 260.468 94.5862 260.697 95.3471 260.697ZM111.722 249.592H113.026V254.615H113.092C113.178 254.408 113.287 254.212 113.418 254.028C113.548 253.832 113.706 253.663 113.89 253.522C114.086 253.381 114.314 253.267 114.575 253.18C114.836 253.093 115.141 253.049 115.488 253.049C116.369 253.049 117.076 253.332 117.608 253.897C118.141 254.452 118.407 255.24 118.407 256.262V261.659H117.103V256.49C117.103 255.718 116.934 255.147 116.597 254.778C116.26 254.397 115.766 254.207 115.113 254.207C114.853 254.207 114.597 254.24 114.347 254.305C114.097 254.37 113.874 254.468 113.679 254.598C113.483 254.729 113.325 254.897 113.206 255.104C113.086 255.31 113.026 255.55 113.026 255.821V261.659H111.722V249.592ZM125.315 251.386C124.934 251.386 124.668 251.31 124.516 251.158C124.363 250.995 124.287 250.794 124.287 250.555V250.294C124.287 250.054 124.363 249.859 124.516 249.707C124.668 249.544 124.934 249.462 125.315 249.462C125.695 249.462 125.961 249.544 126.114 249.707C126.266 249.859 126.342 250.054 126.342 250.294V250.555C126.342 250.794 126.266 250.995 126.114 251.158C125.961 251.31 125.695 251.386 125.315 251.386ZM121.629 260.55H124.662V254.354H121.629V253.245H125.967V260.55H128.804V261.659H121.629V260.55ZM138.826 262.621C138.826 263.469 138.472 264.094 137.766 264.496C137.059 264.909 135.999 265.116 134.586 265.116C133.227 265.116 132.249 264.936 131.651 264.578C131.064 264.219 130.771 263.702 130.771 263.029C130.771 262.572 130.89 262.219 131.129 261.969C131.369 261.719 131.706 261.534 132.14 261.414V261.219C131.901 261.099 131.716 260.947 131.586 260.762C131.455 260.577 131.39 260.343 131.39 260.061C131.39 259.626 131.532 259.3 131.814 259.082C132.108 258.865 132.472 258.702 132.907 258.593V258.528C132.385 258.3 131.977 257.963 131.684 257.517C131.401 257.071 131.26 256.55 131.26 255.952C131.26 255.528 131.336 255.136 131.488 254.778C131.64 254.419 131.858 254.115 132.14 253.865C132.434 253.604 132.782 253.403 133.184 253.261C133.586 253.12 134.032 253.049 134.521 253.049C135.151 253.049 135.706 253.163 136.184 253.392V253.245C136.184 252.919 136.26 252.647 136.412 252.43C136.565 252.212 136.826 252.104 137.195 252.104H138.744V253.245H136.853V253.816C137.157 254.077 137.391 254.386 137.554 254.745C137.717 255.104 137.798 255.506 137.798 255.952C137.798 256.376 137.717 256.767 137.554 257.126C137.402 257.485 137.184 257.794 136.902 258.055C136.619 258.305 136.271 258.501 135.858 258.642C135.456 258.784 135.01 258.854 134.521 258.854C134.38 258.854 134.244 258.849 134.113 258.838C133.983 258.827 133.852 258.811 133.722 258.789C133.592 258.811 133.456 258.849 133.314 258.903C133.173 258.947 133.043 259.012 132.923 259.099C132.803 259.175 132.706 259.267 132.63 259.376C132.553 259.485 132.515 259.61 132.515 259.751C132.515 260.001 132.64 260.17 132.89 260.257C133.14 260.333 133.467 260.371 133.869 260.371H135.728C136.815 260.371 137.603 260.577 138.092 260.99C138.581 261.392 138.826 261.936 138.826 262.621ZM137.603 262.686C137.603 262.349 137.467 262.077 137.195 261.871C136.923 261.675 136.451 261.577 135.777 261.577H132.858C132.293 261.806 132.01 262.186 132.01 262.719C132.01 263.088 132.157 263.404 132.45 263.664C132.744 263.936 133.233 264.072 133.918 264.072H135.19C135.95 264.072 136.543 263.953 136.967 263.713C137.391 263.485 137.603 263.143 137.603 262.686ZM134.521 257.843C135.173 257.843 135.652 257.691 135.956 257.387C136.271 257.082 136.429 256.68 136.429 256.18V255.707C136.429 255.207 136.271 254.81 135.956 254.517C135.652 254.212 135.173 254.06 134.521 254.06C133.869 254.06 133.39 254.212 133.086 254.517C132.782 254.81 132.63 255.207 132.63 255.707V256.18C132.63 256.68 132.782 257.082 133.086 257.387C133.39 257.691 133.869 257.843 134.521 257.843ZM141.053 249.592H142.358V254.615H142.423C142.51 254.408 142.619 254.212 142.749 254.028C142.88 253.832 143.037 253.663 143.222 253.522C143.418 253.381 143.646 253.267 143.907 253.18C144.168 253.093 144.472 253.049 144.82 253.049C145.7 253.049 146.407 253.332 146.94 253.897C147.472 254.452 147.739 255.24 147.739 256.262V261.659H146.434V256.49C146.434 255.718 146.266 255.147 145.929 254.778C145.592 254.397 145.097 254.207 144.445 254.207C144.184 254.207 143.929 254.24 143.679 254.305C143.429 254.37 143.206 254.468 143.01 254.598C142.814 254.729 142.657 254.897 142.537 255.104C142.418 255.31 142.358 255.55 142.358 255.821V261.659H141.053V249.592ZM150.537 260.55H153.472V250.701H150.537V249.592H154.776V260.55H157.712V261.659H150.537V260.55ZM164.423 251.386C164.043 251.386 163.776 251.31 163.624 251.158C163.472 250.995 163.396 250.794 163.396 250.555V250.294C163.396 250.054 163.472 249.859 163.624 249.707C163.776 249.544 164.043 249.462 164.423 249.462C164.804 249.462 165.07 249.544 165.222 249.707C165.374 249.859 165.45 250.054 165.45 250.294V250.555C165.45 250.794 165.374 250.995 165.222 251.158C165.07 251.31 164.804 251.386 164.423 251.386ZM160.738 260.55H163.771V254.354H160.738V253.245H165.075V260.55H167.913V261.659H160.738V260.55ZM177.934 262.621C177.934 263.469 177.581 264.094 176.875 264.496C176.168 264.909 175.108 265.116 173.695 265.116C172.336 265.116 171.358 264.936 170.76 264.578C170.173 264.219 169.879 263.702 169.879 263.029C169.879 262.572 169.999 262.219 170.238 261.969C170.477 261.719 170.814 261.534 171.249 261.414V261.219C171.01 261.099 170.825 260.947 170.695 260.762C170.564 260.577 170.499 260.343 170.499 260.061C170.499 259.626 170.64 259.3 170.923 259.082C171.216 258.865 171.581 258.702 172.015 258.593V258.528C171.494 258.3 171.086 257.963 170.792 257.517C170.51 257.071 170.368 256.55 170.368 255.952C170.368 255.528 170.445 255.136 170.597 254.778C170.749 254.419 170.966 254.115 171.249 253.865C171.542 253.604 171.89 253.403 172.293 253.261C172.695 253.12 173.14 253.049 173.63 253.049C174.26 253.049 174.815 253.163 175.293 253.392V253.245C175.293 252.919 175.369 252.647 175.521 252.43C175.673 252.212 175.934 252.104 176.304 252.104H177.853V253.245H175.961V253.816C176.266 254.077 176.499 254.386 176.663 254.745C176.826 255.104 176.907 255.506 176.907 255.952C176.907 256.376 176.826 256.767 176.663 257.126C176.51 257.485 176.293 257.794 176.01 258.055C175.728 258.305 175.38 258.501 174.967 258.642C174.565 258.784 174.119 258.854 173.63 258.854C173.488 258.854 173.352 258.849 173.222 258.838C173.092 258.827 172.961 258.811 172.831 258.789C172.7 258.811 172.564 258.849 172.423 258.903C172.282 258.947 172.151 259.012 172.032 259.099C171.912 259.175 171.814 259.267 171.738 259.376C171.662 259.485 171.624 259.61 171.624 259.751C171.624 260.001 171.749 260.17 171.999 260.257C172.249 260.333 172.575 260.371 172.977 260.371H174.836C175.923 260.371 176.711 260.577 177.201 260.99C177.69 261.392 177.934 261.936 177.934 262.621ZM176.711 262.686C176.711 262.349 176.576 262.077 176.304 261.871C176.032 261.675 175.559 261.577 174.885 261.577H171.966C171.401 261.806 171.119 262.186 171.119 262.719C171.119 263.088 171.265 263.404 171.559 263.664C171.852 263.936 172.341 264.072 173.026 264.072H174.298C175.059 264.072 175.652 263.953 176.076 263.713C176.499 263.485 176.711 263.143 176.711 262.686ZM173.63 257.843C174.282 257.843 174.76 257.691 175.065 257.387C175.38 257.082 175.537 256.68 175.537 256.18V255.707C175.537 255.207 175.38 254.81 175.065 254.517C174.76 254.212 174.282 254.06 173.63 254.06C172.977 254.06 172.499 254.212 172.195 254.517C171.89 254.81 171.738 255.207 171.738 255.707V256.18C171.738 256.68 171.89 257.082 172.195 257.387C172.499 257.691 172.977 257.843 173.63 257.843ZM180.162 249.592H181.466V254.615H181.532C181.619 254.408 181.727 254.212 181.858 254.028C181.988 253.832 182.146 253.663 182.331 253.522C182.526 253.381 182.755 253.267 183.015 253.18C183.276 253.093 183.581 253.049 183.929 253.049C184.809 253.049 185.516 253.332 186.048 253.897C186.581 254.452 186.847 255.24 186.847 256.262V261.659H185.543V256.49C185.543 255.718 185.374 255.147 185.037 254.778C184.7 254.397 184.206 254.207 183.554 254.207C183.293 254.207 183.037 254.24 182.787 254.305C182.537 254.37 182.314 254.468 182.119 254.598C181.923 254.729 181.765 254.897 181.646 255.104C181.526 255.31 181.466 255.55 181.466 255.821V261.659H180.162V249.592ZM193.641 261.659C192.999 261.659 192.526 261.479 192.222 261.121C191.928 260.762 191.782 260.3 191.782 259.735V254.354H188.977V253.245H191.064C191.347 253.245 191.542 253.191 191.651 253.082C191.771 252.962 191.831 252.761 191.831 252.479V250.277H193.086V253.245H196.918V254.354H193.086V260.55H196.918V261.659H193.641ZM203.01 261.806C202.564 261.806 202.249 261.713 202.064 261.528C201.89 261.344 201.803 261.11 201.803 260.827V260.534C201.803 260.251 201.89 260.017 202.064 259.833C202.249 259.648 202.564 259.555 203.01 259.555C203.456 259.555 203.766 259.648 203.939 259.833C204.124 260.017 204.217 260.251 204.217 260.534V260.827C204.217 261.11 204.124 261.344 203.939 261.528C203.766 261.713 203.456 261.806 203.01 261.806ZM209.151 260.55H211.613V254.354H209.151V253.245H212.918V255.365H212.999C213.173 254.702 213.499 254.185 213.978 253.816C214.467 253.435 215.086 253.245 215.836 253.245H217.01V254.549H215.429C214.679 254.549 214.07 254.767 213.602 255.202C213.146 255.637 212.918 256.207 212.918 256.914V260.55H216.179V261.659H209.151V260.55ZM224.554 260.289H224.488C224.401 260.496 224.293 260.697 224.162 260.892C224.032 261.077 223.869 261.24 223.673 261.382C223.488 261.523 223.266 261.637 223.005 261.724C222.744 261.811 222.439 261.854 222.091 261.854C221.211 261.854 220.504 261.577 219.972 261.023C219.439 260.458 219.173 259.664 219.173 258.642V253.245H220.477V258.414C220.477 259.186 220.646 259.762 220.983 260.142C221.32 260.512 221.814 260.697 222.467 260.697C222.727 260.697 222.983 260.664 223.233 260.599C223.483 260.534 223.706 260.436 223.901 260.305C224.097 260.175 224.255 260.012 224.374 259.816C224.494 259.61 224.554 259.365 224.554 259.082V253.245H225.858V261.659H224.554V260.289ZM229.048 261.659V253.245H230.352V254.615H230.417C230.504 254.408 230.613 254.212 230.744 254.028C230.874 253.832 231.032 253.663 231.216 253.522C231.412 253.381 231.64 253.267 231.901 253.18C232.162 253.093 232.467 253.049 232.814 253.049C233.695 253.049 234.401 253.332 234.934 253.897C235.467 254.452 235.733 255.24 235.733 256.262V261.659H234.429V256.49C234.429 255.718 234.26 255.147 233.923 254.778C233.586 254.397 233.092 254.207 232.439 254.207C232.178 254.207 231.923 254.24 231.673 254.305C231.423 254.37 231.2 254.468 231.004 254.598C230.809 254.729 230.651 254.897 230.532 255.104C230.412 255.31 230.352 255.55 230.352 255.821V261.659H229.048Z" fill="white"/>
<path d="M2.32941 249.8C2.32941 240.151 10.1513 232.329 19.8 232.329H240.459C250.108 232.329 257.929 240.151 257.929 249.8V278.988H2.32941V249.8Z" stroke="#EBFF5E" stroke-width="4.65882"/>
<path d="M476.542 345.818C474.785 346.623 474.013 348.7 474.818 350.458C475.623 352.215 477.7 352.987 479.458 352.182L476.542 345.818ZM658 140.196L618.307 132.593L631.57 170.77L658 140.196ZM479.458 352.182C488.095 348.225 502.705 337.488 519.511 318.201C536.377 298.844 555.591 270.723 573.355 231.78L566.986 228.874C549.485 267.244 530.628 294.787 514.233 313.602C497.777 332.488 483.934 342.431 476.542 345.818L479.458 352.182ZM573.355 231.78C593.273 188.113 613.898 164.875 630.258 153.397L626.238 147.666C608.552 160.075 587.241 184.47 566.986 228.874L573.355 231.78Z" fill="#6C37F4"/>
<path d="M478 375.5C476.067 375.5 474.5 377.067 474.5 379C474.5 380.933 476.067 382.5 478 382.5V375.5ZM650 379L615 358.793V399.207L650 379ZM478 382.5H630.048V375.5H478V382.5Z" fill="#6C37F4"/>
<path d="M476.542 412.182C474.785 411.377 474.013 409.3 474.818 407.542C475.623 405.785 477.7 405.013 479.458 405.818L476.542 412.182ZM658 617.804L618.307 625.407L631.57 587.23L658 617.804ZM479.458 405.818C488.095 409.775 502.705 420.512 519.511 439.799C536.377 459.156 555.591 487.277 573.355 526.22L566.986 529.126C549.485 490.756 530.628 463.213 514.233 444.398C497.777 425.512 483.934 415.569 476.542 412.182L479.458 405.818ZM573.355 526.22C593.273 569.887 613.898 593.125 630.258 604.603L626.238 610.334C608.552 597.925 587.241 573.53 566.986 529.126L573.355 526.22Z" fill="#6C37F4"/>
<rect x="844" width="649.337" height="418.48" rx="17" fill="#FF9457"/>
<rect x="852.158" y="8.15753" width="633.022" height="402.165" rx="13.052" fill="#0D0225"/>
<rect width="633.022" height="2.44725" transform="translate(852.158 76.6805)" fill="#30294E"/>
<path d="M897.024 36.2089V38.2368H891.801V41.4493H895.803V43.4413H891.801V48.7355H889.289V36.2089H897.024ZM900.079 37.6087C899.637 37.6087 899.266 37.4711 898.967 37.1959C898.68 36.9088 898.536 36.5558 898.536 36.1371C898.536 35.7183 898.68 35.3714 898.967 35.0962C899.266 34.809 899.637 34.6655 900.079 34.6655C900.522 34.6655 900.887 34.809 901.174 35.0962C901.473 35.3714 901.623 35.7183 901.623 36.1371C901.623 36.5558 901.473 36.9088 901.174 37.1959C900.887 37.4711 900.522 37.6087 900.079 37.6087ZM901.318 38.7932V48.7355H898.805V38.7932H901.318ZM906.313 40.3366C906.636 39.8101 907.054 39.3974 907.569 39.0983C908.095 38.7992 908.693 38.6496 909.363 38.6496V41.2877H908.699C907.91 41.2877 907.312 41.4732 906.905 41.8441C906.51 42.215 906.313 42.861 906.313 43.7823V48.7355H903.8V38.7932H906.313V40.3366ZM914.86 48.8971C914.047 48.8971 913.317 48.7535 912.671 48.4663C912.025 48.1672 911.51 47.7664 911.128 47.2639C910.757 46.7614 910.553 46.2051 910.517 45.5949H913.048C913.096 45.9778 913.281 46.2948 913.604 46.5461C913.939 46.7973 914.352 46.9229 914.842 46.9229C915.321 46.9229 915.692 46.8272 915.955 46.6358C916.23 46.4444 916.368 46.1991 916.368 45.9C916.368 45.5769 916.2 45.3377 915.865 45.1821C915.542 45.0146 915.022 44.8352 914.304 44.6437C913.562 44.4643 912.952 44.2788 912.474 44.0874C912.007 43.896 911.6 43.6028 911.253 43.208C910.918 42.8132 910.751 42.2808 910.751 41.6108C910.751 41.0604 910.906 40.5579 911.217 40.1033C911.54 39.6486 911.995 39.2897 912.581 39.0265C913.179 38.7633 913.879 38.6317 914.681 38.6317C915.865 38.6317 916.811 38.9308 917.516 39.529C918.222 40.1152 918.611 40.9109 918.683 41.9159H916.278C916.242 41.521 916.075 41.21 915.776 40.9826C915.489 40.7434 915.1 40.6237 914.609 40.6237C914.155 40.6237 913.802 40.7075 913.55 40.875C913.311 41.0425 913.191 41.2758 913.191 41.5749C913.191 41.9099 913.359 42.1671 913.694 42.3466C914.029 42.5141 914.549 42.6876 915.255 42.867C915.973 43.0465 916.565 43.2319 917.032 43.4234C917.499 43.6148 917.899 43.9139 918.234 44.3207C918.581 44.7155 918.761 45.2419 918.773 45.9C918.773 46.4743 918.611 46.9887 918.288 47.4434C917.977 47.898 917.522 48.257 916.924 48.5202C916.338 48.7714 915.65 48.8971 914.86 48.8971ZM923.76 40.857V45.6667C923.76 46.0017 923.838 46.247 923.994 46.4025C924.161 46.5461 924.436 46.6178 924.819 46.6178H925.986V48.7355H924.407C922.289 48.7355 921.23 47.7066 921.23 45.6487V40.857H920.046V38.7932H921.23V36.3345H923.76V38.7932H925.986V40.857H923.76ZM934.582 36.2089V48.7355H932.069V36.2089H934.582ZM942.574 38.6496C943.758 38.6496 944.715 39.0265 945.445 39.7802C946.175 40.522 946.54 41.5629 946.54 42.9029V48.7355H944.027V43.2439C944.027 42.4543 943.83 41.8501 943.435 41.4313C943.04 41.0006 942.502 40.7852 941.82 40.7852C941.126 40.7852 940.576 41.0006 940.169 41.4313C939.774 41.8501 939.577 42.4543 939.577 43.2439V48.7355H937.064V38.7932H939.577V40.0315C939.912 39.6008 940.336 39.2658 940.851 39.0265C941.377 38.7752 941.952 38.6496 942.574 38.6496ZM951.442 40.2289C951.765 39.7742 952.207 39.3974 952.77 39.0983C953.344 38.7872 953.996 38.6317 954.726 38.6317C955.575 38.6317 956.341 38.841 957.023 39.2598C957.717 39.6785 958.261 40.2767 958.656 41.0544C959.063 41.8201 959.266 42.7115 959.266 43.7285C959.266 44.7454 959.063 45.6487 958.656 46.4384C958.261 47.2161 957.717 47.8203 957.023 48.251C956.341 48.6817 955.575 48.8971 954.726 48.8971C953.996 48.8971 953.35 48.7475 952.788 48.4484C952.237 48.1493 951.789 47.7724 951.442 47.3178V53.4734H948.929V38.7932H951.442V40.2289ZM956.7 43.7285C956.7 43.1302 956.574 42.6158 956.323 42.1851C956.084 41.7424 955.761 41.4074 955.354 41.1801C954.959 40.9527 954.529 40.8391 954.062 40.8391C953.607 40.8391 953.177 40.9587 952.77 41.198C952.375 41.4253 952.052 41.7603 951.801 42.203C951.561 42.6457 951.442 43.1661 951.442 43.7644C951.442 44.3626 951.561 44.883 951.801 45.3257C952.052 45.7684 952.375 46.1094 952.77 46.3486C953.177 46.576 953.607 46.6896 954.062 46.6896C954.529 46.6896 954.959 46.57 955.354 46.3307C955.761 46.0914 956.084 45.7504 956.323 45.3078C956.574 44.8651 956.7 44.3386 956.7 43.7285ZM970.478 38.7932V48.7355H967.948V47.4793C967.625 47.91 967.2 48.251 966.674 48.5022C966.159 48.7415 965.597 48.8612 964.987 48.8612C964.209 48.8612 963.521 48.6996 962.923 48.3766C962.324 48.0416 961.852 47.557 961.505 46.9229C961.17 46.2769 961.002 45.5111 961.002 44.6258V38.7932H963.515V44.2669C963.515 45.0565 963.712 45.6667 964.107 46.0974C964.502 46.5161 965.04 46.7255 965.722 46.7255C966.416 46.7255 966.961 46.5161 967.355 46.0974C967.75 45.6667 967.948 45.0565 967.948 44.2669V38.7932H970.478ZM975.882 40.857V45.6667C975.882 46.0017 975.96 46.247 976.116 46.4025C976.283 46.5461 976.558 46.6178 976.941 46.6178H978.108V48.7355H976.529C974.411 48.7355 973.352 47.7066 973.352 45.6487V40.857H972.168V38.7932H973.352V36.3345H975.882V38.7932H978.108V40.857H975.882ZM988.57 36.2089C989.886 36.2089 991.041 36.4661 992.034 36.9806C993.039 37.495 993.811 38.2308 994.349 39.188C994.899 40.1332 995.175 41.2339 995.175 42.4901C995.175 43.7464 994.899 44.8471 994.349 45.7923C993.811 46.7255 993.039 47.4494 992.034 47.9638C991.041 48.4783 989.886 48.7355 988.57 48.7355H984.191V36.2089H988.57ZM988.48 46.5999C989.797 46.5999 990.814 46.241 991.531 45.5231C992.249 44.8052 992.608 43.7943 992.608 42.4901C992.608 41.186 992.249 40.1691 991.531 39.4392C990.814 38.6975 989.797 38.3266 988.48 38.3266H986.704V46.5999H988.48ZM1006.3 43.549C1006.3 43.9079 1006.27 44.231 1006.23 44.5181H998.958C999.017 45.236 999.269 45.7983 999.711 46.2051C1000.15 46.6119 1000.7 46.8153 1001.34 46.8153C1002.28 46.8153 1002.94 46.4145 1003.34 45.6128H1006.05C1005.76 46.57 1005.21 47.3596 1004.4 47.9818C1003.58 48.592 1002.58 48.8971 1001.4 48.8971C1000.44 48.8971 999.58 48.6877 998.814 48.2689C998.06 47.8382 997.468 47.234 997.037 46.4563C996.619 45.6786 996.409 44.7813 996.409 43.7644C996.409 42.7354 996.619 41.8321 997.037 41.0544C997.456 40.2767 998.042 39.6785 998.796 39.2598C999.55 38.841 1000.42 38.6317 1001.4 38.6317C1002.34 38.6317 1003.19 38.835 1003.93 39.2418C1004.68 39.6486 1005.26 40.2289 1005.67 40.9826C1006.09 41.7244 1006.3 42.5799 1006.3 43.549ZM1003.7 42.8311C1003.68 42.1851 1003.45 41.6706 1003 41.2877C1002.54 40.8929 1001.98 40.6955 1001.33 40.6955C1000.7 40.6955 1000.18 40.8869 999.747 41.2698C999.329 41.6407 999.071 42.1611 998.976 42.8311H1003.7ZM1010.64 35.4551V48.7355H1008.13V35.4551H1010.64ZM1012.48 43.7285C1012.48 42.7235 1012.68 41.8321 1013.07 41.0544C1013.48 40.2767 1014.02 39.6785 1014.71 39.2598C1015.4 38.841 1016.17 38.6317 1017.02 38.6317C1017.76 38.6317 1018.41 38.7812 1018.96 39.0803C1019.52 39.3794 1019.97 39.7563 1020.31 40.2109V38.7932H1022.84V48.7355H1020.31V47.2819C1019.98 47.7485 1019.53 48.1373 1018.96 48.4484C1018.4 48.7475 1017.74 48.8971 1017 48.8971C1016.17 48.8971 1015.4 48.6817 1014.71 48.251C1014.02 47.8203 1013.48 47.2161 1013.07 46.4384C1012.68 45.6487 1012.48 44.7454 1012.48 43.7285ZM1020.31 43.7644C1020.31 43.1542 1020.19 42.6337 1019.95 42.203C1019.71 41.7603 1019.38 41.4253 1018.98 41.198C1018.57 40.9587 1018.13 40.8391 1017.67 40.8391C1017.2 40.8391 1016.77 40.9527 1016.37 41.1801C1015.98 41.4074 1015.66 41.7424 1015.41 42.1851C1015.17 42.6158 1015.05 43.1302 1015.05 43.7285C1015.05 44.3267 1015.17 44.8531 1015.41 45.3078C1015.66 45.7504 1015.98 46.0914 1016.37 46.3307C1016.78 46.57 1017.21 46.6896 1017.67 46.6896C1018.13 46.6896 1018.57 46.576 1018.98 46.3486C1019.38 46.1094 1019.71 45.7744 1019.95 45.3436C1020.19 44.901 1020.31 44.3745 1020.31 43.7644ZM1034.8 38.7932L1028.65 53.4375H1025.97L1028.13 48.4843L1024.14 38.7932H1026.96L1029.52 45.7385L1032.13 38.7932H1034.8ZM1044.77 52.271C1043.61 51.1463 1042.71 49.7106 1042.06 47.9638C1041.43 46.217 1041.11 44.3446 1041.11 42.3466C1041.11 40.3007 1041.45 38.3804 1042.12 36.5857C1042.79 34.7791 1043.76 33.3015 1045.04 32.153H1047.57V32.3863C1046.26 33.6425 1045.25 35.15 1044.56 36.9088C1043.88 38.6675 1043.54 40.4801 1043.54 42.3466C1043.54 44.1652 1043.86 45.9239 1044.51 47.6229C1045.16 49.3098 1046.1 50.7755 1047.31 52.0197V52.271H1044.77ZM1056.88 36.2089V38.2368H1051.65V41.4493H1055.66V43.4413H1051.65V48.7355H1049.14V36.2089H1056.88ZM1061.17 36.2089V48.7355H1058.66V36.2089H1061.17ZM1068.03 36.2089C1069.35 36.2089 1070.5 36.4661 1071.5 36.9806C1072.5 37.495 1073.27 38.2308 1073.81 39.188C1074.36 40.1332 1074.64 41.2339 1074.64 42.4901C1074.64 43.7464 1074.36 44.8471 1073.81 45.7923C1073.27 46.7255 1072.5 47.4494 1071.5 47.9638C1070.5 48.4783 1069.35 48.7355 1068.03 48.7355H1063.65V36.2089H1068.03ZM1067.94 46.5999C1069.26 46.5999 1070.28 46.241 1070.99 45.5231C1071.71 44.8052 1072.07 43.7943 1072.07 42.4901C1072.07 41.186 1071.71 40.1691 1070.99 39.4392C1070.28 38.6975 1069.26 38.3266 1067.94 38.3266H1066.17V46.5999H1067.94ZM1075.87 52.271V52.0197C1077.08 50.7755 1078.01 49.3098 1078.65 47.6229C1079.31 45.9239 1079.64 44.1652 1079.64 42.3466C1079.64 40.4801 1079.29 38.6675 1078.6 36.9088C1077.92 35.15 1076.92 33.6425 1075.6 32.3863V32.153H1078.13C1079.41 33.3015 1080.39 34.7791 1081.06 36.5857C1081.73 38.3804 1082.06 40.3007 1082.06 42.3466C1082.06 44.3446 1081.74 46.217 1081.09 47.9638C1080.46 49.7106 1079.56 51.1463 1078.4 52.271H1075.87Z" fill="#DFDFDF"/>
<path d="M897.024 365.864C942.978 366.408 1050.96 348.081 1115.24 270.421C1195.59 173.347 1178.46 308.354 1255.95 327.932C1317.95 343.594 1411.22 204.21 1450.1 132.559" stroke="#DFDFDF" stroke-width="5.71025"/>
<line x1="852.158" y1="189.659" x2="1485.18" y2="189.659" stroke="#EBFF5E" stroke-width="1.6315" stroke-dasharray="8.16 8.16"/>
<line x1="852.158" y1="281.434" x2="1485.18" y2="281.434" stroke="#72E4FC" stroke-width="1.6315" stroke-dasharray="8.16 8.16"/>
<rect x="722" y="339" width="649.337" height="418.48" rx="17" fill="#FF9457"/>
<rect x="730.158" y="347.157" width="633.022" height="402.165" rx="13.052" fill="#0D0225"/>
<rect width="633.022" height="2.44725" transform="translate(730.158 415.681)" fill="#30294E"/>
<path d="M766.678 381.454C766.678 380.222 766.954 379.121 767.504 378.152C768.066 377.171 768.826 376.411 769.783 375.873C770.752 375.322 771.835 375.047 773.031 375.047C774.431 375.047 775.658 375.406 776.711 376.124C777.763 376.842 778.499 377.835 778.918 379.103H776.029C775.741 378.505 775.335 378.056 774.808 377.757C774.294 377.458 773.696 377.309 773.014 377.309C772.284 377.309 771.632 377.482 771.057 377.829C770.495 378.164 770.052 378.643 769.729 379.265C769.418 379.887 769.263 380.617 769.263 381.454C769.263 382.28 769.418 383.01 769.729 383.644C770.052 384.266 770.495 384.75 771.057 385.097C771.632 385.432 772.284 385.6 773.014 385.6C773.696 385.6 774.294 385.45 774.808 385.151C775.335 384.84 775.741 384.385 776.029 383.787H778.918C778.499 385.067 777.763 386.066 776.711 386.784C775.67 387.49 774.443 387.843 773.031 387.843C771.835 387.843 770.752 387.574 769.783 387.036C768.826 386.485 768.066 385.725 767.504 384.756C766.954 383.787 766.678 382.687 766.678 381.454ZM790.45 377.793V387.735H787.92V386.479C787.596 386.91 787.172 387.251 786.645 387.502C786.131 387.741 785.569 387.861 784.958 387.861C784.181 387.861 783.493 387.7 782.894 387.377C782.296 387.042 781.824 386.557 781.477 385.923C781.142 385.277 780.974 384.511 780.974 383.626V377.793H783.487V383.267C783.487 384.056 783.684 384.667 784.079 385.097C784.474 385.516 785.012 385.725 785.694 385.725C786.388 385.725 786.932 385.516 787.327 385.097C787.722 384.667 787.92 384.056 787.92 383.267V377.793H790.45ZM805.276 377.65C806.497 377.65 807.478 378.026 808.219 378.78C808.973 379.522 809.35 380.563 809.35 381.903V387.735H806.838V382.244C806.838 381.466 806.64 380.874 806.245 380.467C805.85 380.048 805.312 379.839 804.63 379.839C803.948 379.839 803.404 380.048 802.997 380.467C802.602 380.874 802.405 381.466 802.405 382.244V387.735H799.892V382.244C799.892 381.466 799.695 380.874 799.3 380.467C798.905 380.048 798.367 379.839 797.685 379.839C796.991 379.839 796.441 380.048 796.034 380.467C795.639 380.874 795.441 381.466 795.441 382.244V387.735H792.929V377.793H795.441V378.996C795.765 378.577 796.177 378.248 796.68 378.008C797.194 377.769 797.757 377.65 798.367 377.65C799.144 377.65 799.838 377.817 800.449 378.152C801.059 378.475 801.531 378.942 801.866 379.552C802.189 378.978 802.656 378.517 803.266 378.17C803.888 377.823 804.558 377.65 805.276 377.65ZM821.12 377.793V387.735H818.59V386.479C818.267 386.91 817.842 387.251 817.316 387.502C816.801 387.741 816.239 387.861 815.629 387.861C814.851 387.861 814.163 387.7 813.565 387.377C812.967 387.042 812.494 386.557 812.147 385.923C811.812 385.277 811.645 384.511 811.645 383.626V377.793H814.157V383.267C814.157 384.056 814.354 384.667 814.749 385.097C815.144 385.516 815.682 385.725 816.364 385.725C817.058 385.725 817.603 385.516 817.998 385.097C818.392 384.667 818.59 384.056 818.59 383.267V377.793H821.12ZM826.112 374.455V387.735H823.599V374.455H826.112ZM827.948 382.728C827.948 381.723 828.145 380.832 828.54 380.054C828.947 379.277 829.491 378.678 830.173 378.26C830.867 377.841 831.639 377.632 832.489 377.632C833.23 377.632 833.876 377.781 834.427 378.08C834.989 378.379 835.438 378.756 835.773 379.211V377.793H838.303V387.735H835.773V386.282C835.45 386.748 835.001 387.137 834.427 387.448C833.864 387.747 833.212 387.897 832.471 387.897C831.633 387.897 830.867 387.682 830.173 387.251C829.491 386.82 828.947 386.216 828.54 385.438C828.145 384.649 827.948 383.745 827.948 382.728ZM835.773 382.764C835.773 382.154 835.653 381.634 835.414 381.203C835.175 380.76 834.852 380.425 834.445 380.198C834.038 379.959 833.601 379.839 833.135 379.839C832.668 379.839 832.237 379.953 831.842 380.18C831.448 380.407 831.125 380.742 830.873 381.185C830.634 381.616 830.514 382.13 830.514 382.728C830.514 383.327 830.634 383.853 830.873 384.308C831.125 384.75 831.448 385.091 831.842 385.331C832.249 385.57 832.68 385.69 833.135 385.69C833.601 385.69 834.038 385.576 834.445 385.349C834.852 385.109 835.175 384.774 835.414 384.344C835.653 383.901 835.773 383.374 835.773 382.764ZM843.682 379.857V384.667C843.682 385.002 843.76 385.247 843.916 385.402C844.083 385.546 844.358 385.618 844.741 385.618H845.908V387.735H844.328C842.211 387.735 841.152 386.707 841.152 384.649V379.857H839.967V377.793H841.152V375.334H843.682V377.793H845.908V379.857H843.682ZM848.989 376.609C848.546 376.609 848.176 376.471 847.876 376.196C847.589 375.909 847.446 375.556 847.446 375.137C847.446 374.718 847.589 374.371 847.876 374.096C848.176 373.809 848.546 373.665 848.989 373.665C849.432 373.665 849.797 373.809 850.084 374.096C850.383 374.371 850.533 374.718 850.533 375.137C850.533 375.556 850.383 375.909 850.084 376.196C849.797 376.471 849.432 376.609 848.989 376.609ZM850.227 377.793V387.735H847.715V377.793H850.227ZM856.855 385.42L859.368 377.793H862.042L858.363 387.735H855.312L851.651 377.793H854.343L856.855 385.42ZM872.696 382.549C872.696 382.908 872.672 383.231 872.624 383.518H865.355C865.415 384.236 865.667 384.798 866.109 385.205C866.552 385.612 867.096 385.815 867.742 385.815C868.676 385.815 869.34 385.414 869.734 384.613H872.444C872.157 385.57 871.607 386.36 870.793 386.982C869.98 387.592 868.981 387.897 867.796 387.897C866.839 387.897 865.978 387.688 865.212 387.269C864.458 386.838 863.866 386.234 863.435 385.456C863.016 384.679 862.807 383.781 862.807 382.764C862.807 381.735 863.016 380.832 863.435 380.054C863.854 379.277 864.44 378.678 865.194 378.26C865.948 377.841 866.815 377.632 867.796 377.632C868.741 377.632 869.585 377.835 870.327 378.242C871.08 378.649 871.661 379.229 872.067 379.983C872.486 380.724 872.696 381.58 872.696 382.549ZM870.093 381.831C870.081 381.185 869.848 380.671 869.393 380.288C868.939 379.893 868.382 379.695 867.724 379.695C867.102 379.695 866.576 379.887 866.145 380.27C865.726 380.641 865.469 381.161 865.373 381.831H870.093ZM881.318 385.743H885.446V387.735H878.806V375.209H881.318V385.743ZM886.397 382.728C886.397 381.723 886.594 380.832 886.989 380.054C887.396 379.277 887.94 378.678 888.622 378.26C889.316 377.841 890.088 377.632 890.937 377.632C891.679 377.632 892.325 377.781 892.876 378.08C893.438 378.379 893.887 378.756 894.222 379.211V377.793H896.752V387.735H894.222V386.282C893.899 386.748 893.45 387.137 892.876 387.448C892.313 387.747 891.661 387.897 890.919 387.897C890.082 387.897 889.316 387.682 888.622 387.251C887.94 386.82 887.396 386.216 886.989 385.438C886.594 384.649 886.397 383.745 886.397 382.728ZM894.222 382.764C894.222 382.154 894.102 381.634 893.863 381.203C893.623 380.76 893.3 380.425 892.894 380.198C892.487 379.959 892.05 379.839 891.583 379.839C891.117 379.839 890.686 379.953 890.291 380.18C889.896 380.407 889.573 380.742 889.322 381.185C889.083 381.616 888.963 382.13 888.963 382.728C888.963 383.327 889.083 383.853 889.322 384.308C889.573 384.75 889.896 385.091 890.291 385.331C890.698 385.57 891.129 385.69 891.583 385.69C892.05 385.69 892.487 385.576 892.894 385.349C893.3 385.109 893.623 384.774 893.863 384.344C894.102 383.901 894.222 383.374 894.222 382.764ZM908.718 377.793L902.562 392.437H899.888L902.042 387.484L898.057 377.793H900.875L903.441 384.738L906.044 377.793H908.718ZM914.487 387.897C913.53 387.897 912.668 387.688 911.903 387.269C911.137 386.838 910.533 386.234 910.09 385.456C909.659 384.679 909.444 383.781 909.444 382.764C909.444 381.747 909.665 380.85 910.108 380.072C910.563 379.295 911.179 378.696 911.956 378.278C912.734 377.847 913.601 377.632 914.559 377.632C915.516 377.632 916.383 377.847 917.161 378.278C917.939 378.696 918.549 379.295 918.991 380.072C919.446 380.85 919.673 381.747 919.673 382.764C919.673 383.781 919.44 384.679 918.973 385.456C918.519 386.234 917.897 386.838 917.107 387.269C916.329 387.688 915.456 387.897 914.487 387.897ZM914.487 385.708C914.941 385.708 915.366 385.6 915.761 385.384C916.168 385.157 916.491 384.822 916.73 384.379C916.969 383.937 917.089 383.398 917.089 382.764C917.089 381.819 916.838 381.095 916.335 380.593C915.845 380.078 915.241 379.821 914.523 379.821C913.805 379.821 913.201 380.078 912.71 380.593C912.232 381.095 911.992 381.819 911.992 382.764C911.992 383.709 912.226 384.439 912.692 384.954C913.171 385.456 913.769 385.708 914.487 385.708ZM930.902 377.793V387.735H928.372V386.479C928.049 386.91 927.624 387.251 927.098 387.502C926.583 387.741 926.021 387.861 925.411 387.861C924.633 387.861 923.945 387.7 923.347 387.377C922.749 387.042 922.276 386.557 921.929 385.923C921.594 385.277 921.427 384.511 921.427 383.626V377.793H923.939V383.267C923.939 384.056 924.137 384.667 924.531 385.097C924.926 385.516 925.465 385.725 926.147 385.725C926.841 385.725 927.385 385.516 927.78 385.097C928.175 384.667 928.372 384.056 928.372 383.267V377.793H930.902ZM936.307 379.857V384.667C936.307 385.002 936.384 385.247 936.54 385.402C936.708 385.546 936.983 385.618 937.366 385.618H938.532V387.735H936.953C934.835 387.735 933.776 386.707 933.776 384.649V379.857H932.592V377.793H933.776V375.334H936.307V377.793H938.532V379.857H936.307ZM948.941 387.861C948.067 387.861 947.278 387.712 946.572 387.412C945.878 387.113 945.327 386.683 944.921 386.12C944.514 385.558 944.304 384.894 944.292 384.128H946.984C947.02 384.643 947.2 385.049 947.523 385.349C947.858 385.648 948.313 385.797 948.887 385.797C949.473 385.797 949.934 385.66 950.269 385.384C950.604 385.097 950.771 384.726 950.771 384.272C950.771 383.901 950.658 383.596 950.43 383.357C950.203 383.117 949.916 382.932 949.569 382.8C949.234 382.657 948.767 382.501 948.169 382.334C947.355 382.094 946.691 381.861 946.177 381.634C945.674 381.394 945.238 381.041 944.867 380.575C944.508 380.096 944.328 379.462 944.328 378.672C944.328 377.931 944.514 377.285 944.885 376.734C945.256 376.184 945.776 375.765 946.446 375.478C947.116 375.179 947.882 375.029 948.743 375.029C950.035 375.029 951.082 375.346 951.884 375.981C952.697 376.603 953.146 377.476 953.23 378.601H950.466C950.442 378.17 950.257 377.817 949.91 377.542C949.575 377.255 949.126 377.111 948.564 377.111C948.073 377.111 947.678 377.237 947.379 377.488C947.092 377.739 946.949 378.104 946.949 378.583C946.949 378.918 947.056 379.199 947.272 379.426C947.499 379.642 947.774 379.821 948.097 379.965C948.432 380.096 948.899 380.252 949.497 380.431C950.311 380.671 950.975 380.91 951.489 381.149C952.004 381.388 952.446 381.747 952.817 382.226C953.188 382.704 953.373 383.333 953.373 384.11C953.373 384.78 953.2 385.402 952.853 385.977C952.506 386.551 951.998 387.012 951.328 387.359C950.658 387.694 949.862 387.861 948.941 387.861ZM961.151 377.65C961.905 377.65 962.575 377.817 963.161 378.152C963.747 378.475 964.202 378.96 964.525 379.606C964.86 380.24 965.027 381.006 965.027 381.903V387.735H962.515V382.244C962.515 381.454 962.318 380.85 961.923 380.431C961.528 380.001 960.989 379.785 960.308 379.785C959.614 379.785 959.063 380.001 958.656 380.431C958.262 380.85 958.064 381.454 958.064 382.244V387.735H955.552V374.455H958.064V379.031C958.387 378.601 958.818 378.266 959.356 378.026C959.895 377.775 960.493 377.65 961.151 377.65ZM968.691 376.609C968.248 376.609 967.877 376.471 967.578 376.196C967.291 375.909 967.148 375.556 967.148 375.137C967.148 374.718 967.291 374.371 967.578 374.096C967.877 373.809 968.248 373.665 968.691 373.665C969.134 373.665 969.499 373.809 969.786 374.096C970.085 374.371 970.234 374.718 970.234 375.137C970.234 375.556 970.085 375.909 969.786 376.196C969.499 376.471 969.134 376.609 968.691 376.609ZM969.929 377.793V387.735H967.417V377.793H969.929ZM976.97 379.857H975.229V387.735H972.681V379.857H971.55V377.793H972.681V377.291C972.681 376.07 973.028 375.173 973.722 374.599C974.416 374.024 975.462 373.755 976.862 373.791V375.909C976.252 375.897 975.827 375.998 975.588 376.214C975.349 376.429 975.229 376.818 975.229 377.38V377.793H976.97V379.857ZM981.523 379.857V384.667C981.523 385.002 981.601 385.247 981.757 385.402C981.924 385.546 982.199 385.618 982.582 385.618H983.749V387.735H982.17C980.052 387.735 978.993 386.707 978.993 384.649V379.857H977.809V377.793H978.993V375.334H981.523V377.793H983.749V379.857H981.523ZM994.175 391.271C993.015 390.146 992.112 388.711 991.465 386.964C990.831 385.217 990.514 383.345 990.514 381.347C990.514 379.301 990.849 377.38 991.519 375.586C992.189 373.779 993.164 372.301 994.445 371.153H996.975V371.386C995.659 372.642 994.654 374.15 993.96 375.909C993.278 377.667 992.937 379.48 992.937 381.347C992.937 383.165 993.26 384.924 993.906 386.623C994.564 388.31 995.497 389.775 996.706 391.02V391.271H994.175ZM997.933 381.454C997.933 380.222 998.208 379.121 998.758 378.152C999.32 377.171 1000.08 376.411 1001.04 375.873C1002.01 375.322 1003.09 375.047 1004.29 375.047C1005.69 375.047 1006.91 375.406 1007.96 376.124C1009.02 376.842 1009.75 377.835 1010.17 379.103H1007.28C1007 378.505 1006.59 378.056 1006.06 377.757C1005.55 377.458 1004.95 377.309 1004.27 377.309C1003.54 377.309 1002.89 377.482 1002.31 377.829C1001.75 378.164 1001.31 378.643 1000.98 379.265C1000.67 379.887 1000.52 380.617 1000.52 381.454C1000.52 382.28 1000.67 383.01 1000.98 383.644C1001.31 384.266 1001.75 384.75 1002.31 385.097C1002.89 385.432 1003.54 385.6 1004.27 385.6C1004.95 385.6 1005.55 385.45 1006.06 385.151C1006.59 384.84 1007 384.385 1007.28 383.787H1010.17C1009.75 385.067 1009.02 386.066 1007.96 386.784C1006.92 387.49 1005.7 387.843 1004.29 387.843C1003.09 387.843 1002.01 387.574 1001.04 387.036C1000.08 386.485 999.32 385.725 998.758 384.756C998.208 383.787 997.933 382.687 997.933 381.454ZM1014.83 385.743H1018.96V387.735H1012.32V375.209H1014.83V385.743ZM1024.88 387.861C1024.01 387.861 1023.22 387.712 1022.51 387.412C1021.82 387.113 1021.27 386.683 1020.86 386.12C1020.45 385.558 1020.24 384.894 1020.23 384.128H1022.92C1022.96 384.643 1023.14 385.049 1023.46 385.349C1023.8 385.648 1024.25 385.797 1024.83 385.797C1025.41 385.797 1025.87 385.66 1026.21 385.384C1026.54 385.097 1026.71 384.726 1026.71 384.272C1026.71 383.901 1026.6 383.596 1026.37 383.357C1026.14 383.117 1025.86 382.932 1025.51 382.8C1025.17 382.657 1024.71 382.501 1024.11 382.334C1023.3 382.094 1022.63 381.861 1022.12 381.634C1021.61 381.394 1021.18 381.041 1020.81 380.575C1020.45 380.096 1020.27 379.462 1020.27 378.672C1020.27 377.931 1020.45 377.285 1020.82 376.734C1021.2 376.184 1021.72 375.765 1022.39 375.478C1023.06 375.179 1023.82 375.029 1024.68 375.029C1025.98 375.029 1027.02 375.346 1027.82 375.981C1028.64 376.603 1029.09 377.476 1029.17 378.601H1026.41C1026.38 378.17 1026.2 377.817 1025.85 377.542C1025.51 377.255 1025.07 377.111 1024.5 377.111C1024.01 377.111 1023.62 377.237 1023.32 377.488C1023.03 377.739 1022.89 378.104 1022.89 378.583C1022.89 378.918 1023 379.199 1023.21 379.426C1023.44 379.642 1023.71 379.821 1024.04 379.965C1024.37 380.096 1024.84 380.252 1025.44 380.431C1026.25 380.671 1026.91 380.91 1027.43 381.149C1027.94 381.388 1028.39 381.747 1028.76 382.226C1029.13 382.704 1029.31 383.333 1029.31 384.11C1029.31 384.78 1029.14 385.402 1028.79 385.977C1028.45 386.551 1027.94 387.012 1027.27 387.359C1026.6 387.694 1025.8 387.861 1024.88 387.861ZM1030.85 391.271V391.02C1032.05 389.775 1032.98 388.31 1033.63 386.623C1034.29 384.924 1034.61 383.165 1034.61 381.347C1034.61 379.48 1034.27 377.667 1033.57 375.909C1032.89 374.15 1031.89 372.642 1030.58 371.386V371.153H1033.11C1034.39 372.301 1035.36 373.779 1036.03 375.586C1036.7 377.38 1037.04 379.301 1037.04 381.347C1037.04 383.345 1036.71 385.217 1036.07 386.964C1035.43 388.711 1034.54 390.146 1033.38 391.271H1030.85Z" fill="#DFDFDF"/>
<path d="M775.024 704.864C820.978 705.408 928.957 687.081 993.238 609.421C1073.59 512.347 1056.46 647.354 1133.95 666.932C1195.95 682.594 1289.22 543.21 1328.1 471.559" stroke="#DFDFDF" stroke-width="5.71025"/>
<line x1="730.158" y1="528.659" x2="1363.18" y2="528.659" stroke="#EBFF5E" stroke-width="1.6315" stroke-dasharray="8.16 8.16"/>
<line x1="730.158" y1="620.434" x2="1363.18" y2="620.434" stroke="#72E4FC" stroke-width="1.6315" stroke-dasharray="8.16 8.16"/>
<rect x="1125" y="170" width="649.337" height="418.48" rx="17" fill="#FF9457"/>
<rect x="1133.16" y="178.157" width="633.022" height="402.165" rx="13.052" fill="#0D0225"/>
<rect width="633.022" height="2.44725" transform="translate(1133.16 246.681)" fill="#30294E"/>
<path d="M1172.8 216.743H1176.93V218.735H1170.29V206.209H1172.8V216.743ZM1177.88 213.728C1177.88 212.723 1178.08 211.832 1178.47 211.054C1178.88 210.277 1179.42 209.678 1180.11 209.26C1180.8 208.841 1181.57 208.632 1182.42 208.632C1183.16 208.632 1183.81 208.781 1184.36 209.08C1184.92 209.379 1185.37 209.756 1185.7 210.211V208.793H1188.23V218.735H1185.7V217.282C1185.38 217.748 1184.93 218.137 1184.36 218.448C1183.8 218.747 1183.14 218.897 1182.4 218.897C1181.56 218.897 1180.8 218.682 1180.11 218.251C1179.42 217.82 1178.88 217.216 1178.47 216.438C1178.08 215.649 1177.88 214.745 1177.88 213.728ZM1185.7 213.764C1185.7 213.154 1185.58 212.634 1185.35 212.203C1185.11 211.76 1184.78 211.425 1184.38 211.198C1183.97 210.959 1183.53 210.839 1183.07 210.839C1182.6 210.839 1182.17 210.953 1181.77 211.18C1181.38 211.407 1181.06 211.742 1180.8 212.185C1180.57 212.616 1180.45 213.13 1180.45 213.728C1180.45 214.327 1180.57 214.853 1180.8 215.308C1181.06 215.75 1181.38 216.091 1181.77 216.331C1182.18 216.57 1182.61 216.69 1183.07 216.69C1183.53 216.69 1183.97 216.576 1184.38 216.349C1184.78 216.109 1185.11 215.774 1185.35 215.344C1185.58 214.901 1185.7 214.374 1185.7 213.764ZM1193.2 210.337C1193.52 209.81 1193.94 209.397 1194.46 209.098C1194.98 208.799 1195.58 208.65 1196.25 208.65V211.288H1195.59C1194.8 211.288 1194.2 211.473 1193.79 211.844C1193.4 212.215 1193.2 212.861 1193.2 213.782V218.735H1190.69V208.793H1193.2V210.337ZM1201.84 208.632C1202.58 208.632 1203.23 208.781 1203.8 209.08C1204.36 209.367 1204.8 209.744 1205.12 210.211V208.793H1207.65V218.807C1207.65 219.729 1207.47 220.548 1207.1 221.266C1206.73 221.996 1206.17 222.57 1205.43 222.989C1204.69 223.42 1203.79 223.635 1202.74 223.635C1201.32 223.635 1200.16 223.306 1199.25 222.648C1198.36 221.99 1197.85 221.092 1197.73 219.956H1200.22C1200.36 220.41 1200.64 220.769 1201.07 221.033C1201.51 221.308 1202.04 221.445 1202.66 221.445C1203.39 221.445 1203.99 221.224 1204.44 220.781C1204.9 220.351 1205.12 219.693 1205.12 218.807V217.264C1204.8 217.73 1204.35 218.119 1203.78 218.43C1203.21 218.741 1202.57 218.897 1201.84 218.897C1201 218.897 1200.24 218.682 1199.54 218.251C1198.85 217.82 1198.3 217.216 1197.89 216.438C1197.5 215.649 1197.3 214.745 1197.3 213.728C1197.3 212.723 1197.5 211.832 1197.89 211.054C1198.3 210.277 1198.84 209.678 1199.52 209.26C1200.22 208.841 1200.99 208.632 1201.84 208.632ZM1205.12 213.764C1205.12 213.154 1205 212.634 1204.76 212.203C1204.52 211.76 1204.2 211.425 1203.8 211.198C1203.39 210.959 1202.95 210.839 1202.48 210.839C1202.02 210.839 1201.59 210.953 1201.19 211.18C1200.8 211.407 1200.47 211.742 1200.22 212.185C1199.98 212.616 1199.86 213.13 1199.86 213.728C1199.86 214.327 1199.98 214.853 1200.22 215.308C1200.47 215.75 1200.8 216.091 1201.19 216.331C1201.6 216.57 1202.03 216.69 1202.48 216.69C1202.95 216.69 1203.39 216.576 1203.8 216.349C1204.2 216.109 1204.52 215.774 1204.76 215.344C1205 214.901 1205.12 214.374 1205.12 213.764ZM1219.35 213.549C1219.35 213.908 1219.33 214.231 1219.28 214.518H1212.01C1212.07 215.236 1212.32 215.798 1212.76 216.205C1213.21 216.612 1213.75 216.815 1214.4 216.815C1215.33 216.815 1215.99 216.414 1216.39 215.613H1219.1C1218.81 216.57 1218.26 217.36 1217.45 217.982C1216.63 218.592 1215.63 218.897 1214.45 218.897C1213.49 218.897 1212.63 218.688 1211.87 218.269C1211.11 217.838 1210.52 217.234 1210.09 216.456C1209.67 215.679 1209.46 214.781 1209.46 213.764C1209.46 212.735 1209.67 211.832 1210.09 211.054C1210.51 210.277 1211.09 209.678 1211.85 209.26C1212.6 208.841 1213.47 208.632 1214.45 208.632C1215.4 208.632 1216.24 208.835 1216.98 209.242C1217.73 209.649 1218.31 210.229 1218.72 210.983C1219.14 211.724 1219.35 212.58 1219.35 213.549ZM1216.75 212.831C1216.74 212.185 1216.5 211.671 1216.05 211.288C1215.59 210.893 1215.04 210.695 1214.38 210.695C1213.76 210.695 1213.23 210.887 1212.8 211.27C1212.38 211.641 1212.12 212.161 1212.03 212.831H1216.75ZM1224.99 218.897C1224.17 218.897 1223.45 218.753 1222.8 218.466C1222.15 218.167 1221.64 217.766 1221.26 217.264C1220.88 216.761 1220.68 216.205 1220.65 215.595H1223.18C1223.22 215.978 1223.41 216.295 1223.73 216.546C1224.07 216.797 1224.48 216.923 1224.97 216.923C1225.45 216.923 1225.82 216.827 1226.08 216.636C1226.36 216.444 1226.5 216.199 1226.5 215.9C1226.5 215.577 1226.33 215.338 1225.99 215.182C1225.67 215.015 1225.15 214.835 1224.43 214.644C1223.69 214.464 1223.08 214.279 1222.6 214.087C1222.13 213.896 1221.73 213.603 1221.38 213.208C1221.05 212.813 1220.88 212.281 1220.88 211.611C1220.88 211.06 1221.03 210.558 1221.35 210.103C1221.67 209.649 1222.12 209.29 1222.71 209.026C1223.31 208.763 1224.01 208.632 1224.81 208.632C1225.99 208.632 1226.94 208.931 1227.64 209.529C1228.35 210.115 1228.74 210.911 1228.81 211.916H1226.41C1226.37 211.521 1226.2 211.21 1225.9 210.983C1225.62 210.743 1225.23 210.624 1224.74 210.624C1224.28 210.624 1223.93 210.707 1223.68 210.875C1223.44 211.042 1223.32 211.276 1223.32 211.575C1223.32 211.91 1223.49 212.167 1223.82 212.347C1224.16 212.514 1224.68 212.688 1225.38 212.867C1226.1 213.046 1226.69 213.232 1227.16 213.423C1227.63 213.615 1228.03 213.914 1228.36 214.321C1228.71 214.715 1228.89 215.242 1228.9 215.9C1228.9 216.474 1228.74 216.989 1228.42 217.443C1228.11 217.898 1227.65 218.257 1227.05 218.52C1226.47 218.771 1225.78 218.897 1224.99 218.897ZM1233.89 210.857V215.667C1233.89 216.002 1233.97 216.247 1234.12 216.402C1234.29 216.546 1234.56 216.618 1234.95 216.618H1236.11V218.735H1234.53C1232.42 218.735 1231.36 217.707 1231.36 215.649V210.857H1230.17V208.793H1231.36V206.334H1233.89V208.793H1236.11V210.857H1233.89ZM1241.59 212.454C1241.59 211.222 1241.86 210.121 1242.41 209.152C1242.97 208.171 1243.73 207.411 1244.69 206.873C1245.66 206.322 1246.74 206.047 1247.94 206.047C1249.34 206.047 1250.57 206.406 1251.62 207.124C1252.67 207.842 1253.41 208.835 1253.83 210.103H1250.94C1250.65 209.505 1250.24 209.056 1249.72 208.757C1249.2 208.458 1248.6 208.309 1247.92 208.309C1247.19 208.309 1246.54 208.482 1245.97 208.829C1245.4 209.164 1244.96 209.643 1244.64 210.265C1244.33 210.887 1244.17 211.617 1244.17 212.454C1244.17 213.28 1244.33 214.01 1244.64 214.644C1244.96 215.266 1245.4 215.75 1245.97 216.097C1246.54 216.432 1247.19 216.6 1247.92 216.6C1248.6 216.6 1249.2 216.45 1249.72 216.151C1250.24 215.84 1250.65 215.385 1250.94 214.787H1253.83C1253.41 216.067 1252.67 217.066 1251.62 217.784C1250.58 218.49 1249.35 218.843 1247.94 218.843C1246.74 218.843 1245.66 218.574 1244.69 218.036C1243.73 217.485 1242.97 216.725 1242.41 215.756C1241.86 214.787 1241.59 213.687 1241.59 212.454ZM1260.39 218.897C1259.43 218.897 1258.57 218.688 1257.8 218.269C1257.04 217.838 1256.43 217.234 1255.99 216.456C1255.56 215.679 1255.34 214.781 1255.34 213.764C1255.34 212.747 1255.57 211.85 1256.01 211.072C1256.46 210.295 1257.08 209.696 1257.86 209.278C1258.63 208.847 1259.5 208.632 1260.46 208.632C1261.42 208.632 1262.28 208.847 1263.06 209.278C1263.84 209.696 1264.45 210.295 1264.89 211.072C1265.35 211.85 1265.57 212.747 1265.57 213.764C1265.57 214.781 1265.34 215.679 1264.87 216.456C1264.42 217.234 1263.8 217.838 1263.01 218.269C1262.23 218.688 1261.36 218.897 1260.39 218.897ZM1260.39 216.708C1260.84 216.708 1261.27 216.6 1261.66 216.384C1262.07 216.157 1262.39 215.822 1262.63 215.379C1262.87 214.937 1262.99 214.398 1262.99 213.764C1262.99 212.819 1262.74 212.095 1262.24 211.593C1261.75 211.078 1261.14 210.821 1260.42 210.821C1259.71 210.821 1259.1 211.078 1258.61 211.593C1258.13 212.095 1257.89 212.819 1257.89 213.764C1257.89 214.709 1258.13 215.439 1258.59 215.954C1259.07 216.456 1259.67 216.708 1260.39 216.708ZM1272.93 208.65C1274.11 208.65 1275.07 209.026 1275.8 209.78C1276.53 210.522 1276.89 211.563 1276.89 212.903V218.735H1274.38V213.244C1274.38 212.454 1274.18 211.85 1273.79 211.431C1273.39 211.001 1272.85 210.785 1272.17 210.785C1271.48 210.785 1270.93 211.001 1270.52 211.431C1270.13 211.85 1269.93 212.454 1269.93 213.244V218.735H1267.42V208.793H1269.93V210.031C1270.26 209.601 1270.69 209.266 1271.2 209.026C1271.73 208.775 1272.3 208.65 1272.93 208.65ZM1282.21 210.857V215.667C1282.21 216.002 1282.29 216.247 1282.44 216.402C1282.61 216.546 1282.88 216.618 1283.27 216.618H1284.43V218.735H1282.85C1280.74 218.735 1279.68 217.707 1279.68 215.649V210.857H1278.49V208.793H1279.68V206.334H1282.21V208.793H1284.43V210.857H1282.21ZM1295.48 213.549C1295.48 213.908 1295.46 214.231 1295.41 214.518H1288.14C1288.2 215.236 1288.45 215.798 1288.9 216.205C1289.34 216.612 1289.88 216.815 1290.53 216.815C1291.46 216.815 1292.13 216.414 1292.52 215.613H1295.23C1294.94 216.57 1294.39 217.36 1293.58 217.982C1292.77 218.592 1291.77 218.897 1290.58 218.897C1289.63 218.897 1288.76 218.688 1288 218.269C1287.24 217.838 1286.65 217.234 1286.22 216.456C1285.8 215.679 1285.59 214.781 1285.59 213.764C1285.59 212.735 1285.8 211.832 1286.22 211.054C1286.64 210.277 1287.23 209.678 1287.98 209.26C1288.73 208.841 1289.6 208.632 1290.58 208.632C1291.53 208.632 1292.37 208.835 1293.11 209.242C1293.87 209.649 1294.45 210.229 1294.85 210.983C1295.27 211.724 1295.48 212.58 1295.48 213.549ZM1292.88 212.831C1292.87 212.185 1292.63 211.671 1292.18 211.288C1291.73 210.893 1291.17 210.695 1290.51 210.695C1289.89 210.695 1289.36 210.887 1288.93 211.27C1288.51 211.641 1288.26 212.161 1288.16 212.831H1292.88ZM1302.83 208.65C1304.01 208.65 1304.97 209.026 1305.7 209.78C1306.43 210.522 1306.79 211.563 1306.79 212.903V218.735H1304.28V213.244C1304.28 212.454 1304.08 211.85 1303.69 211.431C1303.29 211.001 1302.75 210.785 1302.07 210.785C1301.38 210.785 1300.83 211.001 1300.42 211.431C1300.03 211.85 1299.83 212.454 1299.83 213.244V218.735H1297.32V208.793H1299.83V210.031C1300.16 209.601 1300.59 209.266 1301.1 209.026C1301.63 208.775 1302.2 208.65 1302.83 208.65ZM1312.11 210.857V215.667C1312.11 216.002 1312.18 216.247 1312.34 216.402C1312.51 216.546 1312.78 216.618 1313.17 216.618H1314.33V218.735H1312.75C1310.63 218.735 1309.58 217.707 1309.58 215.649V210.857H1308.39V208.793H1309.58V206.334H1312.11V208.793H1314.33V210.857H1312.11ZM1320.7 210.857H1318.96V218.735H1316.41V210.857H1315.28V208.793H1316.41V208.291C1316.41 207.07 1316.76 206.173 1317.45 205.599C1318.14 205.024 1319.19 204.755 1320.59 204.791V206.909C1319.98 206.897 1319.55 206.998 1319.32 207.214C1319.08 207.429 1318.96 207.818 1318.96 208.38V208.793H1320.7V210.857ZM1331.71 208.793V218.735H1329.18V217.479C1328.86 217.91 1328.43 218.251 1327.91 218.502C1327.39 218.741 1326.83 218.861 1326.22 218.861C1325.44 218.861 1324.75 218.7 1324.16 218.377C1323.56 218.042 1323.09 217.557 1322.74 216.923C1322.4 216.277 1322.24 215.511 1322.24 214.626V208.793H1324.75V214.267C1324.75 215.056 1324.95 215.667 1325.34 216.097C1325.74 216.516 1326.27 216.725 1326.96 216.725C1327.65 216.725 1328.19 216.516 1328.59 216.097C1328.98 215.667 1329.18 215.056 1329.18 214.267V208.793H1331.71ZM1336.7 205.455V218.735H1334.19V205.455H1336.7ZM1352.6 210.085C1352.6 210.755 1352.44 211.383 1352.11 211.97C1351.8 212.556 1351.3 213.028 1350.62 213.387C1349.95 213.746 1349.1 213.926 1348.07 213.926H1345.97V218.735H1343.46V206.209H1348.07C1349.04 206.209 1349.87 206.376 1350.55 206.711C1351.23 207.046 1351.74 207.507 1352.08 208.093C1352.42 208.679 1352.6 209.343 1352.6 210.085ZM1347.97 211.898C1348.66 211.898 1349.17 211.742 1349.51 211.431C1349.84 211.108 1350.01 210.66 1350.01 210.085C1350.01 208.865 1349.33 208.255 1347.97 208.255H1345.97V211.898H1347.97ZM1353.73 213.728C1353.73 212.723 1353.93 211.832 1354.33 211.054C1354.73 210.277 1355.28 209.678 1355.96 209.26C1356.65 208.841 1357.43 208.632 1358.27 208.632C1359.02 208.632 1359.66 208.781 1360.21 209.08C1360.78 209.379 1361.22 209.756 1361.56 210.211V208.793H1364.09V218.735H1361.56V217.282C1361.24 217.748 1360.79 218.137 1360.21 218.448C1359.65 218.747 1359 218.897 1358.26 218.897C1357.42 218.897 1356.65 218.682 1355.96 218.251C1355.28 217.82 1354.73 217.216 1354.33 216.438C1353.93 215.649 1353.73 214.745 1353.73 213.728ZM1361.56 213.764C1361.56 213.154 1361.44 212.634 1361.2 212.203C1360.96 211.76 1360.64 211.425 1360.23 211.198C1359.82 210.959 1359.39 210.839 1358.92 210.839C1358.45 210.839 1358.02 210.953 1357.63 211.18C1357.23 211.407 1356.91 211.742 1356.66 212.185C1356.42 212.616 1356.3 213.13 1356.3 213.728C1356.3 214.327 1356.42 214.853 1356.66 215.308C1356.91 215.75 1357.23 216.091 1357.63 216.331C1358.04 216.57 1358.47 216.69 1358.92 216.69C1359.39 216.69 1359.82 216.576 1360.23 216.349C1360.64 216.109 1360.96 215.774 1361.2 215.344C1361.44 214.901 1361.56 214.374 1361.56 213.764ZM1367.82 207.609C1367.38 207.609 1367 207.471 1366.71 207.196C1366.42 206.909 1366.27 206.556 1366.27 206.137C1366.27 205.718 1366.42 205.371 1366.71 205.096C1367 204.809 1367.38 204.665 1367.82 204.665C1368.26 204.665 1368.63 204.809 1368.91 205.096C1369.21 205.371 1369.36 205.718 1369.36 206.137C1369.36 206.556 1369.21 206.909 1368.91 207.196C1368.63 207.471 1368.26 207.609 1367.82 207.609ZM1369.06 208.793V218.735H1366.54V208.793H1369.06ZM1377.05 208.65C1378.23 208.65 1379.19 209.026 1379.92 209.78C1380.65 210.522 1381.01 211.563 1381.01 212.903V218.735H1378.5V213.244C1378.5 212.454 1378.3 211.85 1377.91 211.431C1377.51 211.001 1376.98 210.785 1376.29 210.785C1375.6 210.785 1375.05 211.001 1374.64 211.431C1374.25 211.85 1374.05 212.454 1374.05 213.244V218.735H1371.54V208.793H1374.05V210.031C1374.39 209.601 1374.81 209.266 1375.33 209.026C1375.85 208.775 1376.43 208.65 1377.05 208.65ZM1386.33 210.857V215.667C1386.33 216.002 1386.41 216.247 1386.56 216.402C1386.73 216.546 1387 216.618 1387.39 216.618H1388.55V218.735H1386.97C1384.86 218.735 1383.8 217.707 1383.8 215.649V210.857H1382.61V208.793H1383.8V206.334H1386.33V208.793H1388.55V210.857H1386.33ZM1398.98 222.271C1397.82 221.146 1396.92 219.711 1396.27 217.964C1395.64 216.217 1395.32 214.345 1395.32 212.347C1395.32 210.301 1395.65 208.38 1396.32 206.586C1396.99 204.779 1397.97 203.301 1399.25 202.153H1401.78V202.386C1400.46 203.642 1399.46 205.15 1398.77 206.909C1398.08 208.667 1397.74 210.48 1397.74 212.347C1397.74 214.165 1398.07 215.924 1398.71 217.623C1399.37 219.31 1400.3 220.775 1401.51 222.02V222.271H1398.98ZM1405.86 216.743H1409.99V218.735H1403.35V206.209H1405.86V216.743ZM1410.97 212.454C1410.97 211.222 1411.25 210.121 1411.8 209.152C1412.36 208.171 1413.12 207.411 1414.08 206.873C1415.05 206.322 1416.13 206.047 1417.33 206.047C1418.73 206.047 1419.95 206.406 1421.01 207.124C1422.06 207.842 1422.8 208.835 1423.21 210.103H1420.32C1420.04 209.505 1419.63 209.056 1419.1 208.757C1418.59 208.458 1417.99 208.309 1417.31 208.309C1416.58 208.309 1415.93 208.482 1415.35 208.829C1414.79 209.164 1414.35 209.643 1414.03 210.265C1413.71 210.887 1413.56 211.617 1413.56 212.454C1413.56 213.28 1413.71 214.01 1414.03 214.644C1414.35 215.266 1414.79 215.75 1415.35 216.097C1415.93 216.432 1416.58 216.6 1417.31 216.6C1417.99 216.6 1418.59 216.45 1419.1 216.151C1419.63 215.84 1420.04 215.385 1420.32 214.787H1423.21C1422.8 216.067 1422.06 217.066 1421.01 217.784C1419.97 218.49 1418.74 218.843 1417.33 218.843C1416.13 218.843 1415.05 218.574 1414.08 218.036C1413.12 217.485 1412.36 216.725 1411.8 215.756C1411.25 214.787 1410.97 213.687 1410.97 212.454ZM1434.5 210.085C1434.5 210.755 1434.33 211.383 1434.01 211.97C1433.7 212.556 1433.2 213.028 1432.52 213.387C1431.85 213.746 1431 213.926 1429.97 213.926H1427.87V218.735H1425.36V206.209H1429.97C1430.94 206.209 1431.77 206.376 1432.45 206.711C1433.13 207.046 1433.64 207.507 1433.97 208.093C1434.32 208.679 1434.5 209.343 1434.5 210.085ZM1429.86 211.898C1430.56 211.898 1431.07 211.742 1431.41 211.431C1431.74 211.108 1431.91 210.66 1431.91 210.085C1431.91 208.865 1431.23 208.255 1429.86 208.255H1427.87V211.898H1429.86ZM1435.63 222.271V222.02C1436.84 220.775 1437.77 219.31 1438.41 217.623C1439.07 215.924 1439.4 214.165 1439.4 212.347C1439.4 210.48 1439.05 208.667 1438.36 206.909C1437.68 205.15 1436.68 203.642 1435.36 202.386V202.153H1437.89C1439.17 203.301 1440.15 204.779 1440.82 206.586C1441.49 208.38 1441.82 210.301 1441.82 212.347C1441.82 214.345 1441.5 216.217 1440.86 217.964C1440.22 219.711 1439.32 221.146 1438.16 222.271H1435.63Z" fill="#DFDFDF"/>
<path d="M1178.02 535.864C1223.98 536.408 1331.96 518.081 1396.24 440.421C1476.59 343.347 1459.46 478.354 1536.95 497.932C1598.95 513.594 1692.22 374.21 1731.1 302.559" stroke="#DFDFDF" stroke-width="5.71025"/>
<line x1="1133.16" y1="359.659" x2="1766.18" y2="359.659" stroke="#EBFF5E" stroke-width="1.6315" stroke-dasharray="8.16 8.16"/>
<line x1="1133.16" y1="451.434" x2="1766.18" y2="451.434" stroke="#72E4FC" stroke-width="1.6315" stroke-dasharray="8.16 8.16"/>
</svg>
